<svg width="177" height="33" viewBox="0 0 177 33" fill="none" xmlns="http://www.w3.org/2000/svg">
<path d="M5.58105 7.55273L5.66895 7.52344H6.06445C6.18164 7.52344 6.35254 7.38672 6.57715 7.11328C6.59668 7.09375 6.85547 7.00098 7.35352 6.83496L7.41211 6.77637C7.54883 6.65918 7.64648 6.58105 7.70508 6.54199H7.9834C8.00293 6.54199 8.08105 6.49805 8.21777 6.41016C8.35449 6.3125 8.64258 6.20508 9.08203 6.08789C9.53125 5.9707 9.82422 5.87305 9.96094 5.79492C10.0195 5.77539 10.2344 5.74609 10.6055 5.70703L11.0156 5.63379L11.3379 5.66309C11.8555 5.66309 12.2266 6.00488 12.4512 6.68848C12.4512 6.72754 12.4756 6.79102 12.5244 6.87891C12.5732 6.95703 12.5977 7.01562 12.5977 7.05469C12.5977 7.46484 12.3975 7.89453 11.9971 8.34375L11.792 8.88574C11.792 8.90527 11.7383 8.97852 11.6309 9.10547C11.5332 9.23242 11.4453 9.38379 11.3672 9.55957C11.2891 9.72559 11.0791 9.97949 10.7373 10.3213C10.6787 10.4385 10.5957 10.624 10.4883 10.8779C10.3809 11.1221 10.2881 11.2832 10.21 11.3613C10.1416 11.4395 9.95117 11.7324 9.63867 12.2402C9.33594 12.748 9.18457 13.0459 9.18457 13.1338C9.03809 13.2412 8.93555 13.4219 8.87695 13.6758C8.82812 13.9297 8.73047 14.1689 8.58398 14.3936L8.55469 14.4961C8.86719 14.3887 9.02344 14.2178 9.02344 13.9834C9.02344 13.9541 9.10645 13.8809 9.27246 13.7637L9.38965 13.5586C9.50684 13.4219 9.60938 13.3438 9.69727 13.3242C9.7168 13.2461 9.81934 13.1338 10.0049 12.9873C10.1904 12.8311 10.3125 12.7236 10.3711 12.665C10.4395 12.6064 10.5469 12.5479 10.6934 12.4893C10.8398 12.4209 11.0059 12.1768 11.1914 11.7568C11.2109 11.6787 11.2842 11.6152 11.4111 11.5664C11.5479 11.5176 11.6602 11.4395 11.748 11.332C11.8359 11.2148 11.9092 11.1367 11.9678 11.0977L12.085 10.9219C12.1924 10.8242 12.2656 10.7656 12.3047 10.7461L13.0225 9.86719C13.4033 9.62305 13.6133 9.43262 13.6523 9.2959L13.7695 9.2666H13.8574C14.0137 9.13965 14.1162 9.05176 14.165 9.00293C14.165 8.70996 14.2725 8.51953 14.4873 8.43164C14.7119 8.33398 14.873 8.22168 14.9707 8.09473C15.0684 7.95801 15.1758 7.88965 15.293 7.88965C15.3223 7.88965 15.376 7.91895 15.4541 7.97754H15.4834C15.5127 7.97754 15.542 7.92871 15.5713 7.83105V7.68457C15.5713 7.51855 15.6201 7.38184 15.7178 7.27441C15.8154 7.16699 15.9473 7.09863 16.1133 7.06934C16.2793 7.03027 16.4404 6.90332 16.5967 6.68848C16.7529 6.47363 16.9287 6.36133 17.124 6.35156C17.3291 6.3418 17.4658 6.26367 17.5342 6.11719C17.6025 5.9707 17.8125 5.81445 18.1641 5.64844C18.5156 5.47266 18.7354 5.37988 18.8232 5.37012C18.9111 5.35059 18.9893 5.32129 19.0576 5.28223C19.1357 5.24316 19.2139 5.22363 19.292 5.22363C19.3896 5.22363 19.5312 5.25293 19.7168 5.31152L19.9805 5.37012C20.2051 5.46777 20.415 5.64844 20.6104 5.91211L20.7568 6.05859V6.11719L20.7861 6.36621V6.4834C20.9131 6.54199 20.9766 6.60059 20.9766 6.65918L20.874 6.84961C20.835 6.91797 20.8154 7.00098 20.8154 7.09863C20.8154 7.18652 20.8105 7.2793 20.8008 7.37695C20.791 7.46484 20.7764 7.55273 20.7568 7.64062C20.7471 7.71875 20.7275 7.79688 20.6982 7.875C20.6787 7.94336 20.6543 8.01172 20.625 8.08008C20.5957 8.13867 20.5615 8.19727 20.5225 8.25586L20.4053 8.72461C20.3662 8.91016 20.2588 9.13477 20.083 9.39844C19.917 9.65234 19.8193 9.83301 19.79 9.94043C19.7607 10.0381 19.6924 10.1748 19.585 10.3506L19.6143 10.4385V10.6436C19.917 10.6045 20.0684 10.4873 20.0684 10.292C20.0684 10.0869 20.1904 9.93555 20.4346 9.83789L20.7568 9.57422C21.0107 9.125 21.3232 8.83203 21.6943 8.69531C21.6943 8.53906 21.7871 8.37793 21.9727 8.21191L22.5293 7.68457L22.9248 7.46484C23.1006 7.10352 23.3008 6.88379 23.5254 6.80566L23.8477 6.60059C24.043 6.50293 24.1504 6.41016 24.1699 6.32227C24.1992 6.22461 24.2773 6.12695 24.4043 6.0293C24.5312 5.93164 24.7168 5.77051 24.9609 5.5459L25.0781 5.4873L25.2246 5.34082C25.332 5.28223 25.4541 5.2334 25.5908 5.19434L25.708 5.13574C25.9521 4.9502 26.1719 4.82812 26.3672 4.76953C26.5625 4.70117 26.7822 4.59375 27.0264 4.44727L27.5391 4.37402C27.6562 4.33496 27.7344 4.31543 27.7734 4.31543C28.7012 4.31543 29.165 4.83789 29.165 5.88281L29.1357 6.11719L29.165 6.9668C28.9209 7.36719 28.7988 7.57715 28.7988 7.59668L28.8281 7.86035C28.8281 7.89941 28.7646 8.0166 28.6377 8.21191C28.5107 8.39746 28.4326 8.50977 28.4033 8.54883C28.3838 8.58789 28.2959 8.69043 28.1396 8.85645L27.9932 9.2959C27.9443 9.39355 27.8613 9.48633 27.7441 9.57422V9.75C27.7441 9.89648 27.5537 10.1162 27.1729 10.4092C27.124 10.6631 27.0361 10.8535 26.9092 10.9805C26.792 11.0977 26.6992 11.2246 26.6309 11.3613C26.5723 11.4883 26.4746 11.6104 26.3379 11.7275C26.3379 11.8545 26.2549 12.0693 26.0889 12.3721C25.9229 12.6748 25.791 12.8701 25.6934 12.958C25.6055 13.0361 25.5127 13.1777 25.415 13.3828L25.2832 13.4414C25.2246 13.8125 25.1562 14.0225 25.0781 14.0713L24.8438 14.042V14.1006C24.8438 14.1201 24.8633 14.1543 24.9023 14.2031C24.9414 14.252 24.9609 14.3057 24.9609 14.3643C24.9609 14.4326 24.9316 14.4912 24.873 14.54C24.8145 14.5889 24.7803 14.6377 24.7705 14.6865C24.7607 14.7354 24.7363 14.7842 24.6973 14.833C24.668 14.8818 24.6484 14.9795 24.6387 15.126C24.6289 15.2627 24.5557 15.4531 24.4189 15.6973C24.2822 15.9414 24.209 16.1074 24.1992 16.1953C24.1895 16.2832 24.1748 16.3564 24.1553 16.415C24.1357 16.4736 24.126 16.5322 24.126 16.5908C24.126 16.6494 24.1016 16.8008 24.0527 17.0449C24.2383 17.4844 24.3701 17.7822 24.4482 17.9385C24.5264 18.0947 24.5654 18.1973 24.5654 18.2461C24.5654 18.6367 24.5166 18.9004 24.4189 19.0371C24.3213 19.1641 24.082 19.2275 23.7012 19.2275C23.457 19.2275 23.2422 19.1445 23.0566 18.9785C22.8809 18.8027 22.7246 18.7148 22.5879 18.7148V18.4512L22.5586 18.4219H22.3242C22.3047 18.4023 22.2607 18.3682 22.1924 18.3193C22.1338 18.2705 22.0752 18.2021 22.0166 18.1143L21.9287 18.0264C21.8506 17.9287 21.7822 17.7676 21.7236 17.543L21.6357 17.25L21.665 17.0156L21.6357 16.6494C21.6357 16.5518 21.6455 16.4736 21.665 16.415L21.6943 16.0195C21.6943 15.9805 21.7139 15.8975 21.7529 15.7705C21.792 15.6338 21.8164 15.4775 21.8262 15.3018C21.8359 15.1162 21.8799 14.9746 21.958 14.877C22.0361 14.7793 22.0801 14.6963 22.0898 14.6279C22.0996 14.5596 22.124 14.5059 22.1631 14.4668C22.2119 14.418 22.251 14.3057 22.2803 14.1299C22.3096 13.9541 22.4121 13.8125 22.5879 13.7051C22.6855 13.5293 22.7686 13.3633 22.8369 13.207C23.042 12.9238 23.1494 12.7822 23.1592 12.7822H23.3643C23.2666 12.665 23.2178 12.5967 23.2178 12.5771C23.2178 12.3135 23.3203 12.1816 23.5254 12.1816C23.5645 12.1816 23.6133 12.1914 23.6719 12.2109L23.7305 12.0938L23.6719 11.8447C23.6719 11.6787 23.7988 11.5127 24.0527 11.3467C24.0527 11.0635 24.1846 10.8096 24.4482 10.585L24.4189 10.3506C24.4775 10.292 24.5605 10.165 24.668 9.96973C24.7754 9.76465 24.9121 9.55957 25.0781 9.35449L25.5322 8.66602L25.7373 8.43164C25.7373 8.44141 25.7373 8.44629 25.7373 8.44629C25.7471 8.43652 25.7568 8.41699 25.7666 8.3877C25.7861 8.34863 25.8057 8.29492 25.8252 8.22656L25.9131 8.00684L26.0156 7.88965C26.2695 7.82129 26.3965 7.7334 26.3965 7.62598C26.3965 7.60645 26.3574 7.54297 26.2793 7.43555V7.37695C26.2793 7.29883 26.3379 7.20117 26.4551 7.08398C26.5723 6.9668 26.6797 6.80566 26.7773 6.60059C26.8848 6.38574 26.9385 6.25391 26.9385 6.20508C26.9385 6.16602 26.9189 6.14648 26.8799 6.14648C26.5674 6.14648 26.3574 6.25879 26.25 6.4834C26.25 6.54199 26.0596 6.65918 25.6787 6.83496L25.5322 7.05469C25.415 7.16211 25.3125 7.21582 25.2246 7.21582C25.1367 7.21582 25.0195 7.27441 24.873 7.3916C24.7363 7.49902 24.4287 7.75293 23.9502 8.15332C23.4717 8.54395 23.1201 8.86621 22.8955 9.12012L22.5586 9.35449C22.4219 9.42285 22.3535 9.47656 22.3535 9.51562C22.3535 9.61328 22.2705 9.74023 22.1045 9.89648L21.9287 10.1162C21.792 10.0674 21.7139 10.043 21.6943 10.043C21.5869 10.043 21.4941 10.0967 21.416 10.2041C21.4941 10.2822 21.5332 10.3311 21.5332 10.3506C21.5332 10.5068 21.3867 10.668 21.0938 10.834L20.4639 11.4932C20.4443 11.5127 20.3711 11.5664 20.2441 11.6543C20.1172 11.7422 20.0195 11.8545 19.9512 11.9912C19.8926 12.1182 19.7217 12.3477 19.4385 12.6797C19.1553 13.002 18.9893 13.1777 18.9404 13.207C18.8916 13.2266 18.833 13.29 18.7646 13.3975C18.6963 13.5049 18.5547 13.6562 18.3398 13.8516C18.125 14.0469 18.0029 14.2617 17.9736 14.4961C17.7881 14.5645 17.6953 14.623 17.6953 14.6719L17.6074 14.8184L17.4902 14.877C17.4707 14.916 17.4561 14.9844 17.4463 15.082C17.4365 15.1699 17.2412 15.3359 16.8604 15.5801C16.4795 15.8145 16.2402 15.9316 16.1426 15.9316C16.1133 15.9316 16.0693 15.9512 16.0107 15.9902C15.9521 16.0293 15.9131 16.0488 15.8936 16.0488C15.8643 16.0488 15.7324 15.9902 15.498 15.873C15.2734 15.7559 15.1074 15.4824 15 15.0527L15.1172 14.6719L15.0586 14.3643C15.0586 14.3057 15.1025 14.2275 15.1904 14.1299C15.2881 14.0322 15.3369 13.9102 15.3369 13.7637C15.4932 13.4121 15.6104 13.1631 15.6885 13.0166L15.7178 12.7822C15.7568 12.6846 15.8203 12.5771 15.9082 12.46C16.0059 12.333 16.0645 12.1963 16.084 12.0498C16.1035 11.8936 16.167 11.7959 16.2744 11.7568C16.3818 11.7178 16.7773 11.127 17.4609 9.98438V9.7793L17.8857 9.04688C18.0127 8.83203 18.1689 8.58789 18.3545 8.31445L18.4863 7.97754C18.1836 7.86035 18.0225 7.80176 18.0029 7.80176C17.9443 7.80176 17.8711 7.84082 17.7832 7.91895C17.7832 8.08496 17.4951 8.25586 16.9189 8.43164C16.8018 8.49023 16.6504 8.63184 16.4648 8.85645L16.0547 9.09082C15.9961 9.12988 15.9033 9.20801 15.7764 9.3252L15.5713 9.51562C15.3271 9.57422 15.1172 9.71094 14.9414 9.92578L14.5459 10.2041C14.4287 10.3018 14.3506 10.375 14.3115 10.4238C14.2725 10.4727 14.0918 10.5801 13.7695 10.7461L13.5352 10.9805L13.3154 11.0977C13.1592 11.2637 13.042 11.4053 12.9639 11.5225C12.8857 11.6396 12.7832 11.708 12.6562 11.7275L12.334 11.8447C12.2754 12.0986 12.0947 12.3428 11.792 12.5771L11.3672 13.1045C11.2891 13.1729 11.2207 13.2266 11.1621 13.2656C11.123 13.3633 11.0547 13.4316 10.957 13.4707C10.8301 13.627 10.7471 13.7344 10.708 13.793L10.5322 13.9248C10.2686 14.0225 10.1367 14.1006 10.1367 14.1592L10.166 14.4229C10.166 14.5303 10.0488 14.6328 9.81445 14.7305C9.7168 14.7793 9.6582 14.8574 9.63867 14.9648C9.62891 15.0723 9.59473 15.1846 9.53613 15.3018H9.27246C9.24316 15.3018 9.15039 15.3506 8.99414 15.4482C8.97461 15.4482 8.95508 15.458 8.93555 15.4775L8.99414 15.8145C8.99414 15.9316 8.91602 16.0684 8.75977 16.2246C8.60352 16.3711 8.48145 16.5029 8.39355 16.6201C8.31543 16.7373 8.25684 16.7959 8.21777 16.7959H8.12988L8.04199 16.8545C8.05176 17.04 7.92969 17.2402 7.67578 17.4551L7.5 17.6748C7.44141 17.7236 7.27539 17.9678 7.00195 18.4072C6.72852 18.8467 6.46973 19.2031 6.22559 19.4766C5.98145 19.75 5.75684 19.9355 5.55176 20.0332C5.34668 20.1211 5.12695 20.2139 4.89258 20.3115L4.29199 20.1943C4.2334 20.0869 4.14551 19.999 4.02832 19.9307C3.9209 19.8623 3.86719 19.7891 3.86719 19.7109L3.69141 19.1982C3.69141 19.0615 3.74512 18.8955 3.85254 18.7002C3.95996 18.4951 4.02344 18.3389 4.04297 18.2314C4.07227 18.1143 4.13086 17.9629 4.21875 17.7773C4.30664 17.582 4.35059 17.4746 4.35059 17.4551C4.35059 17.1914 4.38965 17.0303 4.46777 16.9717C4.55566 16.9033 4.74609 16.7568 5.03906 16.5322C5.05859 16.5322 5.06836 16.5127 5.06836 16.4736V16.4443L5.03906 16.1953C5.26367 15.8145 5.40527 15.624 5.46387 15.624C5.4834 15.624 5.52246 15.6338 5.58105 15.6533L5.49316 15.3311C5.49316 15.292 5.54688 15.2285 5.6543 15.1406C5.76172 15.0527 5.84473 14.9551 5.90332 14.8477L5.84473 14.6719V14.6133C5.84473 14.4277 5.9668 14.2373 6.21094 14.042C6.25 13.9639 6.32812 13.7637 6.44531 13.4414L6.82617 12.7676C6.92383 12.582 7.02637 12.46 7.13379 12.4014C7.24121 12.333 7.2998 12.2549 7.30957 12.167C7.31934 12.0791 7.35352 11.9814 7.41211 11.874C7.41211 11.9229 7.41699 11.9277 7.42676 11.8887C7.44629 11.8398 7.4707 11.7422 7.5 11.5957C7.53906 11.4492 7.65137 11.332 7.83691 11.2441C8.06152 10.668 8.2373 10.3799 8.36426 10.3799C8.40332 10.3799 8.45703 10.3994 8.52539 10.4385H8.58398C8.74023 10.4385 8.81836 10.3799 8.81836 10.2627C8.81836 10.2236 8.79883 10.2041 8.75977 10.2041C8.67188 10.3018 8.59375 10.3506 8.52539 10.3506C8.45703 10.3506 8.42285 10.3311 8.42285 10.292C8.42285 10.2725 8.4375 10.2529 8.4668 10.2334L8.78906 9.57422L8.81836 9.2959C8.85742 9.2373 8.93555 9.14941 9.05273 9.03223L9.30176 8.69531V8.54883C9.30176 8.5293 9.3457 8.43164 9.43359 8.25586C9.52148 8.07031 9.58496 7.88965 9.62402 7.71387L9.87305 7.34766C9.91211 7.23047 9.93164 7.12305 9.93164 7.02539C9.93164 6.87891 9.91211 6.80566 9.87305 6.80566L9.02344 6.9668C8.56445 7.20117 8.2373 7.38672 8.04199 7.52344L7.70508 7.59668C7.68555 7.59668 7.55371 7.66504 7.30957 7.80176C7.0752 7.92871 6.86523 8.00195 6.67969 8.02148C6.50391 8.03125 6.34766 8.09961 6.21094 8.22656L6.15234 8.25586H5.87402C5.7666 8.38281 5.69336 8.48047 5.6543 8.54883C5.61523 8.60742 5.58105 8.63672 5.55176 8.63672C4.56543 9.29102 3.94043 9.68652 3.67676 9.82324C3.41309 9.95996 3.21289 10.0869 3.07617 10.2041C2.93945 10.3115 2.82227 10.3896 2.72461 10.4385V10.6143C2.72461 10.7803 2.60254 10.9707 2.3584 11.1855C2.12402 11.3906 1.91895 11.4932 1.74316 11.4932C1.68457 11.4932 1.5918 11.4639 1.46484 11.4053C1.34766 11.3369 1.21094 11.293 1.05469 11.2734C0.908203 11.2539 0.834961 11.0684 0.834961 10.7168C0.834961 10.2188 1.24512 9.76465 2.06543 9.35449C2.19238 9.2959 2.30957 9.22754 2.41699 9.14941C2.52441 9.07129 2.95898 8.88086 3.7207 8.57812L4.14551 8.37305C4.24316 8.27539 4.4043 8.1875 4.62891 8.10938C4.86328 8.02148 5.04395 7.94824 5.1709 7.88965C5.30762 7.83105 5.41504 7.79199 5.49316 7.77246L5.58105 7.55273ZM19.3213 11.0977L19.4678 10.834V10.8047C19.4678 10.7852 19.4482 10.7754 19.4092 10.7754C19.3115 10.7754 19.2334 10.873 19.1748 11.0684C19.1943 11.127 19.2139 11.1562 19.2334 11.1562C19.2725 11.1562 19.3018 11.1367 19.3213 11.0977ZM35.2441 18.3047L34.5557 18.9053C34.5166 18.8662 34.4775 18.8467 34.4385 18.8467C34.3408 18.8467 34.2188 18.9346 34.0723 19.1104C33.9355 19.2861 33.8379 19.374 33.7793 19.374L33.6328 19.3447C33.3887 19.5303 33.2129 19.6377 33.1055 19.667C32.998 19.6963 32.8662 19.75 32.71 19.8281C32.5635 19.9062 32.4268 19.9502 32.2998 19.96C32.1826 19.9697 32.085 20.0137 32.0068 20.0918C31.9287 20.1602 31.7383 20.1943 31.4355 20.1943L31.2012 20.165C31.0742 20.2236 30.9912 20.2529 30.9521 20.2529C30.874 20.2529 30.791 20.2139 30.7031 20.1357C30.6152 20.0479 30.5176 19.999 30.4102 19.9893C30.3125 19.9795 30.21 19.9111 30.1025 19.7842C29.9951 19.6572 29.8926 19.5693 29.7949 19.5205C29.707 19.4717 29.6338 19.4033 29.5752 19.3154L29.3701 19.1396C29.2041 19.0225 29.043 18.8076 28.8867 18.4951C28.7305 18.1826 28.6523 17.9385 28.6523 17.7627V17.7041L28.6816 17.4258L28.6523 17.1035C28.6914 17.0645 28.7402 16.9814 28.7988 16.8545V16.3857L29.1504 15.2139C29.1699 15.165 29.1309 15.1016 29.0332 15.0234C28.9355 15.1699 28.8379 15.2578 28.7402 15.2871C28.6426 15.3164 28.5742 15.3848 28.5352 15.4922C28.5059 15.5996 28.4521 15.6533 28.374 15.6533L28.1982 15.5947C28.1787 15.6143 28.1348 15.7168 28.0664 15.9023C27.998 16.0781 27.8809 16.166 27.7148 16.166C27.5391 16.166 27.4512 16.0977 27.4512 15.9609L27.4805 15.6973L27.3926 15.3311C27.3926 15.2529 27.4707 15.1016 27.627 14.877C27.7832 14.6426 27.9248 14.5107 28.0518 14.4814C28.1885 14.4424 28.3008 14.3496 28.3887 14.2031C28.4863 14.0469 28.6914 13.8613 29.0039 13.6465C29.1797 13.6074 29.3311 13.4805 29.458 13.2656C29.5947 13.1582 29.7705 13.0703 29.9854 13.002C30.21 12.9336 30.376 12.8359 30.4834 12.709C30.6006 12.5723 30.9326 12.3672 31.4795 12.0938C32.0361 11.8105 32.4414 11.6689 32.6953 11.6689C32.7734 11.6689 32.8809 11.6494 33.0176 11.6104C33.1543 11.5615 33.2812 11.5225 33.3984 11.4932C33.5156 11.4541 33.6377 11.4004 33.7646 11.332C33.8916 11.2539 33.9941 11.2148 34.0723 11.2148L34.4971 11.3613C34.8096 11.4492 35 11.5127 35.0684 11.5518C35.0879 11.5713 35.1855 11.6152 35.3613 11.6836C35.5469 11.7422 35.7324 11.8252 35.918 11.9326C36.1133 12.04 36.2109 12.2402 36.2109 12.5332C36.0449 12.7773 35.9619 12.9092 35.9619 12.9287C35.9619 12.9678 36.0742 13.0264 36.2988 13.1045C36.377 13.251 36.4941 13.4414 36.6504 13.6758L36.8115 14.1885L36.8408 15.3896L36.8115 15.5068C36.7041 15.6045 36.6504 15.668 36.6504 15.6973L36.6943 15.9902L36.5771 16.4004C36.5479 16.5273 36.499 16.6104 36.4307 16.6494C36.3623 16.6885 36.3184 16.7373 36.2988 16.7959L36.2109 16.9131C36.1914 16.9424 36.1475 17.0303 36.0791 17.1768C36.0205 17.3135 35.9521 17.4209 35.874 17.499C35.7959 17.5771 35.7471 17.6699 35.7275 17.7773C35.708 17.8848 35.6592 17.9629 35.5811 18.0117C35.5029 18.0605 35.4443 18.1143 35.4053 18.1729C35.376 18.2217 35.3223 18.2656 35.2441 18.3047ZM30.6885 18.6855L30.7471 19.0225L30.7764 19.0518H31.0107L31.084 19.0811C31.2793 19.1201 31.4258 19.1396 31.5234 19.1396C31.8262 19.1396 32.0654 19.0664 32.2412 18.9199C32.4268 18.7637 32.5732 18.6855 32.6807 18.6855C32.7881 18.6855 32.876 18.6123 32.9443 18.4658C33.0225 18.3193 33.0713 18.2461 33.0908 18.2461H33.2959L33.3545 18.2168C33.3545 17.9922 33.4521 17.8311 33.6475 17.7334C33.8525 17.6357 33.9941 17.5088 34.0723 17.3525C34.1602 17.1865 34.2578 17.0645 34.3652 16.9863C34.4727 16.8984 34.5459 16.7861 34.585 16.6494L34.7021 16.4736C34.7412 16.4346 34.7607 16.3613 34.7607 16.2539L35.0391 15.7266C35.0977 15.4824 35.127 15.292 35.127 15.1553C35.127 14.9502 35.0195 14.7891 34.8047 14.6719C34.5996 14.5547 34.4971 14.3252 34.4971 13.9834C34.4971 13.7588 34.6094 13.5537 34.834 13.3682C35.0684 13.1729 35.1855 13.0557 35.1855 13.0166C35.1855 12.958 35.1562 12.9287 35.0977 12.9287C35.0684 12.9287 34.9561 12.9678 34.7607 13.0459C34.6924 13.1826 34.3457 13.3633 33.7207 13.5879C33.5156 13.4902 33.4033 13.4414 33.3838 13.4414C33.3252 13.4414 33.2666 13.5 33.208 13.6172C33.1494 13.7344 33.0908 13.8174 33.0322 13.8662H32.8418C32.8223 13.8662 32.7588 13.9297 32.6514 14.0566C32.5439 14.1836 32.4072 14.2471 32.2412 14.2471L32.0654 14.4229C32.0752 14.5791 31.9775 14.7402 31.7725 14.9062L31.6113 15.0967C31.5137 15.2139 31.3867 15.3506 31.2305 15.5068L30.9668 16.166C30.8594 16.4199 30.8057 16.6104 30.8057 16.7373C30.7764 16.7959 30.708 16.8594 30.6006 16.9277C30.5029 16.9863 30.4541 17.0645 30.4541 17.1621C30.4541 17.1816 30.4883 17.2305 30.5566 17.3086C30.625 17.3867 30.6592 17.4453 30.6592 17.4844L30.6006 17.6748L30.542 18.2168L30.6885 18.6855ZM39.7266 15.5947V15.4482C39.7266 15.3506 39.8242 15.1406 40.0195 14.8184C40.2148 14.4961 40.4395 14.2861 40.6934 14.1885C40.7129 14.1885 40.7227 14.1787 40.7227 14.1592L40.6934 13.9248C40.7324 13.8857 40.8301 13.7588 40.9863 13.5439C41.1426 13.3291 41.2939 13.2363 41.4404 13.2656C41.5479 13.1094 41.6846 12.9824 41.8506 12.8848C42.0166 12.7773 42.168 12.6406 42.3047 12.4746L42.8467 12.1377C43.2275 11.8838 43.5059 11.7568 43.6816 11.7568H43.9014C44.0186 11.5615 44.1748 11.4639 44.3701 11.4639C44.5557 11.4639 44.6777 11.4932 44.7363 11.5518C44.7559 11.5713 44.7754 11.5811 44.7949 11.5811C44.8047 11.5811 44.8633 11.542 44.9707 11.4639C45.0781 11.3857 45.21 11.3467 45.3662 11.3467C45.4053 11.3467 45.625 11.4248 46.0254 11.5811C46.1426 11.4639 46.2549 11.4053 46.3623 11.4053C46.4014 11.4053 46.4697 11.4346 46.5674 11.4932C46.665 11.5518 46.7627 11.6055 46.8604 11.6543C46.9678 11.6934 47.0703 11.874 47.168 12.1963C47.2656 12.5088 47.3145 12.6846 47.3145 12.7236C47.3145 12.8799 47.1826 13.0654 46.9189 13.2803C46.665 13.4854 46.4258 13.5879 46.2012 13.5879C46.123 13.5879 46.0254 13.5195 45.9082 13.3828C45.6152 13.3242 45.3662 13.251 45.1611 13.1631C44.8877 13.2217 44.6777 13.2949 44.5312 13.3828H44.502L44.3701 13.2656L44.2529 13.2363H44.2236C44.1943 13.2754 44.1553 13.3438 44.1064 13.4414C43.9502 13.5488 43.8135 13.6221 43.6963 13.6611C43.5889 13.6904 43.501 13.7441 43.4326 13.8223C43.3643 13.8906 43.2471 13.9639 43.0811 14.042C42.9248 14.1201 42.8076 14.2275 42.7295 14.3643C42.5342 14.4717 42.3926 14.5352 42.3047 14.5547H42.2168C42.1387 14.7109 41.958 14.9697 41.6748 15.3311L41.2939 15.9609C41.2061 16.0391 41.0986 16.1318 40.9717 16.2393C40.8447 16.3369 40.7812 16.4248 40.7812 16.5029C40.7812 16.5225 40.791 16.5713 40.8105 16.6494V16.7959C40.8105 16.8545 40.7617 16.9277 40.6641 17.0156C40.5762 17.0938 40.5322 17.1523 40.5322 17.1914L40.5615 17.5137L40.4443 18.0264C40.4443 18.3291 40.6641 18.4805 41.1035 18.4805H41.3232L41.9531 18.3779C42.1582 18.3486 42.3291 18.3193 42.4658 18.29C42.6025 18.2607 42.6807 18.2461 42.7002 18.2461C42.7197 18.2461 42.7979 18.1924 42.9346 18.085H43.0811L43.2129 18.0557C43.252 17.8506 43.5303 17.6797 44.0479 17.543C44.165 17.3672 44.3604 17.2402 44.6338 17.1621C44.917 17.0742 45.2002 16.8936 45.4834 16.6201H45.7031C45.7324 16.6201 45.8203 16.5664 45.9668 16.459C46.123 16.3418 46.2793 16.249 46.4355 16.1807C46.6016 16.1123 46.7041 16.0537 46.7432 16.0049C46.7822 15.9561 46.8555 15.9121 46.9629 15.873C47.1387 15.5996 47.3486 15.4287 47.5928 15.3604L47.6514 15.3018C47.8076 15.165 47.9053 15.0967 47.9443 15.0967L48.1201 15.126C48.2178 15.126 48.2764 15.0674 48.2959 14.9502C48.3252 14.8232 48.4814 14.6572 48.7646 14.4521C49.0576 14.2373 49.2432 14.1299 49.3213 14.1299C49.5068 14.1299 49.5996 14.2275 49.5996 14.4229C49.5996 14.5693 49.5166 14.6523 49.3506 14.6719C49.458 14.9258 49.5117 15.0674 49.5117 15.0967C49.5117 15.4189 49.3506 15.6289 49.0283 15.7266C48.9893 15.7461 48.9697 15.7754 48.9697 15.8145L48.9404 16.0781C48.9502 16.0781 48.9502 16.0879 48.9404 16.1074C48.9307 16.1172 48.9111 16.1367 48.8818 16.166L48.6621 16.1953L48.6035 16.2832C48.3887 16.4004 48.1396 16.6006 47.8564 16.8838L47.5635 17.1914H47.5195C47.4219 17.0938 47.3438 17.0449 47.2852 17.0449C47.2461 17.0449 47.1973 17.1133 47.1387 17.25C46.8066 17.582 46.5674 17.7725 46.4209 17.8213C46.3623 17.8408 46.2598 17.9189 46.1133 18.0557L45.8203 18.2461H45.6006C45.5713 18.2754 45.542 18.3193 45.5127 18.3779C45.4932 18.4268 45.4102 18.5049 45.2637 18.6123C45.1172 18.7197 45.0098 18.8174 44.9414 18.9053C44.8828 18.9834 44.7949 19.042 44.6777 19.0811L44.4141 19.0225C44.3262 19.1787 44.165 19.2568 43.9307 19.2568C43.8721 19.2959 43.7842 19.374 43.667 19.4912C43.5596 19.5986 43.4863 19.6523 43.4473 19.6523C43.4082 19.6523 43.3057 19.5938 43.1396 19.4766H43.1104C43.0127 19.4766 42.9639 19.5498 42.9639 19.6963C42.9639 19.8428 42.8711 19.9209 42.6855 19.9307C42.5098 19.9404 42.3438 19.9893 42.1875 20.0771H42.1582C41.9336 20.0771 41.7725 20.0381 41.6748 19.96C41.5771 19.8721 41.4893 19.8086 41.4111 19.7695C41.1084 19.8672 40.9473 19.916 40.9277 19.916C40.8105 19.916 40.6982 19.8672 40.5908 19.7695L39.9609 19.4473C39.9219 19.418 39.8535 19.2861 39.7559 19.0518L39.668 18.9346C39.3555 18.876 39.1455 18.5537 39.0381 17.9678L38.9209 17.6162C38.9014 17.5967 38.8916 17.5527 38.8916 17.4844C38.8916 17.3867 38.9307 17.2402 39.0088 17.0449C39.0869 16.8398 39.165 16.5713 39.2432 16.2393C39.3213 15.8975 39.4824 15.6826 39.7266 15.5947ZM48.0322 15.5361V15.4775L48.1201 15.3896C48.1201 15.3311 48.1787 15.2383 48.2959 15.1113C48.4033 14.9746 48.4717 14.8672 48.501 14.7891C48.5303 14.7109 48.5791 14.6523 48.6475 14.6133C48.7158 14.5742 48.7744 14.5059 48.8232 14.4082C48.8818 14.3008 48.999 14.1982 49.1748 14.1006L50.6689 12.2109C50.835 12.0059 50.957 11.8643 51.0352 11.7861C51.3574 11.3857 51.6162 10.9072 51.8115 10.3506C51.8506 10.292 51.9092 10.2334 51.9873 10.1748C52.2314 9.69629 52.4561 9.1543 52.6611 8.54883L52.8076 8.31445C52.8174 8.28516 52.9004 8.12891 53.0566 7.8457C53.2129 7.55273 53.3252 7.36719 53.3936 7.28906C53.4717 7.21094 53.5449 7.03027 53.6133 6.74707L53.9355 6.10254C54.0234 5.90723 54.1553 5.59473 54.3311 5.16504C54.5752 5.07715 54.6973 5.02344 54.6973 5.00391C54.6973 4.96484 54.6826 4.9209 54.6533 4.87207C54.624 4.82324 54.5996 4.7793 54.5801 4.74023C54.6191 4.60352 54.6973 4.49121 54.8145 4.40332L54.873 4.34473C54.873 4.30566 54.9121 4.22754 54.9902 4.11035L55.0195 4.02246C55.1953 3.63184 55.4199 3.30469 55.6934 3.04102C55.9766 2.77734 56.2451 2.64551 56.499 2.64551C56.7334 2.64551 56.8652 2.7334 56.8945 2.90918C56.9238 3.08496 56.9678 3.23145 57.0264 3.34863C57.0947 3.45605 57.1289 3.56836 57.1289 3.68555V4.05176L57.041 5.31152C57.041 5.33105 57.0508 5.37012 57.0703 5.42871C56.9824 5.50684 56.9287 5.60937 56.9092 5.73633L56.3086 7.34766C56.2598 7.35742 56.1572 7.50879 56.001 7.80176L55.7812 8.22656C55.5469 8.67578 55.3662 8.93457 55.2393 9.00293L55.1514 9.12012C55.0439 9.27637 54.9512 9.35449 54.873 9.35449C54.873 9.59863 54.7852 9.80371 54.6094 9.96973C54.4434 10.126 54.3164 10.3066 54.2285 10.5117C54.1406 10.707 53.9746 10.8633 53.7305 10.9805C53.6523 11.1367 53.5547 11.3076 53.4375 11.4932L52.7783 12.3867C52.6025 12.6309 52.4658 12.9287 52.3682 13.2803C52.2803 13.6221 52.1875 13.8662 52.0898 14.0127L52.0312 14.1592C51.8066 14.2959 51.6943 14.3789 51.6943 14.4082C51.6943 14.457 51.6748 14.6133 51.6357 14.877C51.5576 15.082 51.5088 15.1943 51.4893 15.2139L51.5186 15.5361L51.3281 15.5654C51.3086 15.585 51.2793 15.668 51.2402 15.8145V16.1074L51.2695 16.1367C51.3086 16.1367 51.3525 16.0684 51.4014 15.9316C51.5381 15.834 51.7139 15.7314 51.9287 15.624L52.0312 15.5654C52.1094 15.3311 52.1875 15.1846 52.2656 15.126L52.5586 14.7305L52.9834 14.3643C53.3838 13.9736 53.584 13.7637 53.584 13.7344C53.584 13.7148 53.5938 13.6953 53.6133 13.6758L53.8184 13.7051L53.9209 13.6465L53.877 13.3828C53.8867 13.373 53.96 13.3145 54.0967 13.207L54.5508 12.7529L54.7852 12.5771C54.8633 12.5088 54.9609 12.4209 55.0781 12.3135C55.2051 12.2061 55.3076 12.1523 55.3857 12.1523L55.5615 12.2109C55.6787 11.918 55.9375 11.6836 56.3379 11.5078C56.7383 11.332 56.9727 11.2441 57.041 11.2441L57.876 11.4346C57.9541 11.5127 58.1201 11.6299 58.374 11.7861C58.6377 11.9326 58.7695 12.3037 58.7695 12.8994C58.7695 12.958 58.7109 13.1094 58.5938 13.3535L58.623 13.6172C58.623 13.6758 58.5449 13.7783 58.3887 13.9248L58.3008 14.2178L57.4512 14.9941C57.3535 15.0625 57.251 15.1113 57.1436 15.1406C57.0459 15.1699 56.9434 15.2285 56.8359 15.3164C56.7285 15.4043 56.4893 15.541 56.1182 15.7266C55.7471 15.9023 55.5615 16.0488 55.5615 16.166C55.5615 16.2051 55.625 16.3174 55.752 16.5029C55.8887 16.6787 55.9863 16.8301 56.0449 16.957C56.1035 17.084 56.2109 17.2305 56.3672 17.3965C56.5332 17.5625 56.6748 17.6553 56.792 17.6748C56.9092 17.6943 57.0312 17.7236 57.1582 17.7627C57.168 17.7432 57.2559 17.7041 57.4219 17.6455C57.5879 17.5771 57.71 17.5039 57.7881 17.4258L57.9932 17.3672C58.1299 17.3477 58.2227 17.2891 58.2715 17.1914C58.3301 17.0938 58.4717 16.9814 58.6963 16.8545C58.9209 16.7178 59.0967 16.5664 59.2236 16.4004C59.3604 16.2246 59.4824 16.1367 59.5898 16.1367H59.7656C59.9023 16.1367 59.9805 16.0391 60 15.8438C60.2637 15.7266 60.4541 15.6045 60.5713 15.4775C60.6885 15.3408 60.8203 15.2334 60.9668 15.1553L61.0547 15.0967C61.3184 14.8135 61.5381 14.6719 61.7139 14.6719C61.8115 14.6719 61.8799 14.7207 61.9189 14.8184C61.8408 15.1406 61.8018 15.3652 61.8018 15.4922C61.8018 15.5801 61.7432 15.7559 61.626 16.0195C61.5186 16.2832 61.46 16.415 61.4502 16.415L61.2891 16.3564H61.2598C61.2012 16.3564 61.1426 16.3906 61.084 16.459C61.0254 16.5273 60.9668 16.5713 60.9082 16.5908C60.8496 16.6104 60.7861 16.6689 60.7178 16.7666C60.6592 16.8643 60.5615 16.9424 60.4248 17.001C60.2881 17.0498 60.1758 17.123 60.0879 17.2207C60.0098 17.3184 59.9512 17.3818 59.9121 17.4111C59.873 17.4404 59.834 17.4795 59.7949 17.5283C59.7559 17.5674 59.7119 17.6016 59.6631 17.6309C59.6143 17.6602 59.5508 17.7188 59.4727 17.8066C59.4043 17.8945 59.3115 17.9678 59.1943 18.0264C59.0771 18.085 58.9844 18.1777 58.916 18.3047C58.8574 18.4219 58.7744 18.5049 58.667 18.5537C58.5693 18.6025 58.4277 18.6855 58.2422 18.8027L57.8467 19.0811C57.749 19.1396 57.6904 19.1689 57.6709 19.1689H57.627L57.4805 19.1396C57.4414 19.1396 57.4219 19.1689 57.4219 19.2275C57.3047 19.3936 57.1973 19.4766 57.0996 19.4766C56.9922 19.4766 56.8555 19.5107 56.6895 19.5791C56.5332 19.6475 56.416 19.6816 56.3379 19.6816C56.2012 19.6816 55.9424 19.6328 55.5615 19.5352C55.4834 19.4473 55.3955 19.3838 55.2979 19.3447C55.2002 19.3057 55.0781 19.125 54.9316 18.8027L54.7266 18.627C54.5605 18.5098 54.292 18.0117 53.9209 17.1328L53.7891 16.957C53.4766 16.8887 53.3203 16.7373 53.3203 16.5029C53.3203 16.4541 53.3789 16.3125 53.4961 16.0781L53.6426 15.9902C53.7012 15.873 53.7695 15.8047 53.8477 15.7852C53.9355 15.7656 54.0088 15.6973 54.0674 15.5801C54.126 15.4531 54.2139 15.3896 54.3311 15.3896H54.3896C54.5264 15.2529 54.6582 15.1504 54.7852 15.082C54.9219 15.0039 55.0293 14.9258 55.1074 14.8477C55.1953 14.7695 55.4102 14.6719 55.752 14.5547C56.1035 14.4375 56.2793 14.0664 56.2793 13.4414C56.2793 13.3828 56.2305 13.3438 56.1328 13.3242C55.8496 13.4219 55.6396 13.5488 55.5029 13.7051C55.3076 13.7246 55.1562 13.8271 55.0488 14.0127C54.9414 14.1885 54.8438 14.2764 54.7559 14.2764L54.4775 14.2471C54.4189 14.2471 54.3604 14.3301 54.3018 14.4961C54.2432 14.6523 54.165 14.7305 54.0674 14.7305H53.9502L53.7598 14.8184L53.7012 15.0527C53.4766 15.2969 53.2959 15.4189 53.1592 15.4189L53.042 15.7559C52.8857 15.8145 52.7051 15.9609 52.5 16.1953L52.4121 16.2539C52.334 16.3418 52.2754 16.415 52.2363 16.4736C52.1973 16.5322 52.1387 16.5615 52.0605 16.5615C51.9336 16.6396 51.8213 16.8008 51.7236 17.0449C51.6064 17.0449 51.5283 17.1377 51.4893 17.3232C51.4502 17.499 51.3672 17.5869 51.2402 17.5869H51.123C51.0254 17.8115 50.9424 17.9531 50.874 18.0117C50.8057 18.0605 50.7275 18.1387 50.6396 18.2461C50.5518 18.3535 50.4834 18.4609 50.4346 18.5684C50.3857 18.6758 50.2881 18.7881 50.1416 18.9053C49.9951 19.0225 49.8828 19.1201 49.8047 19.1982L49.5703 19.3447C49.4434 19.4326 49.3604 19.4961 49.3213 19.5352C49.2822 19.5742 49.2334 19.5938 49.1748 19.5938C49.0771 19.5938 48.9355 19.5205 48.75 19.374C48.5742 19.2178 48.4863 19.1006 48.4863 19.0225C48.4863 18.4561 48.5352 18.0557 48.6328 17.8213L49.0283 16.7959C49.1455 16.4834 49.2822 16.21 49.4385 15.9756C49.6045 15.7412 49.6875 15.5752 49.6875 15.4775C49.6875 15.3408 49.6387 15.2725 49.541 15.2725C49.1992 15.6143 48.9746 15.8145 48.8672 15.873C48.3105 15.8047 48.0322 15.6924 48.0322 15.5361ZM67.793 7.43555L67.7051 6.86426V6.77637C67.7051 6.31738 67.8613 6.06348 68.1738 6.01465C68.2422 6.00488 68.4473 5.94141 68.7891 5.82422C68.9648 5.86328 69.1455 6.01953 69.3311 6.29297C69.5264 6.55664 69.624 6.79102 69.624 6.99609C69.624 7.01562 69.6094 7.05957 69.5801 7.12793C69.5508 7.19629 69.5312 7.32812 69.5215 7.52344C69.5117 7.70898 69.4141 7.875 69.2285 8.02148C69.0527 8.1582 68.8623 8.22656 68.6572 8.22656C68.5205 8.22656 68.3447 8.13379 68.1299 7.94824C67.9248 7.75293 67.8125 7.58203 67.793 7.43555ZM61.4648 14.7598L61.6992 14.5547H61.7871C61.8555 14.5547 61.958 14.4814 62.0947 14.335L62.2412 14.2764C62.4365 13.9834 62.6074 13.8125 62.7539 13.7637L62.9883 13.5879C63.0273 13.5488 63.0811 13.5146 63.1494 13.4854C63.2275 13.4561 63.3447 13.3633 63.501 13.207C63.667 13.041 63.7988 12.958 63.8965 12.958C63.9941 12.958 64.0723 12.9678 64.1309 12.9873C64.1895 12.8701 64.3066 12.7578 64.4824 12.6504C64.6582 12.5332 64.7998 12.3965 64.9072 12.2402L65.0977 12.1523C65.2539 12.0742 65.3906 11.9766 65.5078 11.8594C65.6348 11.7324 65.7959 11.6689 65.9912 11.6689C66.2744 11.6689 66.5674 11.8154 66.8701 12.1084C67.1826 12.3916 67.3389 12.665 67.3389 12.9287L67.0898 14.0713C66.9238 14.9111 66.7383 15.3506 66.5332 15.3896L66.4746 15.6973C66.3379 15.7949 66.2695 15.873 66.2695 15.9316L66.3574 16.2832C66.3574 16.332 66.3037 16.4053 66.1963 16.5029C66.1768 16.5029 66.167 16.5322 66.167 16.5908V17.1914C66.167 17.2988 66.0986 17.3867 65.9619 17.4551C65.9814 17.4746 66.0107 17.4941 66.0498 17.5137C66.1084 17.4551 66.2402 17.4258 66.4453 17.4258L66.6797 17.4551L67.002 17.1328C67.0703 17.1133 67.1631 17.0693 67.2803 17.001C67.4072 16.9229 67.6172 16.8252 67.9102 16.708L69.8291 15.2432C70.0928 14.9795 70.293 14.8477 70.4297 14.8477C70.5762 14.8477 70.6494 14.9404 70.6494 15.126C70.6494 15.3408 70.6055 15.5215 70.5176 15.668C70.4395 15.8047 70.3662 15.9756 70.2979 16.1807C70.2295 16.376 70.1465 16.5127 70.0488 16.5908C69.9609 16.6689 69.8877 16.7568 69.8291 16.8545C69.7705 16.9424 69.6094 17.0742 69.3457 17.25C69.0918 17.4258 68.8721 17.6064 68.6865 17.792C68.5107 17.9678 68.3643 18.0947 68.2471 18.1729L67.6172 18.627L67.5293 18.7734C67.5098 18.793 67.417 18.8369 67.251 18.9053C67.0947 18.9639 66.9531 19.042 66.8262 19.1396L66.5625 19.2861C66.5039 19.3252 66.4062 19.3496 66.2695 19.3594C66.1426 19.3691 66.0303 19.4277 65.9326 19.5352C65.835 19.6328 65.7568 19.6816 65.6982 19.6816L65.4785 19.6523L65.1855 19.7402C65.0195 19.7402 64.8145 19.6426 64.5703 19.4473C64.3359 19.2422 64.2188 19.0273 64.2188 18.8027V18.7148L64.248 18.5098C64.248 18.4707 64.2188 18.373 64.1602 18.2168C64.1016 18.0508 64.0723 17.958 64.0723 17.9385L64.1016 17.7334L64.0723 17.6455C64.0723 17.3818 64.0918 17.2158 64.1309 17.1475C64.1699 17.0791 64.1992 16.9863 64.2188 16.8691C64.2383 16.7422 64.2578 16.6396 64.2773 16.5615L64.3506 16.1953C64.3896 16.0781 64.4385 16 64.4971 15.9609C64.5166 15.8828 64.5557 15.751 64.6143 15.5654L64.6729 15.3018L64.8193 15.0967C64.8975 15.0186 64.9414 14.916 64.9512 14.7891C64.9707 14.6523 65.0244 14.5107 65.1123 14.3643C65.2002 14.2178 65.2441 14.1299 65.2441 14.1006C65.2441 13.9834 65.1855 13.9248 65.0684 13.9248C65.0293 13.9248 64.9072 14.0029 64.7021 14.1592L64.4385 14.0713C64.4189 14.0713 64.3652 14.1201 64.2773 14.2178C64.2773 14.2568 64.2334 14.2861 64.1455 14.3057C64.0576 14.3252 63.9746 14.3984 63.8965 14.5254L63.7793 14.5547L63.5889 14.4668H63.5303C63.4326 14.4668 63.374 14.5742 63.3545 14.7891C63.2471 14.9453 63.1055 15.0479 62.9297 15.0967L62.6074 15.1846C62.5 15.2236 62.4219 15.3115 62.373 15.4482C62.3242 15.585 62.2266 15.7119 62.0801 15.8291C61.9336 15.9365 61.8359 15.9902 61.7871 15.9902C61.5137 15.9902 61.377 15.8389 61.377 15.5361L61.4941 14.8477L61.4648 14.7598ZM83.4521 16.957H83.5107L83.6572 17.0156C83.6768 17.0156 83.6963 17.0059 83.7158 16.9863C83.7158 16.8203 83.7939 16.6787 83.9502 16.5615C83.999 16.376 84.1064 16.2344 84.2725 16.1367C84.4482 16.0391 84.7217 15.8779 85.0928 15.6533L85.459 15.3311L85.6348 15.2432L85.752 15.0967C85.8594 14.9697 85.9619 14.9062 86.0596 14.9062C86.2061 14.9062 86.2793 14.96 86.2793 15.0674L86.1475 15.3604L86.2061 15.8438C86.2061 16.0195 86.1426 16.1758 86.0156 16.3125C85.8984 16.4492 85.7129 16.6494 85.459 16.9131L84.7119 17.7041L84.3164 17.9092C84.2188 17.9678 84.1309 18.0361 84.0527 18.1143L83.4814 18.5977C83.4814 18.7344 83.4375 18.8369 83.3496 18.9053H83.1152L82.998 18.9639C82.9297 19.1494 82.7295 19.3301 82.3975 19.5059L82.1924 19.6523C82.124 19.7109 82.0605 19.7402 82.002 19.7402L81.5918 19.6816L81.3135 19.7402C81.2354 19.7402 81.1279 19.7012 80.9912 19.623C80.8643 19.5449 80.7324 19.4863 80.5957 19.4473C80.459 19.3984 80.2832 19.2178 80.0684 18.9053C79.8633 18.583 79.751 18.373 79.7314 18.2754C79.7314 18.2363 79.707 18.1729 79.6582 18.085C79.6191 17.9873 79.5996 17.9287 79.5996 17.9092C79.5996 17.8896 79.6436 17.792 79.7314 17.6162V17.5869C79.7314 17.5576 79.7021 17.4893 79.6436 17.3818C79.5947 17.2744 79.5703 17.1426 79.5703 16.9863C79.5703 16.8984 79.541 16.7861 79.4824 16.6494C79.5605 16.5713 79.5996 16.5127 79.5996 16.4736C79.5996 16.4346 79.585 16.3809 79.5557 16.3125C79.5264 16.2344 79.5117 16.1758 79.5117 16.1367L79.5996 15.4189L79.541 15.0527L79.5703 14.7012C79.5703 14.4961 79.4824 14.3936 79.3066 14.3936C79.2285 14.3936 79.1309 14.4473 79.0137 14.5547L78.9111 14.584C78.6475 14.7109 78.4619 14.8184 78.3545 14.9062C78.2471 14.9844 78.1348 15.0234 78.0176 15.0234C77.959 15.082 77.8467 15.1357 77.6807 15.1846L77.5635 15.2725C77.5244 15.3115 77.4463 15.3701 77.3291 15.4482C77.3291 15.4775 77.1436 15.6436 76.7725 15.9463C76.4111 16.2393 76.084 16.5176 75.791 16.7812C75.498 17.0449 75.2832 17.1914 75.1465 17.2207C75.0195 17.2402 74.9561 17.3623 74.9561 17.5869C74.9561 17.626 74.8682 17.7041 74.6924 17.8213C74.6729 17.8213 74.5703 17.9287 74.3848 18.1436C74.2285 18.0264 74.1406 17.9678 74.1211 17.9678C73.9941 17.9678 73.9014 18.1289 73.8428 18.4512C73.7842 18.5781 73.6279 18.6562 73.374 18.6855C73.3545 18.6953 73.3203 18.7686 73.2715 18.9053L73.2129 18.9639H73.0664C73.0469 18.9639 72.9785 19.0225 72.8613 19.1396C72.7441 19.2471 72.6416 19.3154 72.5537 19.3447C72.4268 19.6084 72.3193 19.7402 72.2314 19.7402C72.1924 19.7402 72.1338 19.7207 72.0557 19.6816C71.9873 19.6426 71.8994 19.6084 71.792 19.5791C71.6846 19.5498 71.5625 19.4326 71.4258 19.2275C71.2988 19.0127 71.2354 18.832 71.2354 18.6855C71.2354 17.6016 71.4453 17.0107 71.8652 16.9131L71.8945 16.8545V16.7373C71.8945 16.6104 71.9482 16.5225 72.0557 16.4736C72.1729 16.415 72.29 16.3076 72.4072 16.1514C72.5244 15.9854 72.6025 15.8926 72.6416 15.873H72.832C72.8711 15.873 72.8906 15.7705 72.8906 15.5654C72.8906 15.5068 72.915 15.4531 72.9639 15.4043C73.0127 15.3555 73.042 15.2871 73.0518 15.1992C73.0615 15.1016 73.1299 14.9502 73.2568 14.7451C73.3936 14.5303 73.4619 14.4033 73.4619 14.3643L73.4326 14.3057C73.1885 14.5303 73.0127 14.6523 72.9053 14.6719C72.7979 14.6914 72.6514 14.833 72.4658 15.0967L72.2314 15.0527C71.8213 15.3555 71.5674 15.5264 71.4697 15.5654C71.3721 15.6045 71.2646 15.7168 71.1475 15.9023C71.1475 15.9609 71.1133 16 71.0449 16.0195C70.9766 16.0391 70.8496 16.1172 70.6641 16.2539H70.5762C70.332 16.2539 70.21 16.0781 70.21 15.7266L70.5176 14.8916C70.6055 14.6279 70.8105 14.4082 71.1328 14.2324C71.4648 14.0469 71.7432 13.8711 71.9678 13.7051C72.1924 13.5391 72.417 13.4512 72.6416 13.4414L72.7441 13.2949C73.0762 13.168 73.3008 12.9678 73.418 12.6943C73.5352 12.4209 73.6963 12.2842 73.9014 12.2842C74.4385 12.2842 74.8486 12.4844 75.1318 12.8848C75.415 13.2754 75.5566 13.5879 75.5566 13.8223L75.5859 14.2178C75.5859 14.3545 75.5566 14.5449 75.498 14.7891C75.3809 14.9648 75.3223 15.0967 75.3223 15.1846C75.3223 15.2627 75.3711 15.3018 75.4688 15.3018C75.5273 15.3018 75.6055 15.2627 75.7031 15.1846C75.8008 15.0967 75.9082 15.0186 76.0254 14.9502C76.1523 14.8818 76.2256 14.8232 76.2451 14.7744C76.3428 14.54 76.5137 14.3789 76.7578 14.291C77.002 14.2031 77.1533 14.1299 77.2119 14.0713L77.3584 13.9541L77.4756 13.7344C77.7393 13.6172 77.915 13.5098 78.0029 13.4121C78.0908 13.3145 78.208 13.251 78.3545 13.2217C78.501 13.1924 78.667 13.1045 78.8525 12.958L79.0723 12.8994L79.2773 12.7822C79.2969 12.7627 79.3555 12.7383 79.4531 12.709C79.5508 12.6797 79.6924 12.6309 79.8779 12.5625C80.0732 12.4844 80.2051 12.4453 80.2734 12.4453C80.7715 12.4453 81.1621 12.6455 81.4453 13.0459C81.7383 13.4463 81.8848 13.7686 81.8848 14.0127L81.8555 14.2764L81.9141 14.6719V14.7305L81.7969 15.5361L81.8262 15.8145C81.8262 16.2734 81.7285 16.5908 81.5332 16.7666C81.4844 16.7861 81.46 16.835 81.46 16.9131V17.0449L81.7529 17.6602C81.8408 17.875 81.9092 17.9824 81.958 17.9824L82.4268 17.8506C82.5635 17.8115 82.6758 17.709 82.7637 17.543C82.8418 17.5039 82.9785 17.3867 83.1738 17.1914C83.2324 17.0352 83.3252 16.957 83.4521 16.957ZM85.4443 28.7051L85.21 28.8662C85.1123 28.9248 85.0098 28.9541 84.9023 28.9541C84.6582 28.9541 84.4238 28.793 84.1992 28.4707C83.9648 28.1484 83.8477 27.8164 83.8477 27.4746C83.8477 26.8594 83.9111 26.4199 84.0381 26.1562C84.1553 25.9023 84.2236 25.7119 84.2432 25.585C84.2432 25.5752 84.3506 25.3311 84.5654 24.8525C84.7705 24.3838 84.9658 24.0273 85.1514 23.7832C85.3369 23.5391 85.4932 23.3096 85.6201 23.0947L85.6787 22.9775C85.8252 22.7432 85.9668 22.582 86.1035 22.4941C86.1035 22.4355 86.2891 22.2305 86.6602 21.8789C87.041 21.5371 87.3975 21.2441 87.7295 21L87.876 20.7949C88.1104 20.6484 88.2471 20.5752 88.2861 20.5752L89.1357 20.3408C89.2139 20.2627 89.4043 20.1113 89.707 19.8867H89.8242L90.2197 19.7695C90.4346 19.6719 90.7666 19.584 91.2158 19.5059C91.6748 19.418 91.9336 19.3203 91.9922 19.2129C92.0605 19.0957 92.1143 18.9883 92.1533 18.8906C92.2021 18.793 92.3145 18.5879 92.4902 18.2754C92.5293 18.1094 92.5635 17.9775 92.5928 17.8799C92.6221 17.7822 92.6514 17.7236 92.6807 17.7041C92.7197 17.6846 92.7783 17.5918 92.8564 17.4258C92.9346 17.25 93.0127 17.1035 93.0908 16.9863C93.1104 16.9863 93.1201 16.9766 93.1201 16.957L93.0322 16.708C93.1104 16.4736 93.1885 16.332 93.2666 16.2832C93.3545 16.2246 93.3984 16.1855 93.3984 16.166L93.2959 15.9023L93.5449 15.3604C93.5449 15.3213 93.5254 15.3018 93.4863 15.3018C92.9688 15.6631 92.666 15.8438 92.5781 15.8438C92.5293 15.9121 92.4219 16.0293 92.2559 16.1953C92.0898 16.2539 91.9775 16.3564 91.9189 16.5029L91.8018 16.5322L91.7139 16.6787C91.7139 16.6982 91.6797 16.7227 91.6113 16.752C91.543 16.7812 91.4062 16.8594 91.2012 16.9863L91.0254 16.957C90.9863 16.957 90.9375 17.0547 90.8789 17.25C90.7129 17.4453 90.5518 17.5674 90.3955 17.6162C90.249 17.6553 90.1562 17.7041 90.1172 17.7627L90 17.9092L89.8535 17.8799C89.6484 17.8799 89.5459 17.958 89.5459 18.1143C89.5459 18.2021 89.4873 18.3047 89.3701 18.4219C89.292 18.4219 89.1943 18.4512 89.0771 18.5098H88.8574C88.7598 18.7246 88.584 18.8564 88.3301 18.9053L87.9053 19.1982L87.6562 19.2861C87.5391 19.3447 87.4219 19.418 87.3047 19.5059C87.1875 19.584 86.9873 19.6328 86.7041 19.6523C86.5674 19.5742 86.3574 19.501 86.0742 19.4326C85.791 19.3545 85.5908 18.876 85.4736 17.9971H85.4443C85.3662 17.9971 85.2832 18.0264 85.1953 18.085C85.0977 18.1436 85.0293 18.1729 84.9902 18.1729C84.7559 18.1729 84.6387 18.0752 84.6387 17.8799C84.6387 17.4404 84.8047 17.1523 85.1367 17.0156L85.5029 16.5615L86.4404 15.6387C87.0947 14.9844 87.5342 14.5645 87.7588 14.3789C87.9834 14.1934 88.2275 14.0127 88.4912 13.8369L89.2383 13.3389C89.4922 13.1729 89.6484 13.085 89.707 13.0752C89.7656 13.0557 89.8242 13.0215 89.8828 12.9727C89.9512 12.9238 90.1318 12.8506 90.4248 12.7529L90.6885 12.6357C91.2354 12.4502 91.5869 12.3574 91.7432 12.3574L91.9482 12.3867C92.0557 12.3867 92.1582 12.3477 92.2559 12.2695C92.3926 12.2695 92.6025 12.1621 92.8857 11.9473L93.4131 11.8008C93.5596 11.752 93.6816 11.7275 93.7793 11.7275H94.0576C94.2627 11.7275 94.3945 11.8887 94.4531 12.2109C94.5215 12.5332 94.5801 12.6943 94.6289 12.6943C94.6484 12.6943 94.707 12.6211 94.8047 12.4746L95.0098 12.3281C95.1562 12.2305 95.249 12.1816 95.2881 12.1816C95.5225 12.1816 95.6689 12.2793 95.7275 12.4746V12.5039L95.7861 12.5771C95.874 13.0459 95.918 13.334 95.918 13.4414C95.918 13.9102 95.8154 14.2764 95.6104 14.54C95.415 14.8037 95.2979 14.9893 95.2588 15.0967C95.0635 15.8877 94.8682 16.4834 94.6729 16.8838C94.624 16.9912 94.5068 17.2744 94.3213 17.7334L94.1748 17.8799C94.1357 17.8994 94.1162 17.9287 94.1162 17.9678L94.1455 18.1729C93.9795 18.4365 93.8965 18.6465 93.8965 18.8027C93.8965 18.8906 93.8184 19.0713 93.6621 19.3447C93.6816 19.3643 93.7646 19.418 93.9111 19.5059C94.0674 19.584 94.2383 19.7402 94.4238 19.9746C94.6191 20.1992 94.7168 20.3701 94.7168 20.4873C94.7168 20.5166 94.6631 20.707 94.5557 21.0586C94.2041 21.3223 93.9062 21.4541 93.6621 21.4541C93.5645 21.4541 93.4229 21.3906 93.2373 21.2637L93.1494 21.293V21.2344C93.0225 21.2051 92.9199 21.166 92.8418 21.1172C92.7734 21.0781 92.7051 21.0586 92.6367 21.0586C92.5586 21.0586 92.5195 21.0977 92.5195 21.1758C92.5195 21.2148 92.5293 21.2539 92.5488 21.293C92.4902 21.3418 92.4121 21.415 92.3145 21.5127C92.3145 21.542 92.2461 21.6836 92.1094 21.9375C91.9727 22.2012 91.8506 22.377 91.7432 22.4648C91.5283 22.4746 91.3818 22.6357 91.3037 22.9482C91.2256 23.2607 91.1328 23.4609 91.0254 23.5488L90.8789 23.4902C90.5469 24.1543 90.2148 24.6328 89.8828 24.9258C89.6777 24.9746 89.5703 25.0088 89.5605 25.0283C89.5605 25.0576 89.5508 25.1211 89.5312 25.2188C89.5215 25.3262 89.4043 25.4873 89.1797 25.7021C88.9648 25.9268 88.8379 26.0391 88.7988 26.0391L88.6523 26.0684L88.5645 26.1562C88.5742 26.3516 88.3154 26.6641 87.7881 27.0938C87.5049 27.25 87.3535 27.3574 87.334 27.416C87.2559 27.6016 86.9678 27.8213 86.4697 28.0752L86.1914 28.3242C86.0645 28.4414 85.9375 28.5244 85.8105 28.5732L85.4443 28.7051ZM90.4834 16.5029L90.6592 16.2539C90.7178 16.1758 90.8154 16.1172 90.9521 16.0781C91.0986 16.0391 91.2158 15.9561 91.3037 15.8291C91.5381 15.4971 91.8164 15.2529 92.1387 15.0967L92.2852 14.9941C92.4316 14.7109 92.5635 14.5596 92.6807 14.54C92.7979 14.5107 92.9004 14.4229 92.9883 14.2764C93.0762 14.1201 93.1201 13.9932 93.1201 13.8955C93.1201 13.8564 93.0908 13.8369 93.0322 13.8369C92.8955 13.8369 92.7734 13.876 92.666 13.9541C92.5684 14.0322 92.5 14.0713 92.4609 14.0713L92.168 14.042C91.9922 14.1396 91.748 14.2568 91.4355 14.3936L91.1719 14.6133C91.0547 14.6914 90.9473 14.7402 90.8496 14.7598C90.7617 14.7793 90.6934 14.8428 90.6445 14.9502C90.5957 15.0479 90.5322 15.0967 90.4541 15.0967L90.3369 15.1553C90.2979 15.1943 90.1855 15.2139 90 15.2139C89.9023 15.2725 89.7998 15.3555 89.6924 15.4629C89.5947 15.5703 89.5361 15.624 89.5166 15.624C89.292 15.8682 89.0967 16.0195 88.9307 16.0781C88.7744 16.1367 88.6719 16.2197 88.623 16.3271C88.4375 16.376 88.2812 16.4883 88.1543 16.6641C88.0273 16.8301 87.9102 16.9473 87.8027 17.0156C87.7051 17.0742 87.6172 17.1523 87.5391 17.25L87.3926 17.3672C87.334 17.4062 87.251 17.5381 87.1436 17.7627C87.0459 17.9775 86.9971 18.1289 86.9971 18.2168C86.9971 18.2754 87.0312 18.3047 87.0996 18.3047C87.1973 18.3047 87.3779 18.2363 87.6416 18.0996C87.915 17.9531 88.0908 17.8408 88.1689 17.7627C88.2471 17.6846 88.3008 17.6455 88.3301 17.6455L88.8867 17.6748C88.9453 17.5479 89.043 17.4648 89.1797 17.4258C89.3262 17.3867 89.4385 17.3037 89.5166 17.1768C89.5947 17.0498 89.8145 16.9131 90.1758 16.7666L90.3369 16.5029H90.4834ZM90.7471 21.1758L90.3076 21.2344C90.2002 21.1562 90.1172 21.1172 90.0586 21.1172C90.0195 21.1172 89.9902 21.1465 89.9707 21.2051C89.8535 21.3613 89.5947 21.4932 89.1943 21.6006C88.7939 21.708 88.5205 21.8154 88.374 21.9229C88.2373 22.04 88.1201 22.1035 88.0225 22.1133C87.9248 22.123 87.876 22.1426 87.876 22.1719C87.7783 22.25 87.7051 22.3184 87.6562 22.377C87.5586 22.416 87.4609 22.4746 87.3633 22.5527C87.2656 22.6406 87.1631 22.6943 87.0557 22.7139C86.8799 23.0947 86.7529 23.2852 86.6748 23.2852C86.6553 23.2852 86.6064 23.2754 86.5283 23.2559H86.499C86.3721 23.5098 86.2744 23.6562 86.2061 23.6953C86.1377 23.7344 86.0791 23.7881 86.0303 23.8564C85.9814 23.9346 85.8887 24.0176 85.752 24.1055C85.6055 24.1934 85.5078 24.3398 85.459 24.5449C85.4102 24.7598 85.3516 24.9014 85.2832 24.9697C85.2051 25.0479 85.1562 25.2139 85.1367 25.4678L85.0488 25.6729C85.0195 25.7314 84.9805 25.8975 84.9316 26.1709C84.873 26.4541 84.8438 26.6006 84.8438 26.6104C84.8438 26.7471 84.9023 26.8691 85.0195 26.9766C85.0586 26.9277 85.1416 26.8936 85.2686 26.874L86.1328 26.5225C86.1621 26.5029 86.2695 26.4102 86.4551 26.2441C86.6406 26.0879 86.8018 25.9854 86.9385 25.9365C87.085 25.8877 87.2168 25.7998 87.334 25.6729C87.4121 25.5557 87.5049 25.458 87.6123 25.3799C87.7295 25.3018 87.7979 25.2041 87.8174 25.0869C88.042 24.8916 88.2471 24.7061 88.4326 24.5303C88.6182 24.3643 88.7354 24.2227 88.7842 24.1055C88.8428 23.998 88.9307 23.9053 89.0479 23.8271L89.1064 23.6367C89.126 23.627 89.165 23.6123 89.2236 23.5928C89.292 23.583 89.3994 23.4268 89.5459 23.124L89.9414 22.4648C90.1758 22.2305 90.3662 21.9326 90.5127 21.5713L90.7178 21.3955C90.7568 21.376 90.7764 21.332 90.7764 21.2637L90.7471 21.1758ZM109.937 19.1982L109.834 19.4033C109.795 19.5107 109.697 19.5645 109.541 19.5645C109.521 19.5645 109.36 19.623 109.058 19.7402C108.755 19.8574 108.506 19.916 108.311 19.916L107.915 19.9453C107.681 19.9453 107.451 19.8818 107.227 19.7549C107.002 19.6182 106.841 19.4961 106.743 19.3887C106.646 19.2812 106.509 18.959 106.333 18.4219C106.167 17.8848 106.084 17.5625 106.084 17.4551C106.084 17.0742 106.187 16.8643 106.392 16.8252C106.392 16.7666 106.343 16.6592 106.245 16.5029C106.157 16.3369 106.113 16.2441 106.113 16.2246C106.113 15.6191 106.245 15.1504 106.509 14.8184C106.392 14.4375 106.333 14.2275 106.333 14.1885C106.333 14.1689 106.357 14.0908 106.406 13.9541C106.455 13.8076 106.489 13.6758 106.509 13.5586C106.528 13.4414 106.558 13.3438 106.597 13.2656L106.626 13.0166C106.646 12.8994 106.719 12.8408 106.846 12.8408C106.904 12.8408 106.934 12.8018 106.934 12.7236V12.6064L106.904 12.416C106.904 12.1426 106.973 11.9473 107.109 11.8301C107.246 11.7031 107.334 11.5225 107.373 11.2881C107.422 11.0439 107.48 10.8926 107.549 10.834C107.617 10.7754 107.671 10.6729 107.71 10.5264L107.915 10.1162L108.076 9.57422C108.096 9.4668 108.154 9.39844 108.252 9.36914C108.35 9.33984 108.398 9.2959 108.398 9.2373L108.369 9.06152C108.447 8.85645 108.501 8.70996 108.53 8.62207C108.56 8.53418 108.647 8.46094 108.794 8.40234C108.931 8.07031 109.048 7.83594 109.146 7.69922C109.253 7.5625 109.336 7.40625 109.395 7.23047C109.453 7.05469 109.6 6.88379 109.834 6.71777C109.854 6.67871 109.893 6.58105 109.951 6.4248C110.02 6.25879 110.103 6.16602 110.2 6.14648C110.298 6.12695 110.347 6.08789 110.347 6.0293L110.288 5.91211C110.288 5.83398 110.361 5.69238 110.508 5.4873L110.684 5.16504C110.771 5.06738 110.869 4.99414 110.977 4.94531C111.113 4.67187 111.289 4.39844 111.504 4.125C111.719 3.85156 111.904 3.55859 112.061 3.24609C112.285 2.98242 112.495 2.79199 112.69 2.6748L113.174 2.07422C113.291 1.83008 113.408 1.70801 113.525 1.70801C113.711 1.35645 113.94 1.12695 114.214 1.01953C114.263 1 114.399 0.897461 114.624 0.711914C114.858 0.516602 115.063 0.418945 115.239 0.418945C115.396 0.418945 115.596 0.589844 115.84 0.931641C116.084 1.27344 116.206 1.56152 116.206 1.7959C116.206 1.85449 116.172 1.94238 116.104 2.05957C116.045 2.16699 116.011 2.28418 116.001 2.41113C115.991 2.52832 115.933 2.87012 115.825 3.43652C115.718 4.00293 115.625 4.3252 115.547 4.40332L115.151 5.16504C115.112 5.28223 115.068 5.35059 115.02 5.37012C114.971 5.38965 114.912 5.46777 114.844 5.60449L114.917 5.91211H114.888C114.78 6.0293 114.668 6.24902 114.551 6.57129C114.395 6.80566 114.258 7.03027 114.141 7.24512C114.033 7.4502 113.979 7.58691 113.979 7.65527L113.892 7.86035C113.677 8.18262 113.535 8.44141 113.467 8.63672C113.369 8.71484 113.291 8.82227 113.232 8.95898C113.184 9.0957 113.115 9.19824 113.027 9.2666C112.939 9.3252 112.881 9.43262 112.852 9.58887C112.832 9.74512 112.808 9.83789 112.778 9.86719L112.485 9.83789V9.86719L112.515 10.292C112.515 10.3311 112.466 10.375 112.368 10.4238C112.28 10.4727 112.202 10.5801 112.134 10.7461C112.065 10.9023 111.943 10.9902 111.768 11.0098C111.68 11.0684 111.626 11.127 111.606 11.1855L111.665 11.4639C111.646 11.4834 111.567 11.5859 111.431 11.7715C111.304 11.957 111.226 12.0547 111.196 12.0645L110.889 12.0938C110.83 12.1133 110.801 12.2842 110.801 12.6064C110.801 12.8213 110.703 12.9678 110.508 13.0459C110 13.8271 109.702 14.2617 109.614 14.3496C109.536 14.4375 109.38 14.5059 109.146 14.5547C109.146 14.5742 109.126 14.584 109.087 14.584C108.989 14.584 108.779 14.4424 108.457 14.1592H108.428C108.301 14.7256 108.198 15.0479 108.12 15.126C108.052 15.2041 108.018 15.292 108.018 15.3896L108.164 15.6533V15.6973C108.164 15.9707 108.115 16.3076 108.018 16.708V16.7959L108.076 17.1035V17.6455L108.047 17.9678C108.125 18.1045 108.164 18.2266 108.164 18.334C108.164 18.6465 108.242 18.8027 108.398 18.8027C108.477 18.8027 108.599 18.7051 108.765 18.5098L108.94 18.4219C109.116 18.3438 109.282 18.168 109.438 17.8945C109.604 17.6211 109.688 17.3867 109.688 17.1914C109.688 16.9863 109.487 16.8838 109.087 16.8838C108.892 16.8447 108.794 16.6348 108.794 16.2539C108.794 16.0781 108.867 15.9219 109.014 15.7852C109.16 15.6387 109.287 15.4873 109.395 15.3311C109.629 14.9697 109.878 14.7891 110.142 14.7891L110.889 14.5254C110.967 14.5254 111.04 14.54 111.108 14.5693C111.187 14.5986 111.284 14.6328 111.401 14.6719C111.714 14.5547 111.875 14.4961 111.885 14.4961C112.227 14.4961 112.456 14.6719 112.573 15.0234C112.573 15.0918 112.651 15.126 112.808 15.126C113.149 15.126 113.433 15.0234 113.657 14.8184C113.892 14.6035 114.136 14.4326 114.39 14.3057C114.653 14.1689 114.863 14.0322 115.02 13.8955C115.186 13.749 115.288 13.6758 115.327 13.6758H115.547C115.566 13.6758 115.625 13.6123 115.723 13.4854C115.82 13.3584 116.001 13.2949 116.265 13.2949C116.362 13.2949 116.411 13.334 116.411 13.4121C116.411 13.9297 116.333 14.2373 116.177 14.335C116.03 14.4229 115.85 14.6328 115.635 14.9648L115.474 15.0527C115.376 15.1406 115.288 15.2383 115.21 15.3457C115.132 15.4531 115.054 15.5166 114.976 15.5361C114.751 15.8779 114.58 16.0488 114.463 16.0488C114.404 16.0488 114.336 16.0244 114.258 15.9756C114.189 15.9268 114.146 15.9023 114.126 15.9023C114.067 15.9023 114.019 16.0195 113.979 16.2539C113.921 16.3418 113.76 16.4834 113.496 16.6787C113.457 16.6787 113.389 16.6201 113.291 16.5029C113.291 16.4834 113.281 16.4736 113.262 16.4736C113.105 16.4736 113.008 16.5615 112.969 16.7373C112.939 16.9131 112.832 17.0107 112.646 17.0303L112.061 17.1328L111.724 17.1035C111.646 17.1035 111.475 17.3428 111.211 17.8213C110.957 18.2998 110.801 18.5488 110.742 18.5684C110.439 18.666 110.229 18.8467 110.112 19.1104L109.937 19.1982ZM114.917 2.39648V2.2207C114.692 2.2793 114.531 2.48926 114.434 2.85059L114.316 2.96777C114.131 3.08496 113.984 3.25098 113.877 3.46582C113.77 3.6709 113.594 3.9248 113.35 4.22754L113.291 4.40332L112.954 4.82812L112.896 5.10645C112.876 5.14551 112.803 5.20898 112.676 5.29688C112.549 5.38477 112.461 5.50684 112.412 5.66309C112.373 5.80957 112.266 5.99023 112.09 6.20508C111.924 6.41016 111.807 6.55176 111.738 6.62988C111.68 6.69824 111.567 6.95703 111.401 7.40625L111.313 7.55273C111.313 7.64062 111.265 7.71387 111.167 7.77246L110.625 8.43164C110.625 8.4707 110.605 8.6123 110.566 8.85645C110.42 8.87598 110.327 8.93457 110.288 9.03223L110.054 9.57422C110.034 9.63281 109.985 9.70117 109.907 9.7793C109.78 10.248 109.6 10.5898 109.365 10.8047L109.028 11.4932C108.989 11.5713 108.96 11.6787 108.94 11.8154L108.911 11.9033C108.794 12.1279 108.735 12.2988 108.735 12.416C108.735 12.4551 108.726 12.5771 108.706 12.7822H108.735C108.755 12.7822 108.794 12.7578 108.853 12.709C108.911 12.6602 108.989 12.6064 109.087 12.5479C109.185 12.4795 109.263 12.3574 109.321 12.1816C109.38 12.0059 109.473 11.8838 109.6 11.8154C109.736 11.7373 109.824 11.6592 109.863 11.5811L110.742 10.4092C110.801 10.3311 110.879 10.2432 110.977 10.1455C111.084 10.0381 111.138 9.95508 111.138 9.89648L111.255 9.69141C111.313 9.63281 111.411 9.52539 111.548 9.36914C111.694 9.21289 111.807 9.10547 111.885 9.04688C111.963 8.98828 112.007 8.89551 112.017 8.76855C112.026 8.6416 112.08 8.50977 112.178 8.37305L112.236 8.25586C112.344 8.12891 112.432 8.03613 112.5 7.97754C112.568 7.91895 112.607 7.85547 112.617 7.78711C112.627 7.71875 112.739 7.5918 112.954 7.40625C112.974 7.25977 113.086 7.02539 113.291 6.70312C113.506 6.37109 113.667 6.07324 113.774 5.80957C113.882 5.5459 113.984 5.36523 114.082 5.26758C114.189 5.16016 114.258 4.97461 114.287 4.71094L114.434 4.47656L114.888 3.2168L114.814 2.90918L114.917 2.39648ZM124.893 16.2832V16.4443L124.922 16.5615V16.6201C124.922 16.6396 124.902 16.752 124.863 16.957C124.717 17.1133 124.634 17.333 124.614 17.6162L124.438 17.8799C124.438 18.0166 124.39 18.124 124.292 18.2021C124.204 18.2803 124.126 18.4365 124.058 18.6709C123.989 18.9053 123.906 19.1543 123.809 19.418L123.472 20.2529C123.472 20.292 123.491 20.3115 123.53 20.3115C123.55 20.3115 123.579 20.3018 123.618 20.2822C123.667 20.2627 123.711 20.2529 123.75 20.2529C123.789 20.2529 123.828 20.2627 123.867 20.2822C123.906 20.3018 123.936 20.3115 123.955 20.3115C123.975 20.3115 124.043 20.2773 124.16 20.209C124.287 20.1406 124.429 20.0967 124.585 20.0771L125.127 19.9453C125.244 19.9062 125.483 19.8867 125.845 19.8867L126.299 19.8574C126.66 19.8574 127.021 19.9502 127.383 20.1357C127.754 20.3213 127.983 20.5166 128.071 20.7217C128.169 20.9268 128.218 21.2588 128.218 21.7178C128.218 22.0791 128.096 22.2598 127.852 22.2598C127.705 22.2598 127.515 22.167 127.28 21.9814C127.056 21.7959 126.899 21.5615 126.812 21.2783C126.724 20.9951 126.582 20.8535 126.387 20.8535L126.021 20.7363L125.815 20.7949H125.757C125.718 20.7949 125.63 20.7656 125.493 20.707H125.449L125.01 20.8242H124.409L124.131 20.9707C123.994 21.0098 123.843 21.0391 123.677 21.0586C123.521 21.0781 123.379 21.1172 123.252 21.1758C123.125 21.2344 123.062 21.2881 123.062 21.3369C123.062 21.6396 122.93 21.8984 122.666 22.1133C122.568 22.2695 122.515 22.3916 122.505 22.4795C122.495 22.5771 122.437 22.6797 122.329 22.7871C122.231 22.9043 122.124 23.0801 122.007 23.3145L121.89 23.5195C121.851 23.5781 121.831 23.627 121.831 23.666C121.831 23.6855 121.841 23.7246 121.86 23.7832V23.915C121.86 24.1885 121.699 24.4473 121.377 24.6914V24.8379C121.377 24.916 121.299 25.0283 121.143 25.1748L121.201 25.4678C121.201 25.5068 121.147 25.585 121.04 25.7021C120.933 25.8291 120.84 25.9658 120.762 26.1123C120.693 26.2686 120.557 26.4053 120.352 26.5225V26.6104L120.439 26.7861C120.469 26.7861 120.483 26.8057 120.483 26.8447C120.483 26.9131 120.41 27.0156 120.264 27.1523C120.225 27.3086 120.156 27.46 120.059 27.6064L119.458 28.4121C119.36 28.5488 119.312 28.6562 119.312 28.7344L119.209 29.0127C119.102 29.1006 119.023 29.1885 118.975 29.2764C118.936 29.374 118.809 29.5596 118.594 29.833C118.379 30.1064 118.237 30.2432 118.169 30.2432C118.228 30.3604 118.257 30.4287 118.257 30.4482C118.257 30.5654 118.179 30.707 118.022 30.873C117.769 30.873 117.642 30.9268 117.642 31.0342L117.715 31.3271C117.715 31.3662 117.661 31.4248 117.554 31.5029C117.446 31.5811 117.358 31.6201 117.29 31.6201H117.085L117.144 31.8838C117.104 31.9912 117.046 32.0645 116.968 32.1035C116.89 32.1426 116.758 32.2549 116.572 32.4404C116.396 32.6357 116.27 32.7529 116.191 32.792L116.001 32.9092L115.43 32.9678C115.273 32.9189 114.971 32.7578 114.521 32.4844C114.082 32.2109 113.833 31.9521 113.774 31.708C113.706 31.4736 113.672 31.1367 113.672 30.6973C113.672 30.6484 113.721 30.5654 113.818 30.4482L113.848 30.3311V30.0527C113.848 30.0332 113.896 29.8574 113.994 29.5254C114.092 29.2031 114.175 29.0225 114.243 28.9834C114.312 28.9541 114.419 28.7637 114.565 28.4121C114.712 28.0605 114.824 27.8311 114.902 27.7236L116.25 25.7461C116.25 25.6191 116.27 25.5361 116.309 25.4971H116.396C116.475 25.4971 116.528 25.4678 116.558 25.4092C116.587 25.3604 116.631 25.3018 116.689 25.2334C116.689 25.0479 116.772 24.8965 116.938 24.7793C117.114 24.6621 117.236 24.5303 117.305 24.3838C117.383 24.2471 117.471 24.1201 117.568 24.0029L117.598 23.915C117.637 23.876 117.72 23.8271 117.847 23.7686C117.983 23.7197 118.062 23.6465 118.081 23.5488L118.579 23.0654C118.628 23.0264 118.706 22.9775 118.813 22.9189C118.921 22.8604 119.033 22.7529 119.15 22.5967L119.253 22.5527H119.341L119.399 22.5234C119.517 22.2695 119.634 22.1328 119.751 22.1133C119.878 22.0938 119.961 22.0645 120 22.0254C119.99 21.7227 120.161 21.5713 120.513 21.5713C120.591 21.5713 120.649 21.5518 120.688 21.5127L121.04 21.2344C121.089 21.1953 121.182 21.0049 121.318 20.6631V20.6338L121.582 20.707L121.611 20.6338L121.553 20.3115C121.582 20.2725 121.641 20.1406 121.729 19.916C121.816 19.6816 121.899 19.5449 121.978 19.5059C122.056 19.4668 122.095 19.4229 122.095 19.374V19.1982L122.065 19.0225L122.124 18.9053V18.7148L122.153 18.6562C122.202 18.6074 122.261 18.4268 122.329 18.1143C122.368 18.0752 122.422 18.0361 122.49 17.9971L123.149 16.1367C123.169 16.0879 123.198 15.9609 123.237 15.7559L123.354 15.5947C123.472 15.2822 123.53 15.082 123.53 14.9941C123.53 14.9551 123.511 14.9355 123.472 14.9355C123.433 14.9355 123.345 14.9941 123.208 15.1113C123.071 15.2188 122.969 15.2725 122.9 15.2725L122.666 15.2139H122.607C122.549 15.2139 122.466 15.2627 122.358 15.3604C122.261 15.458 122.202 15.5068 122.183 15.5068L122.007 15.5361C121.909 15.7021 121.821 15.7949 121.743 15.8145L121.377 16.0488H121.348L121.143 15.9023C121.143 15.8828 121.118 15.873 121.069 15.873C121.03 15.873 120.972 15.9902 120.894 16.2246L120.439 16.4443C120.342 16.4248 120.283 16.415 120.264 16.415C120.166 16.415 120.073 16.5078 119.985 16.6934C119.897 16.8691 119.78 16.9668 119.634 16.9863C119.556 17.0742 119.375 17.1426 119.092 17.1914L118.228 17.792C118.13 17.8311 118.062 17.8799 118.022 17.9385C117.817 17.958 117.627 18.0703 117.451 18.2754L117.056 18.2461C116.958 18.2461 116.86 18.3096 116.763 18.4365C116.675 18.5635 116.582 18.627 116.484 18.627H116.396L116.221 18.5977L115.737 18.7148C115.601 18.7148 115.391 18.6123 115.107 18.4072C114.824 18.1924 114.683 18.0068 114.683 17.8506L114.595 17.1914C114.595 17.1719 114.634 17.1035 114.712 16.9863C114.79 16.8691 114.829 16.7861 114.829 16.7373C114.829 16.7178 114.819 16.6787 114.8 16.6201V16.5029C114.8 16.1611 114.922 15.751 115.166 15.2725V15.2139C115.166 15.1748 115.137 15.1553 115.078 15.1553C114.951 15.1553 114.844 15.2627 114.756 15.4775C114.668 15.6826 114.565 15.8291 114.448 15.917C114.331 16.0049 114.243 16.0781 114.185 16.1367C114.136 16.1953 114.092 16.2246 114.053 16.2246C113.994 16.1855 113.926 16.1562 113.848 16.1367C113.828 16.1172 113.794 16.0586 113.745 15.9609C113.696 15.8633 113.623 15.7852 113.525 15.7266C113.418 15.6582 113.364 15.5459 113.364 15.3896C113.364 15.2822 113.506 15.1406 113.789 14.9648L113.965 14.7891C114.414 14.3398 114.717 14.1006 114.873 14.0713L114.961 13.8662C115.098 13.7588 115.264 13.6123 115.459 13.4268C115.664 13.2314 115.845 13.0947 116.001 13.0166L116.792 12.3281C117.026 12.1133 117.349 12.0059 117.759 12.0059C118.071 12.0059 118.228 12.2061 118.228 12.6064C118.228 13.0068 118.154 13.3193 118.008 13.5439C117.871 13.7588 117.783 13.959 117.744 14.1445C117.715 14.3203 117.588 14.5596 117.363 14.8623C117.139 15.1553 117.002 15.375 116.953 15.5215C116.904 15.6582 116.802 15.8535 116.646 16.1074C116.499 16.3516 116.426 16.5713 116.426 16.7666C116.426 16.8643 116.484 16.9131 116.602 16.9131C116.768 16.9131 116.978 16.8252 117.231 16.6494L117.363 16.5908C117.461 16.5518 117.559 16.5029 117.656 16.4443L118.022 16.2832C118.091 16.1367 118.198 16.0391 118.345 15.9902L118.623 15.8438C118.76 15.7852 118.926 15.7119 119.121 15.624C119.326 15.5264 119.458 15.4336 119.517 15.3457C119.575 15.2578 119.648 15.1895 119.736 15.1406C119.834 15.082 119.941 14.9941 120.059 14.877C120.312 14.877 120.664 14.6572 121.113 14.2178C121.562 13.9541 121.982 13.6953 122.373 13.4414C122.764 13.1777 123.022 12.9873 123.149 12.8701C123.208 12.8311 123.311 12.7773 123.457 12.709C123.613 12.6406 123.784 12.5332 123.97 12.3867C124.165 12.2305 124.409 12.1523 124.702 12.1523C124.956 12.1523 125.2 12.25 125.435 12.4453C125.669 12.6309 125.786 12.8164 125.786 13.002L125.757 13.7051C125.757 14.1543 125.635 14.5352 125.391 14.8477C125.332 15.2383 125.264 15.5068 125.186 15.6533L125.215 15.9902C125.215 16.0488 125.107 16.1465 124.893 16.2832ZM117.949 27.5039L118.022 27.2988C118.042 27.2305 118.11 27.1621 118.228 27.0938C118.325 26.6738 118.457 26.4004 118.623 26.2734C118.623 26.0586 118.633 25.9365 118.652 25.9072L118.857 25.7168L119.429 24.75C119.487 24.6133 119.551 24.4814 119.619 24.3545C119.688 24.2373 119.741 24.1201 119.78 24.0029C119.78 23.8662 119.941 23.5977 120.264 23.1973V23.0947C120.264 22.958 120.234 22.8896 120.176 22.8896C120.117 22.958 120.02 23.0264 119.883 23.0947L118.945 23.8857C118.896 23.9248 118.765 24.0811 118.55 24.3545L118.271 24.6475C118.115 24.8135 117.993 24.916 117.905 24.9551C117.827 25.0039 117.725 25.1455 117.598 25.3799C117.48 25.624 117.378 25.7461 117.29 25.7461H117.231C117.222 25.7461 117.173 25.7217 117.085 25.6729C117.026 25.7021 116.997 25.7461 116.997 25.8047L117.085 26.1562C117.085 26.1953 117.046 26.2539 116.968 26.332C116.89 26.4199 116.821 26.5127 116.763 26.6104C116.714 26.708 116.66 26.7666 116.602 26.7861C116.543 26.8057 116.436 26.9863 116.279 27.3281L116.001 27.4746C115.972 28.0508 115.791 28.5146 115.459 28.8662C115.381 29.0225 115.317 29.1738 115.269 29.3203C115.22 29.4766 115.176 29.5742 115.137 29.6133C115.078 29.9746 114.976 30.1846 114.829 30.2432C114.79 30.2627 114.771 30.292 114.771 30.3311C114.771 30.3896 114.814 30.4482 114.902 30.5068L114.961 30.5654C114.834 30.9463 114.771 31.2295 114.771 31.415C114.771 31.4541 114.79 31.4736 114.829 31.4736L115.269 31.2539C115.581 31.1074 115.791 30.9219 115.898 30.6973L116.133 30.2432C116.172 30.1846 116.24 30.1455 116.338 30.126C116.396 29.9209 116.489 29.7891 116.616 29.7305C116.753 29.6719 116.821 29.5938 116.821 29.4961C116.821 29.3984 117.002 29.0615 117.363 28.4854C117.734 27.9092 117.93 27.582 117.949 27.5039ZM136.611 25.3213L136.685 25.0137C136.616 24.9551 136.582 24.8818 136.582 24.7939C136.582 24.374 136.646 24.0957 136.772 23.959C136.909 23.8223 137.031 23.6025 137.139 23.2998C137.256 23.0068 137.354 22.8262 137.432 22.7578C137.51 22.6895 137.603 22.4893 137.71 22.1572C137.817 21.8252 138.062 21.4883 138.442 21.1465C138.511 20.6484 138.73 20.3506 139.102 20.2529L139.644 19.4033C139.692 19.3447 139.761 19.3057 139.849 19.2861C139.946 19.2568 140.068 19.1787 140.215 19.0518C140.273 18.8271 140.464 18.6367 140.786 18.4805L141.211 18.0557L141.445 17.9385C141.504 17.8994 141.655 17.7627 141.899 17.5283C142.144 17.2939 142.383 17.1084 142.617 16.9717C142.861 16.8252 143.091 16.6885 143.306 16.5615C143.521 16.4248 143.647 16.3076 143.687 16.21C143.735 16.1025 143.813 15.9414 143.921 15.7266C144.028 15.502 144.126 15.2676 144.214 15.0234L144.507 14.6426C144.526 14.623 144.536 14.6035 144.536 14.584C144.536 14.5645 144.517 14.5107 144.478 14.4229V14.3936C144.478 14.1787 144.57 13.959 144.756 13.7344C144.951 13.5 145.049 13.2412 145.049 12.958C145.049 12.8799 145.117 12.7383 145.254 12.5332C145.4 12.3184 145.513 12.1914 145.591 12.1523L145.532 11.7861C145.591 11.6299 145.659 11.5078 145.737 11.4199C145.815 11.3223 145.894 11.0977 145.972 10.7461C146.079 10.502 146.182 10.3799 146.279 10.3799C146.357 10.3799 146.421 10.4287 146.47 10.5264C146.519 10.624 146.553 10.6729 146.572 10.6729C146.592 10.6533 146.602 10.6338 146.602 10.6143C146.602 10.4971 146.553 10.4189 146.455 10.3799C146.357 10.3311 146.309 10.2725 146.309 10.2041C146.309 9.95996 146.343 9.7793 146.411 9.66211C146.479 9.54492 146.519 9.44727 146.528 9.36914C146.538 9.28125 146.572 9.20801 146.631 9.14941C146.699 9.09082 146.738 9.02734 146.748 8.95898C146.758 8.89062 146.772 8.8125 146.792 8.72461V8.57812C146.792 8.48047 146.855 8.34863 146.982 8.18262C147.109 8.00684 147.183 7.89941 147.202 7.86035C147.222 7.82129 147.241 7.79199 147.261 7.77246L147.393 7.74316L147.422 7.65527C147.275 7.63574 147.202 7.55273 147.202 7.40625C147.202 7.25 147.314 7.13281 147.539 7.05469C147.48 6.92773 147.451 6.8252 147.451 6.74707C147.451 6.49316 147.578 6.36621 147.832 6.36621H147.935L147.964 6.29297C147.876 6.19531 147.832 6.10742 147.832 6.0293C147.832 5.6875 147.915 5.5166 148.081 5.5166C148.101 5.5166 148.13 5.52637 148.169 5.5459L148.257 5.5752V5.4873C148.14 5.37988 148.081 5.28223 148.081 5.19434L148.198 4.85742L148.169 4.62305C148.169 4.52539 148.223 4.45215 148.33 4.40332C148.438 4.34473 148.491 4.2959 148.491 4.25684L148.535 4.11035C148.555 4.07129 148.564 3.94922 148.564 3.74414C148.613 3.69531 148.652 3.63672 148.682 3.56836V3.48047L148.652 3.17285C148.652 3.15332 148.677 3.09961 148.726 3.01172C148.774 2.92383 148.799 2.86035 148.799 2.82129C148.799 2.1377 148.618 1.65918 148.257 1.38574C148.14 1.36621 148.042 1.32227 147.964 1.25391C147.944 1.25391 147.92 1.24414 147.891 1.22461H147.393L146.938 1.44434L146.675 1.41504C146.548 1.55176 146.475 1.62012 146.455 1.62012L146.25 1.59082C146.211 1.59082 146.152 1.64453 146.074 1.75195C146.006 1.85937 145.918 1.9375 145.811 1.98633C145.703 2.03516 145.586 2.13281 145.459 2.2793C145.342 2.41602 145.225 2.50879 145.107 2.55762C144.99 2.60645 144.893 2.66992 144.814 2.74805C144.746 2.81641 144.595 2.92871 144.36 3.08496C144.263 3.34863 144.072 3.5293 143.789 3.62695C143.75 3.66602 143.711 3.77832 143.672 3.96387C143.408 4.18848 143.198 4.42773 143.042 4.68164L141.87 6.4248C141.831 6.47363 141.797 6.58594 141.768 6.76172C141.738 6.9375 141.704 7.04492 141.665 7.08398L141.416 7.34766V7.40625L141.445 7.55273C141.23 7.74805 141.123 7.87012 141.123 7.91895C141.123 7.99707 141.133 8.06543 141.152 8.12402V8.28516C141.152 8.29492 141.094 8.51953 140.977 8.95898L140.815 9.60352C140.776 9.68164 140.757 9.79883 140.757 9.95508L140.61 10.8633C140.61 10.873 140.645 10.9316 140.713 11.0391C140.781 11.1367 140.815 11.2051 140.815 11.2441L140.786 11.6104L140.815 12.1523L140.728 12.4746C140.806 12.582 140.908 12.7725 141.035 13.0459L141.152 13.2363H141.182L141.152 13.6172C141.328 13.7441 141.46 13.9297 141.548 14.1738C141.646 14.4082 141.792 14.5547 141.987 14.6133C142.192 14.6719 142.363 14.8574 142.5 15.1699C142.637 15.4727 142.705 15.7461 142.705 15.9902C142.705 16.293 142.637 16.4443 142.5 16.4443C142.148 16.4443 141.938 16.4053 141.87 16.3271C141.812 16.249 141.689 16.0488 141.504 15.7266L141.123 14.7598L140.684 13.9834C140.596 13.8369 140.537 13.6953 140.508 13.5586C140.479 13.4219 140.42 13.3145 140.332 13.2363C140.254 13.1582 140.215 13.0947 140.215 13.0459L140.244 12.8115L140.186 12.5039C140.186 12.4062 140.156 12.2988 140.098 12.1816C140.039 12.0645 140.005 11.9229 139.995 11.7568C139.985 11.5811 139.941 11.4443 139.863 11.3467C139.795 11.2393 139.761 11.0977 139.761 10.9219C139.761 10.8438 139.731 10.7217 139.673 10.5557C139.692 10.458 139.702 10.2676 139.702 9.98438L139.614 9.54492V9.48633L139.585 9.2959V9.2373C139.585 8.47559 139.678 7.78711 139.863 7.17188C139.883 7.11328 139.893 7.00098 139.893 6.83496L140.186 5.82422L140.405 5.34082C140.581 4.91113 140.742 4.60352 140.889 4.41797C141.045 4.23242 141.143 4.08105 141.182 3.96387C141.221 3.83691 141.348 3.72461 141.562 3.62695C141.748 3.28516 141.86 3.09473 141.899 3.05566L142.075 3.02637C142.212 2.7334 142.422 2.5625 142.705 2.51367C142.705 2.2793 142.935 2.05957 143.394 1.85449C143.56 1.75684 143.687 1.64941 143.774 1.53223C143.862 1.41504 144.009 1.35645 144.214 1.35645L145.796 0.755859C145.825 0.736328 145.908 0.794922 146.045 0.931641H146.074C146.133 0.931641 146.167 0.897461 146.177 0.829102C146.187 0.760742 146.226 0.711914 146.294 0.682617C146.362 0.643555 146.426 0.584961 146.484 0.506836H146.543L146.763 0.56543C147.163 0.56543 147.451 0.536133 147.627 0.477539H147.861L147.993 0.448242C148.726 0.448242 149.185 0.599609 149.37 0.902344L150.264 1.67871L150.425 2.16211L150.513 3.14355V3.48047L150.381 3.71484C150.41 3.77344 150.425 3.81738 150.425 3.84668L150.205 5.70703L149.927 6.57129C149.722 7.27441 149.551 7.65039 149.414 7.69922C149.287 7.74805 149.224 7.78223 149.224 7.80176C149.302 7.90918 149.341 7.99707 149.341 8.06543L149.282 8.25586V8.49023L149.077 9.19336C149.019 9.4375 148.887 9.62305 148.682 9.75C148.643 9.75 148.623 9.76953 148.623 9.80859L148.74 9.95508V10.0137C148.74 10.0625 148.721 10.1553 148.682 10.292C148.643 10.4287 148.618 10.5459 148.608 10.6436C148.599 10.7314 148.545 10.7949 148.447 10.834C148.359 10.873 148.306 10.9219 148.286 10.9805V11.376C148.286 11.4834 148.193 11.6104 148.008 11.7568C147.832 11.9033 147.744 11.9961 147.744 12.0352L147.773 12.3867C147.715 12.4844 147.656 12.6455 147.598 12.8701C147.539 13.0947 147.466 13.2412 147.378 13.3096C147.3 13.3779 147.256 13.4707 147.246 13.5879C147.236 13.7051 147.158 13.8711 147.012 14.0859C146.865 14.291 146.792 14.4277 146.792 14.4961C146.792 14.5547 146.812 14.584 146.851 14.584C146.948 14.584 147.046 14.5107 147.144 14.3643C147.251 14.208 147.461 14.0615 147.773 13.9248L148.257 13.5293C148.335 13.4512 148.452 13.3828 148.608 13.3242C148.774 13.2656 148.979 13.0996 149.224 12.8262C149.478 12.5527 149.746 12.377 150.029 12.2988L150.454 12.0059C150.571 11.9375 150.669 11.9033 150.747 11.9033C150.952 11.9033 151.055 12.0059 151.055 12.2109C151.055 12.2891 151.021 12.4062 150.952 12.5625C150.894 12.709 150.854 12.8506 150.835 12.9873C150.825 13.1143 150.698 13.2559 150.454 13.4121L150.264 13.5879L149.971 13.5586C149.893 13.5977 149.81 13.7002 149.722 13.8662C149.634 14.0225 149.546 14.1006 149.458 14.1006C149.38 14.1006 149.292 14.1299 149.194 14.1885L149.004 14.2471H148.857C148.818 14.2764 148.765 14.3594 148.696 14.4961C148.628 14.6328 148.53 14.7158 148.403 14.7451L147.422 15.2725H147.334C147.129 15.4775 146.997 15.5947 146.938 15.624H146.675C146.226 15.9463 145.972 16.1465 145.913 16.2246C145.913 16.5469 145.815 16.7666 145.62 16.8838H145.591L145.62 17.2207C145.62 17.2598 145.537 17.3574 145.371 17.5137C145.352 17.5137 145.342 17.5479 145.342 17.6162L145.371 17.8506V17.8799C145.371 17.9189 145.293 18.0557 145.137 18.29C144.98 18.5146 144.883 18.6758 144.844 18.7734C144.863 18.8223 144.873 18.876 144.873 18.9346C144.873 19.0908 144.761 19.2178 144.536 19.3154C144.536 19.3936 144.39 19.7207 144.097 20.2969C143.813 20.8633 143.608 21.2295 143.481 21.3955L141.987 24.208C141.929 24.2666 141.851 24.3057 141.753 24.3252C141.685 24.4912 141.572 24.6133 141.416 24.6914C141.416 24.9941 141.299 25.1943 141.064 25.292C140.977 25.5264 140.854 25.7168 140.698 25.8633C140.64 26.2344 140.542 26.4346 140.405 26.4639C140.278 26.5029 140.2 26.5859 140.171 26.7129C140.142 26.8398 140.029 26.9375 139.834 27.0059C139.766 27.3379 139.614 27.5137 139.38 27.5332C139.302 27.6211 139.238 27.7334 139.189 27.8701C139.15 28.0068 139.023 28.124 138.809 28.2217C138.604 28.3291 138.433 28.4463 138.296 28.5732C138.159 28.7002 137.998 28.8076 137.812 28.8955C137.373 28.8662 137.012 28.6123 136.729 28.1338C136.455 27.6553 136.318 27.1963 136.318 26.7568L136.377 26.2734L136.348 25.834L136.611 25.3213ZM137.842 26.0684L137.915 26.2441L137.93 26.4785C137.949 26.5469 137.974 26.5811 138.003 26.5811C138.101 26.5811 138.218 26.459 138.354 26.2148L138.721 25.834C138.877 25.668 138.994 25.4385 139.072 25.1455C139.16 24.8623 139.331 24.7012 139.585 24.6621C139.624 24.2617 139.873 23.7832 140.332 23.2266C140.371 23.1582 140.415 23.041 140.464 22.875C140.513 22.7188 140.586 22.582 140.684 22.4648C140.781 22.3477 140.835 22.2402 140.845 22.1426C140.864 22.0547 140.977 21.8936 141.182 21.6592C141.211 21.415 141.299 21.1611 141.445 20.8975C141.592 20.6338 141.743 20.3506 141.899 20.0479L142.412 19.0225L143.306 17.7334C143.306 17.6748 143.291 17.6455 143.262 17.6455L142.705 17.9385C142.51 18.0166 142.373 18.124 142.295 18.2607C142.227 18.3877 142.173 18.4512 142.134 18.4512C142.007 18.4512 141.89 18.5537 141.782 18.7588C141.675 18.9541 141.562 19.1055 141.445 19.2129C141.328 19.3203 141.24 19.3936 141.182 19.4326C141.123 19.4619 141.094 19.4863 141.094 19.5059C141.094 19.5254 141.06 19.623 140.991 19.7988C140.894 19.877 140.776 20.0088 140.64 20.1943C140.503 20.3701 140.396 20.4824 140.317 20.5312C140.249 20.5703 140.166 20.7168 140.068 20.9707L139.834 21.1172C139.746 21.3711 139.663 21.5713 139.585 21.7178L139.38 21.7471C139.312 21.8643 139.272 21.9766 139.263 22.084C139.253 22.2012 139.233 22.2598 139.204 22.2598L139.043 22.3184C139.004 22.3672 138.936 22.499 138.838 22.7139L138.721 22.8018C138.682 22.8408 138.662 22.9727 138.662 23.1973C138.662 23.2949 138.613 23.4023 138.516 23.5195C138.428 23.6367 138.345 23.8174 138.267 24.0615L138.091 24.5449C138.091 24.6816 138.052 24.8379 137.974 25.0137L137.812 25.1162C137.812 25.1943 137.783 25.4141 137.725 25.7754C137.773 25.8633 137.812 25.9609 137.842 26.0684ZM160.576 16.0488L160.811 15.8438C160.957 15.8438 161.045 15.7803 161.074 15.6533C161.104 15.5166 161.206 15.4092 161.382 15.3311C161.567 15.2529 161.738 15.0967 161.895 14.8623C162.051 14.6182 162.212 14.4961 162.378 14.4961C162.437 14.4961 162.505 14.5449 162.583 14.6426C162.661 14.7402 162.7 14.8184 162.7 14.877C162.7 15.1992 162.603 15.5312 162.407 15.873L162.349 16.2832L162.246 16.4736C162.1 16.5518 162.002 16.6348 161.953 16.7227C161.914 16.8105 161.802 16.918 161.616 17.0449L161.47 17.25C161.255 17.3184 161.108 17.4307 161.03 17.5869C160.962 17.7432 160.859 17.8311 160.723 17.8506C160.596 17.8701 160.454 17.9678 160.298 18.1436C160.2 18.1924 160.083 18.2363 159.946 18.2754L159.917 18.4219C159.819 18.5195 159.663 18.5977 159.448 18.6562C159.243 18.7148 159.087 18.7734 158.979 18.832C158.882 18.8809 158.813 18.9053 158.774 18.9053C158.589 18.9053 158.418 18.8711 158.262 18.8027C158.105 18.7246 157.944 18.6758 157.778 18.6562C157.72 18.5977 157.686 18.5342 157.676 18.4658C157.666 18.3975 157.617 18.3096 157.529 18.2021C157.441 18.085 157.397 17.9287 157.397 17.7334L157.456 17.4551C157.456 17.416 157.432 17.3672 157.383 17.3086C157.334 17.25 157.31 17.2012 157.31 17.1621C157.31 17.123 157.319 17.0938 157.339 17.0742C157.358 17.0547 157.368 17.0254 157.368 16.9863C157.368 16.9375 157.358 16.8838 157.339 16.8252C157.319 16.7666 157.31 16.7178 157.31 16.6787L157.397 15.9609C157.397 15.9023 157.378 15.873 157.339 15.873C157.3 15.873 157.227 15.9219 157.119 16.0195C157.021 16.1172 156.904 16.166 156.768 16.166C156.689 16.2246 156.626 16.3467 156.577 16.5322C156.499 16.6299 156.401 16.7178 156.284 16.7959L156.226 16.8838C156.206 16.9521 156.133 17.0107 156.006 17.0596C155.879 17.0986 155.791 17.1523 155.742 17.2207L155.596 17.3672L155.317 17.3379C155.298 17.3574 155.244 17.4453 155.156 17.6016C155.068 17.748 154.956 17.8701 154.819 17.9678L153.706 18.876C153.589 18.9541 153.418 19.0518 153.193 19.1689L153.105 19.2568C152.324 19.7744 151.772 20.0332 151.45 20.0332C151.187 20.0332 150.879 19.96 150.527 19.8135C150.176 19.667 149.985 19.4912 149.956 19.2861L149.81 18.6855C149.722 18.5488 149.678 18.3584 149.678 18.1143C149.678 17.9971 149.688 17.9189 149.707 17.8799V17.792L149.678 17.3086C149.678 17.1914 149.771 17.1328 149.956 17.1328L149.927 16.7373C149.927 16.6982 150.01 16.5469 150.176 16.2832C150.352 16.0098 150.469 15.8535 150.527 15.8145L150.674 15.624C150.664 15.5068 150.732 15.3848 150.879 15.2578C151.025 15.1211 151.143 14.9844 151.23 14.8477C151.318 14.7109 151.484 14.5596 151.729 14.3936L152.168 13.9541C152.51 13.6123 152.881 13.3389 153.281 13.1338C153.34 13.1143 153.457 13.0166 153.633 12.8408C153.818 12.665 154.023 12.5381 154.248 12.46C154.482 12.3721 154.707 12.2646 154.922 12.1377C155.146 12.0107 155.322 11.9473 155.449 11.9473H155.566C155.605 11.9473 155.864 11.8252 156.343 11.5811H156.431C156.47 11.5811 156.562 11.6201 156.709 11.6982H156.738L156.973 11.5811C157.012 11.5615 157.061 11.5518 157.119 11.5518C157.725 11.5518 158.057 11.9717 158.115 12.8115C158.135 12.9873 158.184 13.0752 158.262 13.0752C158.359 13.0752 158.496 12.8994 158.672 12.5479C158.857 12.1865 159.243 12.0059 159.829 12.0059C160.249 12.0059 160.459 12.2744 160.459 12.8115C160.459 13.4463 160.176 14.0469 159.609 14.6133C159.57 14.6914 159.541 14.7793 159.521 14.877L159.316 15.4775V15.5068C159.316 15.5654 159.272 15.6484 159.185 15.7559C159.106 15.8535 159.067 15.9414 159.067 16.0195L159.097 16.3857L159.038 16.7959C159.038 16.9814 159.072 17.1035 159.141 17.1621C159.453 17.084 159.678 16.957 159.814 16.7812C159.961 16.5957 160.063 16.4932 160.122 16.4736L160.269 16.415C160.356 16.2686 160.459 16.1465 160.576 16.0488ZM155.713 16.0488C155.752 15.834 155.869 15.6729 156.064 15.5654C156.27 15.4482 156.392 15.3311 156.431 15.2139C156.616 15.0771 156.88 14.833 157.222 14.4814C157.573 14.1299 157.749 13.915 157.749 13.8369C157.749 13.8076 157.729 13.793 157.69 13.793H157.661L157.544 13.8662L157.28 13.8369L157.002 13.8662L156.797 13.7637L156.606 13.793L156.313 13.7344C156.157 13.7344 156.021 13.7686 155.903 13.8369C155.796 13.8955 155.581 13.9639 155.259 14.042C154.946 14.1201 154.663 14.2568 154.409 14.4521C154.155 14.6377 153.97 14.7305 153.853 14.7305C153.784 14.877 153.555 15.0869 153.164 15.3604C152.93 15.4385 152.778 15.6094 152.71 15.873C152.456 16.0781 152.329 16.1953 152.329 16.2246L152.227 16.4736C152.148 16.542 152.051 16.6006 151.934 16.6494C151.816 16.6885 151.748 16.791 151.729 16.957C151.709 17.1133 151.641 17.2598 151.523 17.3965C151.416 17.5234 151.362 17.626 151.362 17.7041C151.362 18.1826 151.455 18.4219 151.641 18.4219C151.719 18.4219 151.88 18.373 152.124 18.2754C152.378 18.168 152.524 18.0947 152.563 18.0557C152.603 18.0166 152.681 17.9775 152.798 17.9385L153.076 17.792C153.115 17.7529 153.159 17.7285 153.208 17.7188C153.257 17.709 153.306 17.6797 153.354 17.6309C153.403 17.5723 153.491 17.5137 153.618 17.4551C153.745 17.3867 153.843 17.2988 153.911 17.1914C154.077 17.0938 154.346 16.9424 154.717 16.7373L155.024 16.5029C155.239 16.4053 155.371 16.3223 155.42 16.2539C155.469 16.1855 155.566 16.1172 155.713 16.0488ZM173.291 16.2832V16.4443L173.32 16.5615V16.6201C173.32 16.6396 173.301 16.752 173.262 16.957C173.115 17.1133 173.032 17.333 173.013 17.6162L172.837 17.8799C172.837 18.0166 172.788 18.124 172.69 18.2021C172.603 18.2803 172.524 18.4365 172.456 18.6709C172.388 18.9053 172.305 19.1543 172.207 19.418L171.87 20.2529C171.87 20.292 171.89 20.3115 171.929 20.3115C171.948 20.3115 171.978 20.3018 172.017 20.2822C172.065 20.2627 172.109 20.2529 172.148 20.2529C172.188 20.2529 172.227 20.2627 172.266 20.2822C172.305 20.3018 172.334 20.3115 172.354 20.3115C172.373 20.3115 172.441 20.2773 172.559 20.209C172.686 20.1406 172.827 20.0967 172.983 20.0771L173.525 19.9453C173.643 19.9062 173.882 19.8867 174.243 19.8867L174.697 19.8574C175.059 19.8574 175.42 19.9502 175.781 20.1357C176.152 20.3213 176.382 20.5166 176.47 20.7217C176.567 20.9268 176.616 21.2588 176.616 21.7178C176.616 22.0791 176.494 22.2598 176.25 22.2598C176.104 22.2598 175.913 22.167 175.679 21.9814C175.454 21.7959 175.298 21.5615 175.21 21.2783C175.122 20.9951 174.98 20.8535 174.785 20.8535L174.419 20.7363L174.214 20.7949H174.155C174.116 20.7949 174.028 20.7656 173.892 20.707H173.848L173.408 20.8242H172.808L172.529 20.9707C172.393 21.0098 172.241 21.0391 172.075 21.0586C171.919 21.0781 171.777 21.1172 171.65 21.1758C171.523 21.2344 171.46 21.2881 171.46 21.3369C171.46 21.6396 171.328 21.8984 171.064 22.1133C170.967 22.2695 170.913 22.3916 170.903 22.4795C170.894 22.5771 170.835 22.6797 170.728 22.7871C170.63 22.9043 170.522 23.0801 170.405 23.3145L170.288 23.5195C170.249 23.5781 170.229 23.627 170.229 23.666C170.229 23.6855 170.239 23.7246 170.259 23.7832V23.915C170.259 24.1885 170.098 24.4473 169.775 24.6914V24.8379C169.775 24.916 169.697 25.0283 169.541 25.1748L169.6 25.4678C169.6 25.5068 169.546 25.585 169.438 25.7021C169.331 25.8291 169.238 25.9658 169.16 26.1123C169.092 26.2686 168.955 26.4053 168.75 26.5225V26.6104L168.838 26.7861C168.867 26.7861 168.882 26.8057 168.882 26.8447C168.882 26.9131 168.809 27.0156 168.662 27.1523C168.623 27.3086 168.555 27.46 168.457 27.6064L167.856 28.4121C167.759 28.5488 167.71 28.6562 167.71 28.7344L167.607 29.0127C167.5 29.1006 167.422 29.1885 167.373 29.2764C167.334 29.374 167.207 29.5596 166.992 29.833C166.777 30.1064 166.636 30.2432 166.567 30.2432C166.626 30.3604 166.655 30.4287 166.655 30.4482C166.655 30.5654 166.577 30.707 166.421 30.873C166.167 30.873 166.04 30.9268 166.04 31.0342L166.113 31.3271C166.113 31.3662 166.06 31.4248 165.952 31.5029C165.845 31.5811 165.757 31.6201 165.688 31.6201H165.483L165.542 31.8838C165.503 31.9912 165.444 32.0645 165.366 32.1035C165.288 32.1426 165.156 32.2549 164.971 32.4404C164.795 32.6357 164.668 32.7529 164.59 32.792L164.399 32.9092L163.828 32.9678C163.672 32.9189 163.369 32.7578 162.92 32.4844C162.48 32.2109 162.231 31.9521 162.173 31.708C162.104 31.4736 162.07 31.1367 162.07 30.6973C162.07 30.6484 162.119 30.5654 162.217 30.4482L162.246 30.3311V30.0527C162.246 30.0332 162.295 29.8574 162.393 29.5254C162.49 29.2031 162.573 29.0225 162.642 28.9834C162.71 28.9541 162.817 28.7637 162.964 28.4121C163.11 28.0605 163.223 27.8311 163.301 27.7236L164.648 25.7461C164.648 25.6191 164.668 25.5361 164.707 25.4971H164.795C164.873 25.4971 164.927 25.4678 164.956 25.4092C164.985 25.3604 165.029 25.3018 165.088 25.2334C165.088 25.0479 165.171 24.8965 165.337 24.7793C165.513 24.6621 165.635 24.5303 165.703 24.3838C165.781 24.2471 165.869 24.1201 165.967 24.0029L165.996 23.915C166.035 23.876 166.118 23.8271 166.245 23.7686C166.382 23.7197 166.46 23.6465 166.479 23.5488L166.978 23.0654C167.026 23.0264 167.104 22.9775 167.212 22.9189C167.319 22.8604 167.432 22.7529 167.549 22.5967L167.651 22.5527H167.739L167.798 22.5234C167.915 22.2695 168.032 22.1328 168.149 22.1133C168.276 22.0938 168.359 22.0645 168.398 22.0254C168.389 21.7227 168.56 21.5713 168.911 21.5713C168.989 21.5713 169.048 21.5518 169.087 21.5127L169.438 21.2344C169.487 21.1953 169.58 21.0049 169.717 20.6631V20.6338L169.98 20.707L170.01 20.6338L169.951 20.3115C169.98 20.2725 170.039 20.1406 170.127 19.916C170.215 19.6816 170.298 19.5449 170.376 19.5059C170.454 19.4668 170.493 19.4229 170.493 19.374V19.1982L170.464 19.0225L170.522 18.9053V18.7148L170.552 18.6562C170.601 18.6074 170.659 18.4268 170.728 18.1143C170.767 18.0752 170.82 18.0361 170.889 17.9971L171.548 16.1367C171.567 16.0879 171.597 15.9609 171.636 15.7559L171.753 15.5947C171.87 15.2822 171.929 15.082 171.929 14.9941C171.929 14.9551 171.909 14.9355 171.87 14.9355C171.831 14.9355 171.743 14.9941 171.606 15.1113C171.47 15.2188 171.367 15.2725 171.299 15.2725L171.064 15.2139H171.006C170.947 15.2139 170.864 15.2627 170.757 15.3604C170.659 15.458 170.601 15.5068 170.581 15.5068L170.405 15.5361C170.308 15.7021 170.22 15.7949 170.142 15.8145L169.775 16.0488H169.746L169.541 15.9023C169.541 15.8828 169.517 15.873 169.468 15.873C169.429 15.873 169.37 15.9902 169.292 16.2246L168.838 16.4443C168.74 16.4248 168.682 16.415 168.662 16.415C168.564 16.415 168.472 16.5078 168.384 16.6934C168.296 16.8691 168.179 16.9668 168.032 16.9863C167.954 17.0742 167.773 17.1426 167.49 17.1914L166.626 17.792C166.528 17.8311 166.46 17.8799 166.421 17.9385C166.216 17.958 166.025 18.0703 165.85 18.2754L165.454 18.2461C165.356 18.2461 165.259 18.3096 165.161 18.4365C165.073 18.5635 164.98 18.627 164.883 18.627H164.795L164.619 18.5977L164.136 18.7148C163.999 18.7148 163.789 18.6123 163.506 18.4072C163.223 18.1924 163.081 18.0068 163.081 17.8506L162.993 17.1914C162.993 17.1719 163.032 17.1035 163.11 16.9863C163.188 16.8691 163.228 16.7861 163.228 16.7373C163.228 16.7178 163.218 16.6787 163.198 16.6201V16.5029C163.198 16.1611 163.32 15.751 163.564 15.2725V15.2139C163.564 15.1748 163.535 15.1553 163.477 15.1553C163.35 15.1553 163.242 15.2627 163.154 15.4775C163.066 15.6826 162.964 15.8291 162.847 15.917C162.729 16.0049 162.642 16.0781 162.583 16.1367C162.534 16.1953 162.49 16.2246 162.451 16.2246C162.393 16.1855 162.324 16.1562 162.246 16.1367C162.227 16.1172 162.192 16.0586 162.144 15.9609C162.095 15.8633 162.021 15.7852 161.924 15.7266C161.816 15.6582 161.763 15.5459 161.763 15.3896C161.763 15.2822 161.904 15.1406 162.188 14.9648L162.363 14.7891C162.812 14.3398 163.115 14.1006 163.271 14.0713L163.359 13.8662C163.496 13.7588 163.662 13.6123 163.857 13.4268C164.062 13.2314 164.243 13.0947 164.399 13.0166L165.19 12.3281C165.425 12.1133 165.747 12.0059 166.157 12.0059C166.47 12.0059 166.626 12.2061 166.626 12.6064C166.626 13.0068 166.553 13.3193 166.406 13.5439C166.27 13.7588 166.182 13.959 166.143 14.1445C166.113 14.3203 165.986 14.5596 165.762 14.8623C165.537 15.1553 165.4 15.375 165.352 15.5215C165.303 15.6582 165.2 15.8535 165.044 16.1074C164.897 16.3516 164.824 16.5713 164.824 16.7666C164.824 16.8643 164.883 16.9131 165 16.9131C165.166 16.9131 165.376 16.8252 165.63 16.6494L165.762 16.5908C165.859 16.5518 165.957 16.5029 166.055 16.4443L166.421 16.2832C166.489 16.1367 166.597 16.0391 166.743 15.9902L167.021 15.8438C167.158 15.7852 167.324 15.7119 167.52 15.624C167.725 15.5264 167.856 15.4336 167.915 15.3457C167.974 15.2578 168.047 15.1895 168.135 15.1406C168.232 15.082 168.34 14.9941 168.457 14.877C168.711 14.877 169.062 14.6572 169.512 14.2178C169.961 13.9541 170.381 13.6953 170.771 13.4414C171.162 13.1777 171.421 12.9873 171.548 12.8701C171.606 12.8311 171.709 12.7773 171.855 12.709C172.012 12.6406 172.183 12.5332 172.368 12.3867C172.563 12.2305 172.808 12.1523 173.101 12.1523C173.354 12.1523 173.599 12.25 173.833 12.4453C174.067 12.6309 174.185 12.8164 174.185 13.002L174.155 13.7051C174.155 14.1543 174.033 14.5352 173.789 14.8477C173.73 15.2383 173.662 15.5068 173.584 15.6533L173.613 15.9902C173.613 16.0488 173.506 16.1465 173.291 16.2832ZM166.348 27.5039L166.421 27.2988C166.44 27.2305 166.509 27.1621 166.626 27.0938C166.724 26.6738 166.855 26.4004 167.021 26.2734C167.021 26.0586 167.031 25.9365 167.051 25.9072L167.256 25.7168L167.827 24.75C167.886 24.6133 167.949 24.4814 168.018 24.3545C168.086 24.2373 168.14 24.1201 168.179 24.0029C168.179 23.8662 168.34 23.5977 168.662 23.1973V23.0947C168.662 22.958 168.633 22.8896 168.574 22.8896C168.516 22.958 168.418 23.0264 168.281 23.0947L167.344 23.8857C167.295 23.9248 167.163 24.0811 166.948 24.3545L166.67 24.6475C166.514 24.8135 166.392 24.916 166.304 24.9551C166.226 25.0039 166.123 25.1455 165.996 25.3799C165.879 25.624 165.776 25.7461 165.688 25.7461H165.63C165.62 25.7461 165.571 25.7217 165.483 25.6729C165.425 25.7021 165.396 25.7461 165.396 25.8047L165.483 26.1562C165.483 26.1953 165.444 26.2539 165.366 26.332C165.288 26.4199 165.22 26.5127 165.161 26.6104C165.112 26.708 165.059 26.7666 165 26.7861C164.941 26.8057 164.834 26.9863 164.678 27.3281L164.399 27.4746C164.37 28.0508 164.189 28.5146 163.857 28.8662C163.779 29.0225 163.716 29.1738 163.667 29.3203C163.618 29.4766 163.574 29.5742 163.535 29.6133C163.477 29.9746 163.374 30.1846 163.228 30.2432C163.188 30.2627 163.169 30.292 163.169 30.3311C163.169 30.3896 163.213 30.4482 163.301 30.5068L163.359 30.5654C163.232 30.9463 163.169 31.2295 163.169 31.415C163.169 31.4541 163.188 31.4736 163.228 31.4736L163.667 31.2539C163.979 31.1074 164.189 30.9219 164.297 30.6973L164.531 30.2432C164.57 30.1846 164.639 30.1455 164.736 30.126C164.795 29.9209 164.888 29.7891 165.015 29.7305C165.151 29.6719 165.22 29.5938 165.22 29.4961C165.22 29.3984 165.4 29.0615 165.762 28.4854C166.133 27.9092 166.328 27.582 166.348 27.5039Z" fill="black"/>
</svg>
