<svg width="177" height="34" viewBox="0 0 177 34" fill="none" xmlns="http://www.w3.org/2000/svg">
<path d="M5.58105 8.05273L5.66895 8.02344H6.06445C6.18164 8.02344 6.35254 7.88672 6.57715 7.61328C6.59668 7.59375 6.85547 7.50098 7.35352 7.33496L7.41211 7.27637C7.54883 7.15918 7.64648 7.08105 7.70508 7.04199H7.9834C8.00293 7.04199 8.08105 6.99805 8.21777 6.91016C8.35449 6.8125 8.64258 6.70508 9.08203 6.58789C9.53125 6.4707 9.82422 6.37305 9.96094 6.29492C10.0195 6.27539 10.2344 6.24609 10.6055 6.20703L11.0156 6.13379L11.3379 6.16309C11.8555 6.16309 12.2266 6.50488 12.4512 7.18848C12.4512 7.22754 12.4756 7.29102 12.5244 7.37891C12.5732 7.45703 12.5977 7.51562 12.5977 7.55469C12.5977 7.96484 12.3975 8.39453 11.9971 8.84375L11.792 9.38574C11.792 9.40527 11.7383 9.47852 11.6309 9.60547C11.5332 9.73242 11.4453 9.88379 11.3672 10.0596C11.2891 10.2256 11.0791 10.4795 10.7373 10.8213C10.6787 10.9385 10.5957 11.124 10.4883 11.3779C10.3809 11.6221 10.2881 11.7832 10.21 11.8613C10.1416 11.9395 9.95117 12.2324 9.63867 12.7402C9.33594 13.248 9.18457 13.5459 9.18457 13.6338C9.03809 13.7412 8.93555 13.9219 8.87695 14.1758C8.82812 14.4297 8.73047 14.6689 8.58398 14.8936L8.55469 14.9961C8.86719 14.8887 9.02344 14.7178 9.02344 14.4834C9.02344 14.4541 9.10645 14.3809 9.27246 14.2637L9.38965 14.0586C9.50684 13.9219 9.60938 13.8438 9.69727 13.8242C9.7168 13.7461 9.81934 13.6338 10.0049 13.4873C10.1904 13.3311 10.3125 13.2236 10.3711 13.165C10.4395 13.1064 10.5469 13.0479 10.6934 12.9893C10.8398 12.9209 11.0059 12.6768 11.1914 12.2568C11.2109 12.1787 11.2842 12.1152 11.4111 12.0664C11.5479 12.0176 11.6602 11.9395 11.748 11.832C11.8359 11.7148 11.9092 11.6367 11.9678 11.5977L12.085 11.4219C12.1924 11.3242 12.2656 11.2656 12.3047 11.2461L13.0225 10.3672C13.4033 10.123 13.6133 9.93262 13.6523 9.7959L13.7695 9.7666H13.8574C14.0137 9.63965 14.1162 9.55176 14.165 9.50293C14.165 9.20996 14.2725 9.01953 14.4873 8.93164C14.7119 8.83398 14.873 8.72168 14.9707 8.59473C15.0684 8.45801 15.1758 8.38965 15.293 8.38965C15.3223 8.38965 15.376 8.41895 15.4541 8.47754H15.4834C15.5127 8.47754 15.542 8.42871 15.5713 8.33105V8.18457C15.5713 8.01855 15.6201 7.88184 15.7178 7.77441C15.8154 7.66699 15.9473 7.59863 16.1133 7.56934C16.2793 7.53027 16.4404 7.40332 16.5967 7.18848C16.7529 6.97363 16.9287 6.86133 17.124 6.85156C17.3291 6.8418 17.4658 6.76367 17.5342 6.61719C17.6025 6.4707 17.8125 6.31445 18.1641 6.14844C18.5156 5.97266 18.7354 5.87988 18.8232 5.87012C18.9111 5.85059 18.9893 5.82129 19.0576 5.78223C19.1357 5.74316 19.2139 5.72363 19.292 5.72363C19.3896 5.72363 19.5312 5.75293 19.7168 5.81152L19.9805 5.87012C20.2051 5.96777 20.415 6.14844 20.6104 6.41211L20.7568 6.55859V6.61719L20.7861 6.86621V6.9834C20.9131 7.04199 20.9766 7.10059 20.9766 7.15918L20.874 7.34961C20.835 7.41797 20.8154 7.50098 20.8154 7.59863C20.8154 7.68652 20.8105 7.7793 20.8008 7.87695C20.791 7.96484 20.7764 8.05273 20.7568 8.14062C20.7471 8.21875 20.7275 8.29688 20.6982 8.375C20.6787 8.44336 20.6543 8.51172 20.625 8.58008C20.5957 8.63867 20.5615 8.69727 20.5225 8.75586L20.4053 9.22461C20.3662 9.41016 20.2588 9.63477 20.083 9.89844C19.917 10.1523 19.8193 10.333 19.79 10.4404C19.7607 10.5381 19.6924 10.6748 19.585 10.8506L19.6143 10.9385V11.1436C19.917 11.1045 20.0684 10.9873 20.0684 10.792C20.0684 10.5869 20.1904 10.4355 20.4346 10.3379L20.7568 10.0742C21.0107 9.625 21.3232 9.33203 21.6943 9.19531C21.6943 9.03906 21.7871 8.87793 21.9727 8.71191L22.5293 8.18457L22.9248 7.96484C23.1006 7.60352 23.3008 7.38379 23.5254 7.30566L23.8477 7.10059C24.043 7.00293 24.1504 6.91016 24.1699 6.82227C24.1992 6.72461 24.2773 6.62695 24.4043 6.5293C24.5312 6.43164 24.7168 6.27051 24.9609 6.0459L25.0781 5.9873L25.2246 5.84082C25.332 5.78223 25.4541 5.7334 25.5908 5.69434L25.708 5.63574C25.9521 5.4502 26.1719 5.32812 26.3672 5.26953C26.5625 5.20117 26.7822 5.09375 27.0264 4.94727L27.5391 4.87402C27.6562 4.83496 27.7344 4.81543 27.7734 4.81543C28.7012 4.81543 29.165 5.33789 29.165 6.38281L29.1357 6.61719L29.165 7.4668C28.9209 7.86719 28.7988 8.07715 28.7988 8.09668L28.8281 8.36035C28.8281 8.39941 28.7646 8.5166 28.6377 8.71191C28.5107 8.89746 28.4326 9.00977 28.4033 9.04883C28.3838 9.08789 28.2959 9.19043 28.1396 9.35645L27.9932 9.7959C27.9443 9.89355 27.8613 9.98633 27.7441 10.0742V10.25C27.7441 10.3965 27.5537 10.6162 27.1729 10.9092C27.124 11.1631 27.0361 11.3535 26.9092 11.4805C26.792 11.5977 26.6992 11.7246 26.6309 11.8613C26.5723 11.9883 26.4746 12.1104 26.3379 12.2275C26.3379 12.3545 26.2549 12.5693 26.0889 12.8721C25.9229 13.1748 25.791 13.3701 25.6934 13.458C25.6055 13.5361 25.5127 13.6777 25.415 13.8828L25.2832 13.9414C25.2246 14.3125 25.1562 14.5225 25.0781 14.5713L24.8438 14.542V14.6006C24.8438 14.6201 24.8633 14.6543 24.9023 14.7031C24.9414 14.752 24.9609 14.8057 24.9609 14.8643C24.9609 14.9326 24.9316 14.9912 24.873 15.04C24.8145 15.0889 24.7803 15.1377 24.7705 15.1865C24.7607 15.2354 24.7363 15.2842 24.6973 15.333C24.668 15.3818 24.6484 15.4795 24.6387 15.626C24.6289 15.7627 24.5557 15.9531 24.4189 16.1973C24.2822 16.4414 24.209 16.6074 24.1992 16.6953C24.1895 16.7832 24.1748 16.8564 24.1553 16.915C24.1357 16.9736 24.126 17.0322 24.126 17.0908C24.126 17.1494 24.1016 17.3008 24.0527 17.5449C24.2383 17.9844 24.3701 18.2822 24.4482 18.4385C24.5264 18.5947 24.5654 18.6973 24.5654 18.7461C24.5654 19.1367 24.5166 19.4004 24.4189 19.5371C24.3213 19.6641 24.082 19.7275 23.7012 19.7275C23.457 19.7275 23.2422 19.6445 23.0566 19.4785C22.8809 19.3027 22.7246 19.2148 22.5879 19.2148V18.9512L22.5586 18.9219H22.3242C22.3047 18.9023 22.2607 18.8682 22.1924 18.8193C22.1338 18.7705 22.0752 18.7021 22.0166 18.6143L21.9287 18.5264C21.8506 18.4287 21.7822 18.2676 21.7236 18.043L21.6357 17.75L21.665 17.5156L21.6357 17.1494C21.6357 17.0518 21.6455 16.9736 21.665 16.915L21.6943 16.5195C21.6943 16.4805 21.7139 16.3975 21.7529 16.2705C21.792 16.1338 21.8164 15.9775 21.8262 15.8018C21.8359 15.6162 21.8799 15.4746 21.958 15.377C22.0361 15.2793 22.0801 15.1963 22.0898 15.1279C22.0996 15.0596 22.124 15.0059 22.1631 14.9668C22.2119 14.918 22.251 14.8057 22.2803 14.6299C22.3096 14.4541 22.4121 14.3125 22.5879 14.2051C22.6855 14.0293 22.7686 13.8633 22.8369 13.707C23.042 13.4238 23.1494 13.2822 23.1592 13.2822H23.3643C23.2666 13.165 23.2178 13.0967 23.2178 13.0771C23.2178 12.8135 23.3203 12.6816 23.5254 12.6816C23.5645 12.6816 23.6133 12.6914 23.6719 12.7109L23.7305 12.5938L23.6719 12.3447C23.6719 12.1787 23.7988 12.0127 24.0527 11.8467C24.0527 11.5635 24.1846 11.3096 24.4482 11.085L24.4189 10.8506C24.4775 10.792 24.5605 10.665 24.668 10.4697C24.7754 10.2646 24.9121 10.0596 25.0781 9.85449L25.5322 9.16602L25.7373 8.93164C25.7373 8.94141 25.7373 8.94629 25.7373 8.94629C25.7471 8.93652 25.7568 8.91699 25.7666 8.8877C25.7861 8.84863 25.8057 8.79492 25.8252 8.72656L25.9131 8.50684L26.0156 8.38965C26.2695 8.32129 26.3965 8.2334 26.3965 8.12598C26.3965 8.10645 26.3574 8.04297 26.2793 7.93555V7.87695C26.2793 7.79883 26.3379 7.70117 26.4551 7.58398C26.5723 7.4668 26.6797 7.30566 26.7773 7.10059C26.8848 6.88574 26.9385 6.75391 26.9385 6.70508C26.9385 6.66602 26.9189 6.64648 26.8799 6.64648C26.5674 6.64648 26.3574 6.75879 26.25 6.9834C26.25 7.04199 26.0596 7.15918 25.6787 7.33496L25.5322 7.55469C25.415 7.66211 25.3125 7.71582 25.2246 7.71582C25.1367 7.71582 25.0195 7.77441 24.873 7.8916C24.7363 7.99902 24.4287 8.25293 23.9502 8.65332C23.4717 9.04395 23.1201 9.36621 22.8955 9.62012L22.5586 9.85449C22.4219 9.92285 22.3535 9.97656 22.3535 10.0156C22.3535 10.1133 22.2705 10.2402 22.1045 10.3965L21.9287 10.6162C21.792 10.5674 21.7139 10.543 21.6943 10.543C21.5869 10.543 21.4941 10.5967 21.416 10.7041C21.4941 10.7822 21.5332 10.8311 21.5332 10.8506C21.5332 11.0068 21.3867 11.168 21.0938 11.334L20.4639 11.9932C20.4443 12.0127 20.3711 12.0664 20.2441 12.1543C20.1172 12.2422 20.0195 12.3545 19.9512 12.4912C19.8926 12.6182 19.7217 12.8477 19.4385 13.1797C19.1553 13.502 18.9893 13.6777 18.9404 13.707C18.8916 13.7266 18.833 13.79 18.7646 13.8975C18.6963 14.0049 18.5547 14.1562 18.3398 14.3516C18.125 14.5469 18.0029 14.7617 17.9736 14.9961C17.7881 15.0645 17.6953 15.123 17.6953 15.1719L17.6074 15.3184L17.4902 15.377C17.4707 15.416 17.4561 15.4844 17.4463 15.582C17.4365 15.6699 17.2412 15.8359 16.8604 16.0801C16.4795 16.3145 16.2402 16.4316 16.1426 16.4316C16.1133 16.4316 16.0693 16.4512 16.0107 16.4902C15.9521 16.5293 15.9131 16.5488 15.8936 16.5488C15.8643 16.5488 15.7324 16.4902 15.498 16.373C15.2734 16.2559 15.1074 15.9824 15 15.5527L15.1172 15.1719L15.0586 14.8643C15.0586 14.8057 15.1025 14.7275 15.1904 14.6299C15.2881 14.5322 15.3369 14.4102 15.3369 14.2637C15.4932 13.9121 15.6104 13.6631 15.6885 13.5166L15.7178 13.2822C15.7568 13.1846 15.8203 13.0771 15.9082 12.96C16.0059 12.833 16.0645 12.6963 16.084 12.5498C16.1035 12.3936 16.167 12.2959 16.2744 12.2568C16.3818 12.2178 16.7773 11.627 17.4609 10.4844V10.2793L17.8857 9.54688C18.0127 9.33203 18.1689 9.08789 18.3545 8.81445L18.4863 8.47754C18.1836 8.36035 18.0225 8.30176 18.0029 8.30176C17.9443 8.30176 17.8711 8.34082 17.7832 8.41895C17.7832 8.58496 17.4951 8.75586 16.9189 8.93164C16.8018 8.99023 16.6504 9.13184 16.4648 9.35645L16.0547 9.59082C15.9961 9.62988 15.9033 9.70801 15.7764 9.8252L15.5713 10.0156C15.3271 10.0742 15.1172 10.2109 14.9414 10.4258L14.5459 10.7041C14.4287 10.8018 14.3506 10.875 14.3115 10.9238C14.2725 10.9727 14.0918 11.0801 13.7695 11.2461L13.5352 11.4805L13.3154 11.5977C13.1592 11.7637 13.042 11.9053 12.9639 12.0225C12.8857 12.1396 12.7832 12.208 12.6562 12.2275L12.334 12.3447C12.2754 12.5986 12.0947 12.8428 11.792 13.0771L11.3672 13.6045C11.2891 13.6729 11.2207 13.7266 11.1621 13.7656C11.123 13.8633 11.0547 13.9316 10.957 13.9707C10.8301 14.127 10.7471 14.2344 10.708 14.293L10.5322 14.4248C10.2686 14.5225 10.1367 14.6006 10.1367 14.6592L10.166 14.9229C10.166 15.0303 10.0488 15.1328 9.81445 15.2305C9.7168 15.2793 9.6582 15.3574 9.63867 15.4648C9.62891 15.5723 9.59473 15.6846 9.53613 15.8018H9.27246C9.24316 15.8018 9.15039 15.8506 8.99414 15.9482C8.97461 15.9482 8.95508 15.958 8.93555 15.9775L8.99414 16.3145C8.99414 16.4316 8.91602 16.5684 8.75977 16.7246C8.60352 16.8711 8.48145 17.0029 8.39355 17.1201C8.31543 17.2373 8.25684 17.2959 8.21777 17.2959H8.12988L8.04199 17.3545C8.05176 17.54 7.92969 17.7402 7.67578 17.9551L7.5 18.1748C7.44141 18.2236 7.27539 18.4678 7.00195 18.9072C6.72852 19.3467 6.46973 19.7031 6.22559 19.9766C5.98145 20.25 5.75684 20.4355 5.55176 20.5332C5.34668 20.6211 5.12695 20.7139 4.89258 20.8115L4.29199 20.6943C4.2334 20.5869 4.14551 20.499 4.02832 20.4307C3.9209 20.3623 3.86719 20.2891 3.86719 20.2109L3.69141 19.6982C3.69141 19.5615 3.74512 19.3955 3.85254 19.2002C3.95996 18.9951 4.02344 18.8389 4.04297 18.7314C4.07227 18.6143 4.13086 18.4629 4.21875 18.2773C4.30664 18.082 4.35059 17.9746 4.35059 17.9551C4.35059 17.6914 4.38965 17.5303 4.46777 17.4717C4.55566 17.4033 4.74609 17.2568 5.03906 17.0322C5.05859 17.0322 5.06836 17.0127 5.06836 16.9736V16.9443L5.03906 16.6953C5.26367 16.3145 5.40527 16.124 5.46387 16.124C5.4834 16.124 5.52246 16.1338 5.58105 16.1533L5.49316 15.8311C5.49316 15.792 5.54688 15.7285 5.6543 15.6406C5.76172 15.5527 5.84473 15.4551 5.90332 15.3477L5.84473 15.1719V15.1133C5.84473 14.9277 5.9668 14.7373 6.21094 14.542C6.25 14.4639 6.32812 14.2637 6.44531 13.9414L6.82617 13.2676C6.92383 13.082 7.02637 12.96 7.13379 12.9014C7.24121 12.833 7.2998 12.7549 7.30957 12.667C7.31934 12.5791 7.35352 12.4814 7.41211 12.374C7.41211 12.4229 7.41699 12.4277 7.42676 12.3887C7.44629 12.3398 7.4707 12.2422 7.5 12.0957C7.53906 11.9492 7.65137 11.832 7.83691 11.7441C8.06152 11.168 8.2373 10.8799 8.36426 10.8799C8.40332 10.8799 8.45703 10.8994 8.52539 10.9385H8.58398C8.74023 10.9385 8.81836 10.8799 8.81836 10.7627C8.81836 10.7236 8.79883 10.7041 8.75977 10.7041C8.67188 10.8018 8.59375 10.8506 8.52539 10.8506C8.45703 10.8506 8.42285 10.8311 8.42285 10.792C8.42285 10.7725 8.4375 10.7529 8.4668 10.7334L8.78906 10.0742L8.81836 9.7959C8.85742 9.7373 8.93555 9.64941 9.05273 9.53223L9.30176 9.19531V9.04883C9.30176 9.0293 9.3457 8.93164 9.43359 8.75586C9.52148 8.57031 9.58496 8.38965 9.62402 8.21387L9.87305 7.84766C9.91211 7.73047 9.93164 7.62305 9.93164 7.52539C9.93164 7.37891 9.91211 7.30566 9.87305 7.30566L9.02344 7.4668C8.56445 7.70117 8.2373 7.88672 8.04199 8.02344L7.70508 8.09668C7.68555 8.09668 7.55371 8.16504 7.30957 8.30176C7.0752 8.42871 6.86523 8.50195 6.67969 8.52148C6.50391 8.53125 6.34766 8.59961 6.21094 8.72656L6.15234 8.75586H5.87402C5.7666 8.88281 5.69336 8.98047 5.6543 9.04883C5.61523 9.10742 5.58105 9.13672 5.55176 9.13672C4.56543 9.79102 3.94043 10.1865 3.67676 10.3232C3.41309 10.46 3.21289 10.5869 3.07617 10.7041C2.93945 10.8115 2.82227 10.8896 2.72461 10.9385V11.1143C2.72461 11.2803 2.60254 11.4707 2.3584 11.6855C2.12402 11.8906 1.91895 11.9932 1.74316 11.9932C1.68457 11.9932 1.5918 11.9639 1.46484 11.9053C1.34766 11.8369 1.21094 11.793 1.05469 11.7734C0.908203 11.7539 0.834961 11.5684 0.834961 11.2168C0.834961 10.7188 1.24512 10.2646 2.06543 9.85449C2.19238 9.7959 2.30957 9.72754 2.41699 9.64941C2.52441 9.57129 2.95898 9.38086 3.7207 9.07812L4.14551 8.87305C4.24316 8.77539 4.4043 8.6875 4.62891 8.60938C4.86328 8.52148 5.04395 8.44824 5.1709 8.38965C5.30762 8.33105 5.41504 8.29199 5.49316 8.27246L5.58105 8.05273ZM19.3213 11.5977L19.4678 11.334V11.3047C19.4678 11.2852 19.4482 11.2754 19.4092 11.2754C19.3115 11.2754 19.2334 11.373 19.1748 11.5684C19.1943 11.627 19.2139 11.6562 19.2334 11.6562C19.2725 11.6562 19.3018 11.6367 19.3213 11.5977ZM35.2441 18.8047L34.5557 19.4053C34.5166 19.3662 34.4775 19.3467 34.4385 19.3467C34.3408 19.3467 34.2188 19.4346 34.0723 19.6104C33.9355 19.7861 33.8379 19.874 33.7793 19.874L33.6328 19.8447C33.3887 20.0303 33.2129 20.1377 33.1055 20.167C32.998 20.1963 32.8662 20.25 32.71 20.3281C32.5635 20.4062 32.4268 20.4502 32.2998 20.46C32.1826 20.4697 32.085 20.5137 32.0068 20.5918C31.9287 20.6602 31.7383 20.6943 31.4355 20.6943L31.2012 20.665C31.0742 20.7236 30.9912 20.7529 30.9521 20.7529C30.874 20.7529 30.791 20.7139 30.7031 20.6357C30.6152 20.5479 30.5176 20.499 30.4102 20.4893C30.3125 20.4795 30.21 20.4111 30.1025 20.2842C29.9951 20.1572 29.8926 20.0693 29.7949 20.0205C29.707 19.9717 29.6338 19.9033 29.5752 19.8154L29.3701 19.6396C29.2041 19.5225 29.043 19.3076 28.8867 18.9951C28.7305 18.6826 28.6523 18.4385 28.6523 18.2627V18.2041L28.6816 17.9258L28.6523 17.6035C28.6914 17.5645 28.7402 17.4814 28.7988 17.3545V16.8857L29.1504 15.7139C29.1699 15.665 29.1309 15.6016 29.0332 15.5234C28.9355 15.6699 28.8379 15.7578 28.7402 15.7871C28.6426 15.8164 28.5742 15.8848 28.5352 15.9922C28.5059 16.0996 28.4521 16.1533 28.374 16.1533L28.1982 16.0947C28.1787 16.1143 28.1348 16.2168 28.0664 16.4023C27.998 16.5781 27.8809 16.666 27.7148 16.666C27.5391 16.666 27.4512 16.5977 27.4512 16.4609L27.4805 16.1973L27.3926 15.8311C27.3926 15.7529 27.4707 15.6016 27.627 15.377C27.7832 15.1426 27.9248 15.0107 28.0518 14.9814C28.1885 14.9424 28.3008 14.8496 28.3887 14.7031C28.4863 14.5469 28.6914 14.3613 29.0039 14.1465C29.1797 14.1074 29.3311 13.9805 29.458 13.7656C29.5947 13.6582 29.7705 13.5703 29.9854 13.502C30.21 13.4336 30.376 13.3359 30.4834 13.209C30.6006 13.0723 30.9326 12.8672 31.4795 12.5938C32.0361 12.3105 32.4414 12.1689 32.6953 12.1689C32.7734 12.1689 32.8809 12.1494 33.0176 12.1104C33.1543 12.0615 33.2812 12.0225 33.3984 11.9932C33.5156 11.9541 33.6377 11.9004 33.7646 11.832C33.8916 11.7539 33.9941 11.7148 34.0723 11.7148L34.4971 11.8613C34.8096 11.9492 35 12.0127 35.0684 12.0518C35.0879 12.0713 35.1855 12.1152 35.3613 12.1836C35.5469 12.2422 35.7324 12.3252 35.918 12.4326C36.1133 12.54 36.2109 12.7402 36.2109 13.0332C36.0449 13.2773 35.9619 13.4092 35.9619 13.4287C35.9619 13.4678 36.0742 13.5264 36.2988 13.6045C36.377 13.751 36.4941 13.9414 36.6504 14.1758L36.8115 14.6885L36.8408 15.8896L36.8115 16.0068C36.7041 16.1045 36.6504 16.168 36.6504 16.1973L36.6943 16.4902L36.5771 16.9004C36.5479 17.0273 36.499 17.1104 36.4307 17.1494C36.3623 17.1885 36.3184 17.2373 36.2988 17.2959L36.2109 17.4131C36.1914 17.4424 36.1475 17.5303 36.0791 17.6768C36.0205 17.8135 35.9521 17.9209 35.874 17.999C35.7959 18.0771 35.7471 18.1699 35.7275 18.2773C35.708 18.3848 35.6592 18.4629 35.5811 18.5117C35.5029 18.5605 35.4443 18.6143 35.4053 18.6729C35.376 18.7217 35.3223 18.7656 35.2441 18.8047ZM30.6885 19.1855L30.7471 19.5225L30.7764 19.5518H31.0107L31.084 19.5811C31.2793 19.6201 31.4258 19.6396 31.5234 19.6396C31.8262 19.6396 32.0654 19.5664 32.2412 19.4199C32.4268 19.2637 32.5732 19.1855 32.6807 19.1855C32.7881 19.1855 32.876 19.1123 32.9443 18.9658C33.0225 18.8193 33.0713 18.7461 33.0908 18.7461H33.2959L33.3545 18.7168C33.3545 18.4922 33.4521 18.3311 33.6475 18.2334C33.8525 18.1357 33.9941 18.0088 34.0723 17.8525C34.1602 17.6865 34.2578 17.5645 34.3652 17.4863C34.4727 17.3984 34.5459 17.2861 34.585 17.1494L34.7021 16.9736C34.7412 16.9346 34.7607 16.8613 34.7607 16.7539L35.0391 16.2266C35.0977 15.9824 35.127 15.792 35.127 15.6553C35.127 15.4502 35.0195 15.2891 34.8047 15.1719C34.5996 15.0547 34.4971 14.8252 34.4971 14.4834C34.4971 14.2588 34.6094 14.0537 34.834 13.8682C35.0684 13.6729 35.1855 13.5557 35.1855 13.5166C35.1855 13.458 35.1562 13.4287 35.0977 13.4287C35.0684 13.4287 34.9561 13.4678 34.7607 13.5459C34.6924 13.6826 34.3457 13.8633 33.7207 14.0879C33.5156 13.9902 33.4033 13.9414 33.3838 13.9414C33.3252 13.9414 33.2666 14 33.208 14.1172C33.1494 14.2344 33.0908 14.3174 33.0322 14.3662H32.8418C32.8223 14.3662 32.7588 14.4297 32.6514 14.5566C32.5439 14.6836 32.4072 14.7471 32.2412 14.7471L32.0654 14.9229C32.0752 15.0791 31.9775 15.2402 31.7725 15.4062L31.6113 15.5967C31.5137 15.7139 31.3867 15.8506 31.2305 16.0068L30.9668 16.666C30.8594 16.9199 30.8057 17.1104 30.8057 17.2373C30.7764 17.2959 30.708 17.3594 30.6006 17.4277C30.5029 17.4863 30.4541 17.5645 30.4541 17.6621C30.4541 17.6816 30.4883 17.7305 30.5566 17.8086C30.625 17.8867 30.6592 17.9453 30.6592 17.9844L30.6006 18.1748L30.542 18.7168L30.6885 19.1855ZM39.7266 16.0947V15.9482C39.7266 15.8506 39.8242 15.6406 40.0195 15.3184C40.2148 14.9961 40.4395 14.7861 40.6934 14.6885C40.7129 14.6885 40.7227 14.6787 40.7227 14.6592L40.6934 14.4248C40.7324 14.3857 40.8301 14.2588 40.9863 14.0439C41.1426 13.8291 41.2939 13.7363 41.4404 13.7656C41.5479 13.6094 41.6846 13.4824 41.8506 13.3848C42.0166 13.2773 42.168 13.1406 42.3047 12.9746L42.8467 12.6377C43.2275 12.3838 43.5059 12.2568 43.6816 12.2568H43.9014C44.0186 12.0615 44.1748 11.9639 44.3701 11.9639C44.5557 11.9639 44.6777 11.9932 44.7363 12.0518C44.7559 12.0713 44.7754 12.0811 44.7949 12.0811C44.8047 12.0811 44.8633 12.042 44.9707 11.9639C45.0781 11.8857 45.21 11.8467 45.3662 11.8467C45.4053 11.8467 45.625 11.9248 46.0254 12.0811C46.1426 11.9639 46.2549 11.9053 46.3623 11.9053C46.4014 11.9053 46.4697 11.9346 46.5674 11.9932C46.665 12.0518 46.7627 12.1055 46.8604 12.1543C46.9678 12.1934 47.0703 12.374 47.168 12.6963C47.2656 13.0088 47.3145 13.1846 47.3145 13.2236C47.3145 13.3799 47.1826 13.5654 46.9189 13.7803C46.665 13.9854 46.4258 14.0879 46.2012 14.0879C46.123 14.0879 46.0254 14.0195 45.9082 13.8828C45.6152 13.8242 45.3662 13.751 45.1611 13.6631C44.8877 13.7217 44.6777 13.7949 44.5312 13.8828H44.502L44.3701 13.7656L44.2529 13.7363H44.2236C44.1943 13.7754 44.1553 13.8438 44.1064 13.9414C43.9502 14.0488 43.8135 14.1221 43.6963 14.1611C43.5889 14.1904 43.501 14.2441 43.4326 14.3223C43.3643 14.3906 43.2471 14.4639 43.0811 14.542C42.9248 14.6201 42.8076 14.7275 42.7295 14.8643C42.5342 14.9717 42.3926 15.0352 42.3047 15.0547H42.2168C42.1387 15.2109 41.958 15.4697 41.6748 15.8311L41.2939 16.4609C41.2061 16.5391 41.0986 16.6318 40.9717 16.7393C40.8447 16.8369 40.7812 16.9248 40.7812 17.0029C40.7812 17.0225 40.791 17.0713 40.8105 17.1494V17.2959C40.8105 17.3545 40.7617 17.4277 40.6641 17.5156C40.5762 17.5938 40.5322 17.6523 40.5322 17.6914L40.5615 18.0137L40.4443 18.5264C40.4443 18.8291 40.6641 18.9805 41.1035 18.9805H41.3232L41.9531 18.8779C42.1582 18.8486 42.3291 18.8193 42.4658 18.79C42.6025 18.7607 42.6807 18.7461 42.7002 18.7461C42.7197 18.7461 42.7979 18.6924 42.9346 18.585H43.0811L43.2129 18.5557C43.252 18.3506 43.5303 18.1797 44.0479 18.043C44.165 17.8672 44.3604 17.7402 44.6338 17.6621C44.917 17.5742 45.2002 17.3936 45.4834 17.1201H45.7031C45.7324 17.1201 45.8203 17.0664 45.9668 16.959C46.123 16.8418 46.2793 16.749 46.4355 16.6807C46.6016 16.6123 46.7041 16.5537 46.7432 16.5049C46.7822 16.4561 46.8555 16.4121 46.9629 16.373C47.1387 16.0996 47.3486 15.9287 47.5928 15.8604L47.6514 15.8018C47.8076 15.665 47.9053 15.5967 47.9443 15.5967L48.1201 15.626C48.2178 15.626 48.2764 15.5674 48.2959 15.4502C48.3252 15.3232 48.4814 15.1572 48.7646 14.9521C49.0576 14.7373 49.2432 14.6299 49.3213 14.6299C49.5068 14.6299 49.5996 14.7275 49.5996 14.9229C49.5996 15.0693 49.5166 15.1523 49.3506 15.1719C49.458 15.4258 49.5117 15.5674 49.5117 15.5967C49.5117 15.9189 49.3506 16.1289 49.0283 16.2266C48.9893 16.2461 48.9697 16.2754 48.9697 16.3145L48.9404 16.5781C48.9502 16.5781 48.9502 16.5879 48.9404 16.6074C48.9307 16.6172 48.9111 16.6367 48.8818 16.666L48.6621 16.6953L48.6035 16.7832C48.3887 16.9004 48.1396 17.1006 47.8564 17.3838L47.5635 17.6914H47.5195C47.4219 17.5938 47.3438 17.5449 47.2852 17.5449C47.2461 17.5449 47.1973 17.6133 47.1387 17.75C46.8066 18.082 46.5674 18.2725 46.4209 18.3213C46.3623 18.3408 46.2598 18.4189 46.1133 18.5557L45.8203 18.7461H45.6006C45.5713 18.7754 45.542 18.8193 45.5127 18.8779C45.4932 18.9268 45.4102 19.0049 45.2637 19.1123C45.1172 19.2197 45.0098 19.3174 44.9414 19.4053C44.8828 19.4834 44.7949 19.542 44.6777 19.5811L44.4141 19.5225C44.3262 19.6787 44.165 19.7568 43.9307 19.7568C43.8721 19.7959 43.7842 19.874 43.667 19.9912C43.5596 20.0986 43.4863 20.1523 43.4473 20.1523C43.4082 20.1523 43.3057 20.0938 43.1396 19.9766H43.1104C43.0127 19.9766 42.9639 20.0498 42.9639 20.1963C42.9639 20.3428 42.8711 20.4209 42.6855 20.4307C42.5098 20.4404 42.3438 20.4893 42.1875 20.5771H42.1582C41.9336 20.5771 41.7725 20.5381 41.6748 20.46C41.5771 20.3721 41.4893 20.3086 41.4111 20.2695C41.1084 20.3672 40.9473 20.416 40.9277 20.416C40.8105 20.416 40.6982 20.3672 40.5908 20.2695L39.9609 19.9473C39.9219 19.918 39.8535 19.7861 39.7559 19.5518L39.668 19.4346C39.3555 19.376 39.1455 19.0537 39.0381 18.4678L38.9209 18.1162C38.9014 18.0967 38.8916 18.0527 38.8916 17.9844C38.8916 17.8867 38.9307 17.7402 39.0088 17.5449C39.0869 17.3398 39.165 17.0713 39.2432 16.7393C39.3213 16.3975 39.4824 16.1826 39.7266 16.0947ZM48.0322 16.0361V15.9775L48.1201 15.8896C48.1201 15.8311 48.1787 15.7383 48.2959 15.6113C48.4033 15.4746 48.4717 15.3672 48.501 15.2891C48.5303 15.2109 48.5791 15.1523 48.6475 15.1133C48.7158 15.0742 48.7744 15.0059 48.8232 14.9082C48.8818 14.8008 48.999 14.6982 49.1748 14.6006L50.6689 12.7109C50.835 12.5059 50.957 12.3643 51.0352 12.2861C51.3574 11.8857 51.6162 11.4072 51.8115 10.8506C51.8506 10.792 51.9092 10.7334 51.9873 10.6748C52.2314 10.1963 52.4561 9.6543 52.6611 9.04883L52.8076 8.81445C52.8174 8.78516 52.9004 8.62891 53.0566 8.3457C53.2129 8.05273 53.3252 7.86719 53.3936 7.78906C53.4717 7.71094 53.5449 7.53027 53.6133 7.24707L53.9355 6.60254C54.0234 6.40723 54.1553 6.09473 54.3311 5.66504C54.5752 5.57715 54.6973 5.52344 54.6973 5.50391C54.6973 5.46484 54.6826 5.4209 54.6533 5.37207C54.624 5.32324 54.5996 5.2793 54.5801 5.24023C54.6191 5.10352 54.6973 4.99121 54.8145 4.90332L54.873 4.84473C54.873 4.80566 54.9121 4.72754 54.9902 4.61035L55.0195 4.52246C55.1953 4.13184 55.4199 3.80469 55.6934 3.54102C55.9766 3.27734 56.2451 3.14551 56.499 3.14551C56.7334 3.14551 56.8652 3.2334 56.8945 3.40918C56.9238 3.58496 56.9678 3.73145 57.0264 3.84863C57.0947 3.95605 57.1289 4.06836 57.1289 4.18555V4.55176L57.041 5.81152C57.041 5.83105 57.0508 5.87012 57.0703 5.92871C56.9824 6.00684 56.9287 6.10937 56.9092 6.23633L56.3086 7.84766C56.2598 7.85742 56.1572 8.00879 56.001 8.30176L55.7812 8.72656C55.5469 9.17578 55.3662 9.43457 55.2393 9.50293L55.1514 9.62012C55.0439 9.77637 54.9512 9.85449 54.873 9.85449C54.873 10.0986 54.7852 10.3037 54.6094 10.4697C54.4434 10.626 54.3164 10.8066 54.2285 11.0117C54.1406 11.207 53.9746 11.3633 53.7305 11.4805C53.6523 11.6367 53.5547 11.8076 53.4375 11.9932L52.7783 12.8867C52.6025 13.1309 52.4658 13.4287 52.3682 13.7803C52.2803 14.1221 52.1875 14.3662 52.0898 14.5127L52.0312 14.6592C51.8066 14.7959 51.6943 14.8789 51.6943 14.9082C51.6943 14.957 51.6748 15.1133 51.6357 15.377C51.5576 15.582 51.5088 15.6943 51.4893 15.7139L51.5186 16.0361L51.3281 16.0654C51.3086 16.085 51.2793 16.168 51.2402 16.3145V16.6074L51.2695 16.6367C51.3086 16.6367 51.3525 16.5684 51.4014 16.4316C51.5381 16.334 51.7139 16.2314 51.9287 16.124L52.0312 16.0654C52.1094 15.8311 52.1875 15.6846 52.2656 15.626L52.5586 15.2305L52.9834 14.8643C53.3838 14.4736 53.584 14.2637 53.584 14.2344C53.584 14.2148 53.5938 14.1953 53.6133 14.1758L53.8184 14.2051L53.9209 14.1465L53.877 13.8828C53.8867 13.873 53.96 13.8145 54.0967 13.707L54.5508 13.2529L54.7852 13.0771C54.8633 13.0088 54.9609 12.9209 55.0781 12.8135C55.2051 12.7061 55.3076 12.6523 55.3857 12.6523L55.5615 12.7109C55.6787 12.418 55.9375 12.1836 56.3379 12.0078C56.7383 11.832 56.9727 11.7441 57.041 11.7441L57.876 11.9346C57.9541 12.0127 58.1201 12.1299 58.374 12.2861C58.6377 12.4326 58.7695 12.8037 58.7695 13.3994C58.7695 13.458 58.7109 13.6094 58.5938 13.8535L58.623 14.1172C58.623 14.1758 58.5449 14.2783 58.3887 14.4248L58.3008 14.7178L57.4512 15.4941C57.3535 15.5625 57.251 15.6113 57.1436 15.6406C57.0459 15.6699 56.9434 15.7285 56.8359 15.8164C56.7285 15.9043 56.4893 16.041 56.1182 16.2266C55.7471 16.4023 55.5615 16.5488 55.5615 16.666C55.5615 16.7051 55.625 16.8174 55.752 17.0029C55.8887 17.1787 55.9863 17.3301 56.0449 17.457C56.1035 17.584 56.2109 17.7305 56.3672 17.8965C56.5332 18.0625 56.6748 18.1553 56.792 18.1748C56.9092 18.1943 57.0312 18.2236 57.1582 18.2627C57.168 18.2432 57.2559 18.2041 57.4219 18.1455C57.5879 18.0771 57.71 18.0039 57.7881 17.9258L57.9932 17.8672C58.1299 17.8477 58.2227 17.7891 58.2715 17.6914C58.3301 17.5938 58.4717 17.4814 58.6963 17.3545C58.9209 17.2178 59.0967 17.0664 59.2236 16.9004C59.3604 16.7246 59.4824 16.6367 59.5898 16.6367H59.7656C59.9023 16.6367 59.9805 16.5391 60 16.3438C60.2637 16.2266 60.4541 16.1045 60.5713 15.9775C60.6885 15.8408 60.8203 15.7334 60.9668 15.6553L61.0547 15.5967C61.3184 15.3135 61.5381 15.1719 61.7139 15.1719C61.8115 15.1719 61.8799 15.2207 61.9189 15.3184C61.8408 15.6406 61.8018 15.8652 61.8018 15.9922C61.8018 16.0801 61.7432 16.2559 61.626 16.5195C61.5186 16.7832 61.46 16.915 61.4502 16.915L61.2891 16.8564H61.2598C61.2012 16.8564 61.1426 16.8906 61.084 16.959C61.0254 17.0273 60.9668 17.0713 60.9082 17.0908C60.8496 17.1104 60.7861 17.1689 60.7178 17.2666C60.6592 17.3643 60.5615 17.4424 60.4248 17.501C60.2881 17.5498 60.1758 17.623 60.0879 17.7207C60.0098 17.8184 59.9512 17.8818 59.9121 17.9111C59.873 17.9404 59.834 17.9795 59.7949 18.0283C59.7559 18.0674 59.7119 18.1016 59.6631 18.1309C59.6143 18.1602 59.5508 18.2188 59.4727 18.3066C59.4043 18.3945 59.3115 18.4678 59.1943 18.5264C59.0771 18.585 58.9844 18.6777 58.916 18.8047C58.8574 18.9219 58.7744 19.0049 58.667 19.0537C58.5693 19.1025 58.4277 19.1855 58.2422 19.3027L57.8467 19.5811C57.749 19.6396 57.6904 19.6689 57.6709 19.6689H57.627L57.4805 19.6396C57.4414 19.6396 57.4219 19.6689 57.4219 19.7275C57.3047 19.8936 57.1973 19.9766 57.0996 19.9766C56.9922 19.9766 56.8555 20.0107 56.6895 20.0791C56.5332 20.1475 56.416 20.1816 56.3379 20.1816C56.2012 20.1816 55.9424 20.1328 55.5615 20.0352C55.4834 19.9473 55.3955 19.8838 55.2979 19.8447C55.2002 19.8057 55.0781 19.625 54.9316 19.3027L54.7266 19.127C54.5605 19.0098 54.292 18.5117 53.9209 17.6328L53.7891 17.457C53.4766 17.3887 53.3203 17.2373 53.3203 17.0029C53.3203 16.9541 53.3789 16.8125 53.4961 16.5781L53.6426 16.4902C53.7012 16.373 53.7695 16.3047 53.8477 16.2852C53.9355 16.2656 54.0088 16.1973 54.0674 16.0801C54.126 15.9531 54.2139 15.8896 54.3311 15.8896H54.3896C54.5264 15.7529 54.6582 15.6504 54.7852 15.582C54.9219 15.5039 55.0293 15.4258 55.1074 15.3477C55.1953 15.2695 55.4102 15.1719 55.752 15.0547C56.1035 14.9375 56.2793 14.5664 56.2793 13.9414C56.2793 13.8828 56.2305 13.8438 56.1328 13.8242C55.8496 13.9219 55.6396 14.0488 55.5029 14.2051C55.3076 14.2246 55.1562 14.3271 55.0488 14.5127C54.9414 14.6885 54.8438 14.7764 54.7559 14.7764L54.4775 14.7471C54.4189 14.7471 54.3604 14.8301 54.3018 14.9961C54.2432 15.1523 54.165 15.2305 54.0674 15.2305H53.9502L53.7598 15.3184L53.7012 15.5527C53.4766 15.7969 53.2959 15.9189 53.1592 15.9189L53.042 16.2559C52.8857 16.3145 52.7051 16.4609 52.5 16.6953L52.4121 16.7539C52.334 16.8418 52.2754 16.915 52.2363 16.9736C52.1973 17.0322 52.1387 17.0615 52.0605 17.0615C51.9336 17.1396 51.8213 17.3008 51.7236 17.5449C51.6064 17.5449 51.5283 17.6377 51.4893 17.8232C51.4502 17.999 51.3672 18.0869 51.2402 18.0869H51.123C51.0254 18.3115 50.9424 18.4531 50.874 18.5117C50.8057 18.5605 50.7275 18.6387 50.6396 18.7461C50.5518 18.8535 50.4834 18.9609 50.4346 19.0684C50.3857 19.1758 50.2881 19.2881 50.1416 19.4053C49.9951 19.5225 49.8828 19.6201 49.8047 19.6982L49.5703 19.8447C49.4434 19.9326 49.3604 19.9961 49.3213 20.0352C49.2822 20.0742 49.2334 20.0938 49.1748 20.0938C49.0771 20.0938 48.9355 20.0205 48.75 19.874C48.5742 19.7178 48.4863 19.6006 48.4863 19.5225C48.4863 18.9561 48.5352 18.5557 48.6328 18.3213L49.0283 17.2959C49.1455 16.9834 49.2822 16.71 49.4385 16.4756C49.6045 16.2412 49.6875 16.0752 49.6875 15.9775C49.6875 15.8408 49.6387 15.7725 49.541 15.7725C49.1992 16.1143 48.9746 16.3145 48.8672 16.373C48.3105 16.3047 48.0322 16.1924 48.0322 16.0361ZM67.793 7.93555L67.7051 7.36426V7.27637C67.7051 6.81738 67.8613 6.56348 68.1738 6.51465C68.2422 6.50488 68.4473 6.44141 68.7891 6.32422C68.9648 6.36328 69.1455 6.51953 69.3311 6.79297C69.5264 7.05664 69.624 7.29102 69.624 7.49609C69.624 7.51562 69.6094 7.55957 69.5801 7.62793C69.5508 7.69629 69.5312 7.82812 69.5215 8.02344C69.5117 8.20898 69.4141 8.375 69.2285 8.52148C69.0527 8.6582 68.8623 8.72656 68.6572 8.72656C68.5205 8.72656 68.3447 8.63379 68.1299 8.44824C67.9248 8.25293 67.8125 8.08203 67.793 7.93555ZM61.4648 15.2598L61.6992 15.0547H61.7871C61.8555 15.0547 61.958 14.9814 62.0947 14.835L62.2412 14.7764C62.4365 14.4834 62.6074 14.3125 62.7539 14.2637L62.9883 14.0879C63.0273 14.0488 63.0811 14.0146 63.1494 13.9854C63.2275 13.9561 63.3447 13.8633 63.501 13.707C63.667 13.541 63.7988 13.458 63.8965 13.458C63.9941 13.458 64.0723 13.4678 64.1309 13.4873C64.1895 13.3701 64.3066 13.2578 64.4824 13.1504C64.6582 13.0332 64.7998 12.8965 64.9072 12.7402L65.0977 12.6523C65.2539 12.5742 65.3906 12.4766 65.5078 12.3594C65.6348 12.2324 65.7959 12.1689 65.9912 12.1689C66.2744 12.1689 66.5674 12.3154 66.8701 12.6084C67.1826 12.8916 67.3389 13.165 67.3389 13.4287L67.0898 14.5713C66.9238 15.4111 66.7383 15.8506 66.5332 15.8896L66.4746 16.1973C66.3379 16.2949 66.2695 16.373 66.2695 16.4316L66.3574 16.7832C66.3574 16.832 66.3037 16.9053 66.1963 17.0029C66.1768 17.0029 66.167 17.0322 66.167 17.0908V17.6914C66.167 17.7988 66.0986 17.8867 65.9619 17.9551C65.9814 17.9746 66.0107 17.9941 66.0498 18.0137C66.1084 17.9551 66.2402 17.9258 66.4453 17.9258L66.6797 17.9551L67.002 17.6328C67.0703 17.6133 67.1631 17.5693 67.2803 17.501C67.4072 17.4229 67.6172 17.3252 67.9102 17.208L69.8291 15.7432C70.0928 15.4795 70.293 15.3477 70.4297 15.3477C70.5762 15.3477 70.6494 15.4404 70.6494 15.626C70.6494 15.8408 70.6055 16.0215 70.5176 16.168C70.4395 16.3047 70.3662 16.4756 70.2979 16.6807C70.2295 16.876 70.1465 17.0127 70.0488 17.0908C69.9609 17.1689 69.8877 17.2568 69.8291 17.3545C69.7705 17.4424 69.6094 17.5742 69.3457 17.75C69.0918 17.9258 68.8721 18.1064 68.6865 18.292C68.5107 18.4678 68.3643 18.5947 68.2471 18.6729L67.6172 19.127L67.5293 19.2734C67.5098 19.293 67.417 19.3369 67.251 19.4053C67.0947 19.4639 66.9531 19.542 66.8262 19.6396L66.5625 19.7861C66.5039 19.8252 66.4062 19.8496 66.2695 19.8594C66.1426 19.8691 66.0303 19.9277 65.9326 20.0352C65.835 20.1328 65.7568 20.1816 65.6982 20.1816L65.4785 20.1523L65.1855 20.2402C65.0195 20.2402 64.8145 20.1426 64.5703 19.9473C64.3359 19.7422 64.2188 19.5273 64.2188 19.3027V19.2148L64.248 19.0098C64.248 18.9707 64.2188 18.873 64.1602 18.7168C64.1016 18.5508 64.0723 18.458 64.0723 18.4385L64.1016 18.2334L64.0723 18.1455C64.0723 17.8818 64.0918 17.7158 64.1309 17.6475C64.1699 17.5791 64.1992 17.4863 64.2188 17.3691C64.2383 17.2422 64.2578 17.1396 64.2773 17.0615L64.3506 16.6953C64.3896 16.5781 64.4385 16.5 64.4971 16.4609C64.5166 16.3828 64.5557 16.251 64.6143 16.0654L64.6729 15.8018L64.8193 15.5967C64.8975 15.5186 64.9414 15.416 64.9512 15.2891C64.9707 15.1523 65.0244 15.0107 65.1123 14.8643C65.2002 14.7178 65.2441 14.6299 65.2441 14.6006C65.2441 14.4834 65.1855 14.4248 65.0684 14.4248C65.0293 14.4248 64.9072 14.5029 64.7021 14.6592L64.4385 14.5713C64.4189 14.5713 64.3652 14.6201 64.2773 14.7178C64.2773 14.7568 64.2334 14.7861 64.1455 14.8057C64.0576 14.8252 63.9746 14.8984 63.8965 15.0254L63.7793 15.0547L63.5889 14.9668H63.5303C63.4326 14.9668 63.374 15.0742 63.3545 15.2891C63.2471 15.4453 63.1055 15.5479 62.9297 15.5967L62.6074 15.6846C62.5 15.7236 62.4219 15.8115 62.373 15.9482C62.3242 16.085 62.2266 16.2119 62.0801 16.3291C61.9336 16.4365 61.8359 16.4902 61.7871 16.4902C61.5137 16.4902 61.377 16.3389 61.377 16.0361L61.4941 15.3477L61.4648 15.2598ZM83.4521 17.457H83.5107L83.6572 17.5156C83.6768 17.5156 83.6963 17.5059 83.7158 17.4863C83.7158 17.3203 83.7939 17.1787 83.9502 17.0615C83.999 16.876 84.1064 16.7344 84.2725 16.6367C84.4482 16.5391 84.7217 16.3779 85.0928 16.1533L85.459 15.8311L85.6348 15.7432L85.752 15.5967C85.8594 15.4697 85.9619 15.4062 86.0596 15.4062C86.2061 15.4062 86.2793 15.46 86.2793 15.5674L86.1475 15.8604L86.2061 16.3438C86.2061 16.5195 86.1426 16.6758 86.0156 16.8125C85.8984 16.9492 85.7129 17.1494 85.459 17.4131L84.7119 18.2041L84.3164 18.4092C84.2188 18.4678 84.1309 18.5361 84.0527 18.6143L83.4814 19.0977C83.4814 19.2344 83.4375 19.3369 83.3496 19.4053H83.1152L82.998 19.4639C82.9297 19.6494 82.7295 19.8301 82.3975 20.0059L82.1924 20.1523C82.124 20.2109 82.0605 20.2402 82.002 20.2402L81.5918 20.1816L81.3135 20.2402C81.2354 20.2402 81.1279 20.2012 80.9912 20.123C80.8643 20.0449 80.7324 19.9863 80.5957 19.9473C80.459 19.8984 80.2832 19.7178 80.0684 19.4053C79.8633 19.083 79.751 18.873 79.7314 18.7754C79.7314 18.7363 79.707 18.6729 79.6582 18.585C79.6191 18.4873 79.5996 18.4287 79.5996 18.4092C79.5996 18.3896 79.6436 18.292 79.7314 18.1162V18.0869C79.7314 18.0576 79.7021 17.9893 79.6436 17.8818C79.5947 17.7744 79.5703 17.6426 79.5703 17.4863C79.5703 17.3984 79.541 17.2861 79.4824 17.1494C79.5605 17.0713 79.5996 17.0127 79.5996 16.9736C79.5996 16.9346 79.585 16.8809 79.5557 16.8125C79.5264 16.7344 79.5117 16.6758 79.5117 16.6367L79.5996 15.9189L79.541 15.5527L79.5703 15.2012C79.5703 14.9961 79.4824 14.8936 79.3066 14.8936C79.2285 14.8936 79.1309 14.9473 79.0137 15.0547L78.9111 15.084C78.6475 15.2109 78.4619 15.3184 78.3545 15.4062C78.2471 15.4844 78.1348 15.5234 78.0176 15.5234C77.959 15.582 77.8467 15.6357 77.6807 15.6846L77.5635 15.7725C77.5244 15.8115 77.4463 15.8701 77.3291 15.9482C77.3291 15.9775 77.1436 16.1436 76.7725 16.4463C76.4111 16.7393 76.084 17.0176 75.791 17.2812C75.498 17.5449 75.2832 17.6914 75.1465 17.7207C75.0195 17.7402 74.9561 17.8623 74.9561 18.0869C74.9561 18.126 74.8682 18.2041 74.6924 18.3213C74.6729 18.3213 74.5703 18.4287 74.3848 18.6436C74.2285 18.5264 74.1406 18.4678 74.1211 18.4678C73.9941 18.4678 73.9014 18.6289 73.8428 18.9512C73.7842 19.0781 73.6279 19.1562 73.374 19.1855C73.3545 19.1953 73.3203 19.2686 73.2715 19.4053L73.2129 19.4639H73.0664C73.0469 19.4639 72.9785 19.5225 72.8613 19.6396C72.7441 19.7471 72.6416 19.8154 72.5537 19.8447C72.4268 20.1084 72.3193 20.2402 72.2314 20.2402C72.1924 20.2402 72.1338 20.2207 72.0557 20.1816C71.9873 20.1426 71.8994 20.1084 71.792 20.0791C71.6846 20.0498 71.5625 19.9326 71.4258 19.7275C71.2988 19.5127 71.2354 19.332 71.2354 19.1855C71.2354 18.1016 71.4453 17.5107 71.8652 17.4131L71.8945 17.3545V17.2373C71.8945 17.1104 71.9482 17.0225 72.0557 16.9736C72.1729 16.915 72.29 16.8076 72.4072 16.6514C72.5244 16.4854 72.6025 16.3926 72.6416 16.373H72.832C72.8711 16.373 72.8906 16.2705 72.8906 16.0654C72.8906 16.0068 72.915 15.9531 72.9639 15.9043C73.0127 15.8555 73.042 15.7871 73.0518 15.6992C73.0615 15.6016 73.1299 15.4502 73.2568 15.2451C73.3936 15.0303 73.4619 14.9033 73.4619 14.8643L73.4326 14.8057C73.1885 15.0303 73.0127 15.1523 72.9053 15.1719C72.7979 15.1914 72.6514 15.333 72.4658 15.5967L72.2314 15.5527C71.8213 15.8555 71.5674 16.0264 71.4697 16.0654C71.3721 16.1045 71.2646 16.2168 71.1475 16.4023C71.1475 16.4609 71.1133 16.5 71.0449 16.5195C70.9766 16.5391 70.8496 16.6172 70.6641 16.7539H70.5762C70.332 16.7539 70.21 16.5781 70.21 16.2266L70.5176 15.3916C70.6055 15.1279 70.8105 14.9082 71.1328 14.7324C71.4648 14.5469 71.7432 14.3711 71.9678 14.2051C72.1924 14.0391 72.417 13.9512 72.6416 13.9414L72.7441 13.7949C73.0762 13.668 73.3008 13.4678 73.418 13.1943C73.5352 12.9209 73.6963 12.7842 73.9014 12.7842C74.4385 12.7842 74.8486 12.9844 75.1318 13.3848C75.415 13.7754 75.5566 14.0879 75.5566 14.3223L75.5859 14.7178C75.5859 14.8545 75.5566 15.0449 75.498 15.2891C75.3809 15.4648 75.3223 15.5967 75.3223 15.6846C75.3223 15.7627 75.3711 15.8018 75.4688 15.8018C75.5273 15.8018 75.6055 15.7627 75.7031 15.6846C75.8008 15.5967 75.9082 15.5186 76.0254 15.4502C76.1523 15.3818 76.2256 15.3232 76.2451 15.2744C76.3428 15.04 76.5137 14.8789 76.7578 14.791C77.002 14.7031 77.1533 14.6299 77.2119 14.5713L77.3584 14.4541L77.4756 14.2344C77.7393 14.1172 77.915 14.0098 78.0029 13.9121C78.0908 13.8145 78.208 13.751 78.3545 13.7217C78.501 13.6924 78.667 13.6045 78.8525 13.458L79.0723 13.3994L79.2773 13.2822C79.2969 13.2627 79.3555 13.2383 79.4531 13.209C79.5508 13.1797 79.6924 13.1309 79.8779 13.0625C80.0732 12.9844 80.2051 12.9453 80.2734 12.9453C80.7715 12.9453 81.1621 13.1455 81.4453 13.5459C81.7383 13.9463 81.8848 14.2686 81.8848 14.5127L81.8555 14.7764L81.9141 15.1719V15.2305L81.7969 16.0361L81.8262 16.3145C81.8262 16.7734 81.7285 17.0908 81.5332 17.2666C81.4844 17.2861 81.46 17.335 81.46 17.4131V17.5449L81.7529 18.1602C81.8408 18.375 81.9092 18.4824 81.958 18.4824L82.4268 18.3506C82.5635 18.3115 82.6758 18.209 82.7637 18.043C82.8418 18.0039 82.9785 17.8867 83.1738 17.6914C83.2324 17.5352 83.3252 17.457 83.4521 17.457ZM85.4443 29.2051L85.21 29.3662C85.1123 29.4248 85.0098 29.4541 84.9023 29.4541C84.6582 29.4541 84.4238 29.293 84.1992 28.9707C83.9648 28.6484 83.8477 28.3164 83.8477 27.9746C83.8477 27.3594 83.9111 26.9199 84.0381 26.6562C84.1553 26.4023 84.2236 26.2119 84.2432 26.085C84.2432 26.0752 84.3506 25.8311 84.5654 25.3525C84.7705 24.8838 84.9658 24.5273 85.1514 24.2832C85.3369 24.0391 85.4932 23.8096 85.6201 23.5947L85.6787 23.4775C85.8252 23.2432 85.9668 23.082 86.1035 22.9941C86.1035 22.9355 86.2891 22.7305 86.6602 22.3789C87.041 22.0371 87.3975 21.7441 87.7295 21.5L87.876 21.2949C88.1104 21.1484 88.2471 21.0752 88.2861 21.0752L89.1357 20.8408C89.2139 20.7627 89.4043 20.6113 89.707 20.3867H89.8242L90.2197 20.2695C90.4346 20.1719 90.7666 20.084 91.2158 20.0059C91.6748 19.918 91.9336 19.8203 91.9922 19.7129C92.0605 19.5957 92.1143 19.4883 92.1533 19.3906C92.2021 19.293 92.3145 19.0879 92.4902 18.7754C92.5293 18.6094 92.5635 18.4775 92.5928 18.3799C92.6221 18.2822 92.6514 18.2236 92.6807 18.2041C92.7197 18.1846 92.7783 18.0918 92.8564 17.9258C92.9346 17.75 93.0127 17.6035 93.0908 17.4863C93.1104 17.4863 93.1201 17.4766 93.1201 17.457L93.0322 17.208C93.1104 16.9736 93.1885 16.832 93.2666 16.7832C93.3545 16.7246 93.3984 16.6855 93.3984 16.666L93.2959 16.4023L93.5449 15.8604C93.5449 15.8213 93.5254 15.8018 93.4863 15.8018C92.9688 16.1631 92.666 16.3438 92.5781 16.3438C92.5293 16.4121 92.4219 16.5293 92.2559 16.6953C92.0898 16.7539 91.9775 16.8564 91.9189 17.0029L91.8018 17.0322L91.7139 17.1787C91.7139 17.1982 91.6797 17.2227 91.6113 17.252C91.543 17.2812 91.4062 17.3594 91.2012 17.4863L91.0254 17.457C90.9863 17.457 90.9375 17.5547 90.8789 17.75C90.7129 17.9453 90.5518 18.0674 90.3955 18.1162C90.249 18.1553 90.1562 18.2041 90.1172 18.2627L90 18.4092L89.8535 18.3799C89.6484 18.3799 89.5459 18.458 89.5459 18.6143C89.5459 18.7021 89.4873 18.8047 89.3701 18.9219C89.292 18.9219 89.1943 18.9512 89.0771 19.0098H88.8574C88.7598 19.2246 88.584 19.3564 88.3301 19.4053L87.9053 19.6982L87.6562 19.7861C87.5391 19.8447 87.4219 19.918 87.3047 20.0059C87.1875 20.084 86.9873 20.1328 86.7041 20.1523C86.5674 20.0742 86.3574 20.001 86.0742 19.9326C85.791 19.8545 85.5908 19.376 85.4736 18.4971H85.4443C85.3662 18.4971 85.2832 18.5264 85.1953 18.585C85.0977 18.6436 85.0293 18.6729 84.9902 18.6729C84.7559 18.6729 84.6387 18.5752 84.6387 18.3799C84.6387 17.9404 84.8047 17.6523 85.1367 17.5156L85.5029 17.0615L86.4404 16.1387C87.0947 15.4844 87.5342 15.0645 87.7588 14.8789C87.9834 14.6934 88.2275 14.5127 88.4912 14.3369L89.2383 13.8389C89.4922 13.6729 89.6484 13.585 89.707 13.5752C89.7656 13.5557 89.8242 13.5215 89.8828 13.4727C89.9512 13.4238 90.1318 13.3506 90.4248 13.2529L90.6885 13.1357C91.2354 12.9502 91.5869 12.8574 91.7432 12.8574L91.9482 12.8867C92.0557 12.8867 92.1582 12.8477 92.2559 12.7695C92.3926 12.7695 92.6025 12.6621 92.8857 12.4473L93.4131 12.3008C93.5596 12.252 93.6816 12.2275 93.7793 12.2275H94.0576C94.2627 12.2275 94.3945 12.3887 94.4531 12.7109C94.5215 13.0332 94.5801 13.1943 94.6289 13.1943C94.6484 13.1943 94.707 13.1211 94.8047 12.9746L95.0098 12.8281C95.1562 12.7305 95.249 12.6816 95.2881 12.6816C95.5225 12.6816 95.6689 12.7793 95.7275 12.9746V13.0039L95.7861 13.0771C95.874 13.5459 95.918 13.834 95.918 13.9414C95.918 14.4102 95.8154 14.7764 95.6104 15.04C95.415 15.3037 95.2979 15.4893 95.2588 15.5967C95.0635 16.3877 94.8682 16.9834 94.6729 17.3838C94.624 17.4912 94.5068 17.7744 94.3213 18.2334L94.1748 18.3799C94.1357 18.3994 94.1162 18.4287 94.1162 18.4678L94.1455 18.6729C93.9795 18.9365 93.8965 19.1465 93.8965 19.3027C93.8965 19.3906 93.8184 19.5713 93.6621 19.8447C93.6816 19.8643 93.7646 19.918 93.9111 20.0059C94.0674 20.084 94.2383 20.2402 94.4238 20.4746C94.6191 20.6992 94.7168 20.8701 94.7168 20.9873C94.7168 21.0166 94.6631 21.207 94.5557 21.5586C94.2041 21.8223 93.9062 21.9541 93.6621 21.9541C93.5645 21.9541 93.4229 21.8906 93.2373 21.7637L93.1494 21.793V21.7344C93.0225 21.7051 92.9199 21.666 92.8418 21.6172C92.7734 21.5781 92.7051 21.5586 92.6367 21.5586C92.5586 21.5586 92.5195 21.5977 92.5195 21.6758C92.5195 21.7148 92.5293 21.7539 92.5488 21.793C92.4902 21.8418 92.4121 21.915 92.3145 22.0127C92.3145 22.042 92.2461 22.1836 92.1094 22.4375C91.9727 22.7012 91.8506 22.877 91.7432 22.9648C91.5283 22.9746 91.3818 23.1357 91.3037 23.4482C91.2256 23.7607 91.1328 23.9609 91.0254 24.0488L90.8789 23.9902C90.5469 24.6543 90.2148 25.1328 89.8828 25.4258C89.6777 25.4746 89.5703 25.5088 89.5605 25.5283C89.5605 25.5576 89.5508 25.6211 89.5312 25.7188C89.5215 25.8262 89.4043 25.9873 89.1797 26.2021C88.9648 26.4268 88.8379 26.5391 88.7988 26.5391L88.6523 26.5684L88.5645 26.6562C88.5742 26.8516 88.3154 27.1641 87.7881 27.5938C87.5049 27.75 87.3535 27.8574 87.334 27.916C87.2559 28.1016 86.9678 28.3213 86.4697 28.5752L86.1914 28.8242C86.0645 28.9414 85.9375 29.0244 85.8105 29.0732L85.4443 29.2051ZM90.4834 17.0029L90.6592 16.7539C90.7178 16.6758 90.8154 16.6172 90.9521 16.5781C91.0986 16.5391 91.2158 16.4561 91.3037 16.3291C91.5381 15.9971 91.8164 15.7529 92.1387 15.5967L92.2852 15.4941C92.4316 15.2109 92.5635 15.0596 92.6807 15.04C92.7979 15.0107 92.9004 14.9229 92.9883 14.7764C93.0762 14.6201 93.1201 14.4932 93.1201 14.3955C93.1201 14.3564 93.0908 14.3369 93.0322 14.3369C92.8955 14.3369 92.7734 14.376 92.666 14.4541C92.5684 14.5322 92.5 14.5713 92.4609 14.5713L92.168 14.542C91.9922 14.6396 91.748 14.7568 91.4355 14.8936L91.1719 15.1133C91.0547 15.1914 90.9473 15.2402 90.8496 15.2598C90.7617 15.2793 90.6934 15.3428 90.6445 15.4502C90.5957 15.5479 90.5322 15.5967 90.4541 15.5967L90.3369 15.6553C90.2979 15.6943 90.1855 15.7139 90 15.7139C89.9023 15.7725 89.7998 15.8555 89.6924 15.9629C89.5947 16.0703 89.5361 16.124 89.5166 16.124C89.292 16.3682 89.0967 16.5195 88.9307 16.5781C88.7744 16.6367 88.6719 16.7197 88.623 16.8271C88.4375 16.876 88.2812 16.9883 88.1543 17.1641C88.0273 17.3301 87.9102 17.4473 87.8027 17.5156C87.7051 17.5742 87.6172 17.6523 87.5391 17.75L87.3926 17.8672C87.334 17.9062 87.251 18.0381 87.1436 18.2627C87.0459 18.4775 86.9971 18.6289 86.9971 18.7168C86.9971 18.7754 87.0312 18.8047 87.0996 18.8047C87.1973 18.8047 87.3779 18.7363 87.6416 18.5996C87.915 18.4531 88.0908 18.3408 88.1689 18.2627C88.2471 18.1846 88.3008 18.1455 88.3301 18.1455L88.8867 18.1748C88.9453 18.0479 89.043 17.9648 89.1797 17.9258C89.3262 17.8867 89.4385 17.8037 89.5166 17.6768C89.5947 17.5498 89.8145 17.4131 90.1758 17.2666L90.3369 17.0029H90.4834ZM90.7471 21.6758L90.3076 21.7344C90.2002 21.6562 90.1172 21.6172 90.0586 21.6172C90.0195 21.6172 89.9902 21.6465 89.9707 21.7051C89.8535 21.8613 89.5947 21.9932 89.1943 22.1006C88.7939 22.208 88.5205 22.3154 88.374 22.4229C88.2373 22.54 88.1201 22.6035 88.0225 22.6133C87.9248 22.623 87.876 22.6426 87.876 22.6719C87.7783 22.75 87.7051 22.8184 87.6562 22.877C87.5586 22.916 87.4609 22.9746 87.3633 23.0527C87.2656 23.1406 87.1631 23.1943 87.0557 23.2139C86.8799 23.5947 86.7529 23.7852 86.6748 23.7852C86.6553 23.7852 86.6064 23.7754 86.5283 23.7559H86.499C86.3721 24.0098 86.2744 24.1562 86.2061 24.1953C86.1377 24.2344 86.0791 24.2881 86.0303 24.3564C85.9814 24.4346 85.8887 24.5176 85.752 24.6055C85.6055 24.6934 85.5078 24.8398 85.459 25.0449C85.4102 25.2598 85.3516 25.4014 85.2832 25.4697C85.2051 25.5479 85.1562 25.7139 85.1367 25.9678L85.0488 26.1729C85.0195 26.2314 84.9805 26.3975 84.9316 26.6709C84.873 26.9541 84.8438 27.1006 84.8438 27.1104C84.8438 27.2471 84.9023 27.3691 85.0195 27.4766C85.0586 27.4277 85.1416 27.3936 85.2686 27.374L86.1328 27.0225C86.1621 27.0029 86.2695 26.9102 86.4551 26.7441C86.6406 26.5879 86.8018 26.4854 86.9385 26.4365C87.085 26.3877 87.2168 26.2998 87.334 26.1729C87.4121 26.0557 87.5049 25.958 87.6123 25.8799C87.7295 25.8018 87.7979 25.7041 87.8174 25.5869C88.042 25.3916 88.2471 25.2061 88.4326 25.0303C88.6182 24.8643 88.7354 24.7227 88.7842 24.6055C88.8428 24.498 88.9307 24.4053 89.0479 24.3271L89.1064 24.1367C89.126 24.127 89.165 24.1123 89.2236 24.0928C89.292 24.083 89.3994 23.9268 89.5459 23.624L89.9414 22.9648C90.1758 22.7305 90.3662 22.4326 90.5127 22.0713L90.7178 21.8955C90.7568 21.876 90.7764 21.832 90.7764 21.7637L90.7471 21.6758ZM109.937 19.6982L109.834 19.9033C109.795 20.0107 109.697 20.0645 109.541 20.0645C109.521 20.0645 109.36 20.123 109.058 20.2402C108.755 20.3574 108.506 20.416 108.311 20.416L107.915 20.4453C107.681 20.4453 107.451 20.3818 107.227 20.2549C107.002 20.1182 106.841 19.9961 106.743 19.8887C106.646 19.7812 106.509 19.459 106.333 18.9219C106.167 18.3848 106.084 18.0625 106.084 17.9551C106.084 17.5742 106.187 17.3643 106.392 17.3252C106.392 17.2666 106.343 17.1592 106.245 17.0029C106.157 16.8369 106.113 16.7441 106.113 16.7246C106.113 16.1191 106.245 15.6504 106.509 15.3184C106.392 14.9375 106.333 14.7275 106.333 14.6885C106.333 14.6689 106.357 14.5908 106.406 14.4541C106.455 14.3076 106.489 14.1758 106.509 14.0586C106.528 13.9414 106.558 13.8438 106.597 13.7656L106.626 13.5166C106.646 13.3994 106.719 13.3408 106.846 13.3408C106.904 13.3408 106.934 13.3018 106.934 13.2236V13.1064L106.904 12.916C106.904 12.6426 106.973 12.4473 107.109 12.3301C107.246 12.2031 107.334 12.0225 107.373 11.7881C107.422 11.5439 107.48 11.3926 107.549 11.334C107.617 11.2754 107.671 11.1729 107.71 11.0264L107.915 10.6162L108.076 10.0742C108.096 9.9668 108.154 9.89844 108.252 9.86914C108.35 9.83984 108.398 9.7959 108.398 9.7373L108.369 9.56152C108.447 9.35645 108.501 9.20996 108.53 9.12207C108.56 9.03418 108.647 8.96094 108.794 8.90234C108.931 8.57031 109.048 8.33594 109.146 8.19922C109.253 8.0625 109.336 7.90625 109.395 7.73047C109.453 7.55469 109.6 7.38379 109.834 7.21777C109.854 7.17871 109.893 7.08105 109.951 6.9248C110.02 6.75879 110.103 6.66602 110.2 6.64648C110.298 6.62695 110.347 6.58789 110.347 6.5293L110.288 6.41211C110.288 6.33398 110.361 6.19238 110.508 5.9873L110.684 5.66504C110.771 5.56738 110.869 5.49414 110.977 5.44531C111.113 5.17187 111.289 4.89844 111.504 4.625C111.719 4.35156 111.904 4.05859 112.061 3.74609C112.285 3.48242 112.495 3.29199 112.69 3.1748L113.174 2.57422C113.291 2.33008 113.408 2.20801 113.525 2.20801C113.711 1.85645 113.94 1.62695 114.214 1.51953C114.263 1.5 114.399 1.39746 114.624 1.21191C114.858 1.0166 115.063 0.918945 115.239 0.918945C115.396 0.918945 115.596 1.08984 115.84 1.43164C116.084 1.77344 116.206 2.06152 116.206 2.2959C116.206 2.35449 116.172 2.44238 116.104 2.55957C116.045 2.66699 116.011 2.78418 116.001 2.91113C115.991 3.02832 115.933 3.37012 115.825 3.93652C115.718 4.50293 115.625 4.8252 115.547 4.90332L115.151 5.66504C115.112 5.78223 115.068 5.85059 115.02 5.87012C114.971 5.88965 114.912 5.96777 114.844 6.10449L114.917 6.41211H114.888C114.78 6.5293 114.668 6.74902 114.551 7.07129C114.395 7.30566 114.258 7.53027 114.141 7.74512C114.033 7.9502 113.979 8.08691 113.979 8.15527L113.892 8.36035C113.677 8.68262 113.535 8.94141 113.467 9.13672C113.369 9.21484 113.291 9.32227 113.232 9.45898C113.184 9.5957 113.115 9.69824 113.027 9.7666C112.939 9.8252 112.881 9.93262 112.852 10.0889C112.832 10.2451 112.808 10.3379 112.778 10.3672L112.485 10.3379V10.3672L112.515 10.792C112.515 10.8311 112.466 10.875 112.368 10.9238C112.28 10.9727 112.202 11.0801 112.134 11.2461C112.065 11.4023 111.943 11.4902 111.768 11.5098C111.68 11.5684 111.626 11.627 111.606 11.6855L111.665 11.9639C111.646 11.9834 111.567 12.0859 111.431 12.2715C111.304 12.457 111.226 12.5547 111.196 12.5645L110.889 12.5938C110.83 12.6133 110.801 12.7842 110.801 13.1064C110.801 13.3213 110.703 13.4678 110.508 13.5459C110 14.3271 109.702 14.7617 109.614 14.8496C109.536 14.9375 109.38 15.0059 109.146 15.0547C109.146 15.0742 109.126 15.084 109.087 15.084C108.989 15.084 108.779 14.9424 108.457 14.6592H108.428C108.301 15.2256 108.198 15.5479 108.12 15.626C108.052 15.7041 108.018 15.792 108.018 15.8896L108.164 16.1533V16.1973C108.164 16.4707 108.115 16.8076 108.018 17.208V17.2959L108.076 17.6035V18.1455L108.047 18.4678C108.125 18.6045 108.164 18.7266 108.164 18.834C108.164 19.1465 108.242 19.3027 108.398 19.3027C108.477 19.3027 108.599 19.2051 108.765 19.0098L108.94 18.9219C109.116 18.8438 109.282 18.668 109.438 18.3945C109.604 18.1211 109.688 17.8867 109.688 17.6914C109.688 17.4863 109.487 17.3838 109.087 17.3838C108.892 17.3447 108.794 17.1348 108.794 16.7539C108.794 16.5781 108.867 16.4219 109.014 16.2852C109.16 16.1387 109.287 15.9873 109.395 15.8311C109.629 15.4697 109.878 15.2891 110.142 15.2891L110.889 15.0254C110.967 15.0254 111.04 15.04 111.108 15.0693C111.187 15.0986 111.284 15.1328 111.401 15.1719C111.714 15.0547 111.875 14.9961 111.885 14.9961C112.227 14.9961 112.456 15.1719 112.573 15.5234C112.573 15.5918 112.651 15.626 112.808 15.626C113.149 15.626 113.433 15.5234 113.657 15.3184C113.892 15.1035 114.136 14.9326 114.39 14.8057C114.653 14.6689 114.863 14.5322 115.02 14.3955C115.186 14.249 115.288 14.1758 115.327 14.1758H115.547C115.566 14.1758 115.625 14.1123 115.723 13.9854C115.82 13.8584 116.001 13.7949 116.265 13.7949C116.362 13.7949 116.411 13.834 116.411 13.9121C116.411 14.4297 116.333 14.7373 116.177 14.835C116.03 14.9229 115.85 15.1328 115.635 15.4648L115.474 15.5527C115.376 15.6406 115.288 15.7383 115.21 15.8457C115.132 15.9531 115.054 16.0166 114.976 16.0361C114.751 16.3779 114.58 16.5488 114.463 16.5488C114.404 16.5488 114.336 16.5244 114.258 16.4756C114.189 16.4268 114.146 16.4023 114.126 16.4023C114.067 16.4023 114.019 16.5195 113.979 16.7539C113.921 16.8418 113.76 16.9834 113.496 17.1787C113.457 17.1787 113.389 17.1201 113.291 17.0029C113.291 16.9834 113.281 16.9736 113.262 16.9736C113.105 16.9736 113.008 17.0615 112.969 17.2373C112.939 17.4131 112.832 17.5107 112.646 17.5303L112.061 17.6328L111.724 17.6035C111.646 17.6035 111.475 17.8428 111.211 18.3213C110.957 18.7998 110.801 19.0488 110.742 19.0684C110.439 19.166 110.229 19.3467 110.112 19.6104L109.937 19.6982ZM114.917 2.89648V2.7207C114.692 2.7793 114.531 2.98926 114.434 3.35059L114.316 3.46777C114.131 3.58496 113.984 3.75098 113.877 3.96582C113.77 4.1709 113.594 4.4248 113.35 4.72754L113.291 4.90332L112.954 5.32812L112.896 5.60645C112.876 5.64551 112.803 5.70898 112.676 5.79688C112.549 5.88477 112.461 6.00684 112.412 6.16309C112.373 6.30957 112.266 6.49023 112.09 6.70508C111.924 6.91016 111.807 7.05176 111.738 7.12988C111.68 7.19824 111.567 7.45703 111.401 7.90625L111.313 8.05273C111.313 8.14062 111.265 8.21387 111.167 8.27246L110.625 8.93164C110.625 8.9707 110.605 9.1123 110.566 9.35645C110.42 9.37598 110.327 9.43457 110.288 9.53223L110.054 10.0742C110.034 10.1328 109.985 10.2012 109.907 10.2793C109.78 10.748 109.6 11.0898 109.365 11.3047L109.028 11.9932C108.989 12.0713 108.96 12.1787 108.94 12.3154L108.911 12.4033C108.794 12.6279 108.735 12.7988 108.735 12.916C108.735 12.9551 108.726 13.0771 108.706 13.2822H108.735C108.755 13.2822 108.794 13.2578 108.853 13.209C108.911 13.1602 108.989 13.1064 109.087 13.0479C109.185 12.9795 109.263 12.8574 109.321 12.6816C109.38 12.5059 109.473 12.3838 109.6 12.3154C109.736 12.2373 109.824 12.1592 109.863 12.0811L110.742 10.9092C110.801 10.8311 110.879 10.7432 110.977 10.6455C111.084 10.5381 111.138 10.4551 111.138 10.3965L111.255 10.1914C111.313 10.1328 111.411 10.0254 111.548 9.86914C111.694 9.71289 111.807 9.60547 111.885 9.54688C111.963 9.48828 112.007 9.39551 112.017 9.26855C112.026 9.1416 112.08 9.00977 112.178 8.87305L112.236 8.75586C112.344 8.62891 112.432 8.53613 112.5 8.47754C112.568 8.41895 112.607 8.35547 112.617 8.28711C112.627 8.21875 112.739 8.0918 112.954 7.90625C112.974 7.75977 113.086 7.52539 113.291 7.20312C113.506 6.87109 113.667 6.57324 113.774 6.30957C113.882 6.0459 113.984 5.86523 114.082 5.76758C114.189 5.66016 114.258 5.47461 114.287 5.21094L114.434 4.97656L114.888 3.7168L114.814 3.40918L114.917 2.89648ZM124.893 16.7832V16.9443L124.922 17.0615V17.1201C124.922 17.1396 124.902 17.252 124.863 17.457C124.717 17.6133 124.634 17.833 124.614 18.1162L124.438 18.3799C124.438 18.5166 124.39 18.624 124.292 18.7021C124.204 18.7803 124.126 18.9365 124.058 19.1709C123.989 19.4053 123.906 19.6543 123.809 19.918L123.472 20.7529C123.472 20.792 123.491 20.8115 123.53 20.8115C123.55 20.8115 123.579 20.8018 123.618 20.7822C123.667 20.7627 123.711 20.7529 123.75 20.7529C123.789 20.7529 123.828 20.7627 123.867 20.7822C123.906 20.8018 123.936 20.8115 123.955 20.8115C123.975 20.8115 124.043 20.7773 124.16 20.709C124.287 20.6406 124.429 20.5967 124.585 20.5771L125.127 20.4453C125.244 20.4062 125.483 20.3867 125.845 20.3867L126.299 20.3574C126.66 20.3574 127.021 20.4502 127.383 20.6357C127.754 20.8213 127.983 21.0166 128.071 21.2217C128.169 21.4268 128.218 21.7588 128.218 22.2178C128.218 22.5791 128.096 22.7598 127.852 22.7598C127.705 22.7598 127.515 22.667 127.28 22.4814C127.056 22.2959 126.899 22.0615 126.812 21.7783C126.724 21.4951 126.582 21.3535 126.387 21.3535L126.021 21.2363L125.815 21.2949H125.757C125.718 21.2949 125.63 21.2656 125.493 21.207H125.449L125.01 21.3242H124.409L124.131 21.4707C123.994 21.5098 123.843 21.5391 123.677 21.5586C123.521 21.5781 123.379 21.6172 123.252 21.6758C123.125 21.7344 123.062 21.7881 123.062 21.8369C123.062 22.1396 122.93 22.3984 122.666 22.6133C122.568 22.7695 122.515 22.8916 122.505 22.9795C122.495 23.0771 122.437 23.1797 122.329 23.2871C122.231 23.4043 122.124 23.5801 122.007 23.8145L121.89 24.0195C121.851 24.0781 121.831 24.127 121.831 24.166C121.831 24.1855 121.841 24.2246 121.86 24.2832V24.415C121.86 24.6885 121.699 24.9473 121.377 25.1914V25.3379C121.377 25.416 121.299 25.5283 121.143 25.6748L121.201 25.9678C121.201 26.0068 121.147 26.085 121.04 26.2021C120.933 26.3291 120.84 26.4658 120.762 26.6123C120.693 26.7686 120.557 26.9053 120.352 27.0225V27.1104L120.439 27.2861C120.469 27.2861 120.483 27.3057 120.483 27.3447C120.483 27.4131 120.41 27.5156 120.264 27.6523C120.225 27.8086 120.156 27.96 120.059 28.1064L119.458 28.9121C119.36 29.0488 119.312 29.1562 119.312 29.2344L119.209 29.5127C119.102 29.6006 119.023 29.6885 118.975 29.7764C118.936 29.874 118.809 30.0596 118.594 30.333C118.379 30.6064 118.237 30.7432 118.169 30.7432C118.228 30.8604 118.257 30.9287 118.257 30.9482C118.257 31.0654 118.179 31.207 118.022 31.373C117.769 31.373 117.642 31.4268 117.642 31.5342L117.715 31.8271C117.715 31.8662 117.661 31.9248 117.554 32.0029C117.446 32.0811 117.358 32.1201 117.29 32.1201H117.085L117.144 32.3838C117.104 32.4912 117.046 32.5645 116.968 32.6035C116.89 32.6426 116.758 32.7549 116.572 32.9404C116.396 33.1357 116.27 33.2529 116.191 33.292L116.001 33.4092L115.43 33.4678C115.273 33.4189 114.971 33.2578 114.521 32.9844C114.082 32.7109 113.833 32.4521 113.774 32.208C113.706 31.9736 113.672 31.6367 113.672 31.1973C113.672 31.1484 113.721 31.0654 113.818 30.9482L113.848 30.8311V30.5527C113.848 30.5332 113.896 30.3574 113.994 30.0254C114.092 29.7031 114.175 29.5225 114.243 29.4834C114.312 29.4541 114.419 29.2637 114.565 28.9121C114.712 28.5605 114.824 28.3311 114.902 28.2236L116.25 26.2461C116.25 26.1191 116.27 26.0361 116.309 25.9971H116.396C116.475 25.9971 116.528 25.9678 116.558 25.9092C116.587 25.8604 116.631 25.8018 116.689 25.7334C116.689 25.5479 116.772 25.3965 116.938 25.2793C117.114 25.1621 117.236 25.0303 117.305 24.8838C117.383 24.7471 117.471 24.6201 117.568 24.5029L117.598 24.415C117.637 24.376 117.72 24.3271 117.847 24.2686C117.983 24.2197 118.062 24.1465 118.081 24.0488L118.579 23.5654C118.628 23.5264 118.706 23.4775 118.813 23.4189C118.921 23.3604 119.033 23.2529 119.15 23.0967L119.253 23.0527H119.341L119.399 23.0234C119.517 22.7695 119.634 22.6328 119.751 22.6133C119.878 22.5938 119.961 22.5645 120 22.5254C119.99 22.2227 120.161 22.0713 120.513 22.0713C120.591 22.0713 120.649 22.0518 120.688 22.0127L121.04 21.7344C121.089 21.6953 121.182 21.5049 121.318 21.1631V21.1338L121.582 21.207L121.611 21.1338L121.553 20.8115C121.582 20.7725 121.641 20.6406 121.729 20.416C121.816 20.1816 121.899 20.0449 121.978 20.0059C122.056 19.9668 122.095 19.9229 122.095 19.874V19.6982L122.065 19.5225L122.124 19.4053V19.2148L122.153 19.1562C122.202 19.1074 122.261 18.9268 122.329 18.6143C122.368 18.5752 122.422 18.5361 122.49 18.4971L123.149 16.6367C123.169 16.5879 123.198 16.4609 123.237 16.2559L123.354 16.0947C123.472 15.7822 123.53 15.582 123.53 15.4941C123.53 15.4551 123.511 15.4355 123.472 15.4355C123.433 15.4355 123.345 15.4941 123.208 15.6113C123.071 15.7188 122.969 15.7725 122.9 15.7725L122.666 15.7139H122.607C122.549 15.7139 122.466 15.7627 122.358 15.8604C122.261 15.958 122.202 16.0068 122.183 16.0068L122.007 16.0361C121.909 16.2021 121.821 16.2949 121.743 16.3145L121.377 16.5488H121.348L121.143 16.4023C121.143 16.3828 121.118 16.373 121.069 16.373C121.03 16.373 120.972 16.4902 120.894 16.7246L120.439 16.9443C120.342 16.9248 120.283 16.915 120.264 16.915C120.166 16.915 120.073 17.0078 119.985 17.1934C119.897 17.3691 119.78 17.4668 119.634 17.4863C119.556 17.5742 119.375 17.6426 119.092 17.6914L118.228 18.292C118.13 18.3311 118.062 18.3799 118.022 18.4385C117.817 18.458 117.627 18.5703 117.451 18.7754L117.056 18.7461C116.958 18.7461 116.86 18.8096 116.763 18.9365C116.675 19.0635 116.582 19.127 116.484 19.127H116.396L116.221 19.0977L115.737 19.2148C115.601 19.2148 115.391 19.1123 115.107 18.9072C114.824 18.6924 114.683 18.5068 114.683 18.3506L114.595 17.6914C114.595 17.6719 114.634 17.6035 114.712 17.4863C114.79 17.3691 114.829 17.2861 114.829 17.2373C114.829 17.2178 114.819 17.1787 114.8 17.1201V17.0029C114.8 16.6611 114.922 16.251 115.166 15.7725V15.7139C115.166 15.6748 115.137 15.6553 115.078 15.6553C114.951 15.6553 114.844 15.7627 114.756 15.9775C114.668 16.1826 114.565 16.3291 114.448 16.417C114.331 16.5049 114.243 16.5781 114.185 16.6367C114.136 16.6953 114.092 16.7246 114.053 16.7246C113.994 16.6855 113.926 16.6562 113.848 16.6367C113.828 16.6172 113.794 16.5586 113.745 16.4609C113.696 16.3633 113.623 16.2852 113.525 16.2266C113.418 16.1582 113.364 16.0459 113.364 15.8896C113.364 15.7822 113.506 15.6406 113.789 15.4648L113.965 15.2891C114.414 14.8398 114.717 14.6006 114.873 14.5713L114.961 14.3662C115.098 14.2588 115.264 14.1123 115.459 13.9268C115.664 13.7314 115.845 13.5947 116.001 13.5166L116.792 12.8281C117.026 12.6133 117.349 12.5059 117.759 12.5059C118.071 12.5059 118.228 12.7061 118.228 13.1064C118.228 13.5068 118.154 13.8193 118.008 14.0439C117.871 14.2588 117.783 14.459 117.744 14.6445C117.715 14.8203 117.588 15.0596 117.363 15.3623C117.139 15.6553 117.002 15.875 116.953 16.0215C116.904 16.1582 116.802 16.3535 116.646 16.6074C116.499 16.8516 116.426 17.0713 116.426 17.2666C116.426 17.3643 116.484 17.4131 116.602 17.4131C116.768 17.4131 116.978 17.3252 117.231 17.1494L117.363 17.0908C117.461 17.0518 117.559 17.0029 117.656 16.9443L118.022 16.7832C118.091 16.6367 118.198 16.5391 118.345 16.4902L118.623 16.3438C118.76 16.2852 118.926 16.2119 119.121 16.124C119.326 16.0264 119.458 15.9336 119.517 15.8457C119.575 15.7578 119.648 15.6895 119.736 15.6406C119.834 15.582 119.941 15.4941 120.059 15.377C120.312 15.377 120.664 15.1572 121.113 14.7178C121.562 14.4541 121.982 14.1953 122.373 13.9414C122.764 13.6777 123.022 13.4873 123.149 13.3701C123.208 13.3311 123.311 13.2773 123.457 13.209C123.613 13.1406 123.784 13.0332 123.97 12.8867C124.165 12.7305 124.409 12.6523 124.702 12.6523C124.956 12.6523 125.2 12.75 125.435 12.9453C125.669 13.1309 125.786 13.3164 125.786 13.502L125.757 14.2051C125.757 14.6543 125.635 15.0352 125.391 15.3477C125.332 15.7383 125.264 16.0068 125.186 16.1533L125.215 16.4902C125.215 16.5488 125.107 16.6465 124.893 16.7832ZM117.949 28.0039L118.022 27.7988C118.042 27.7305 118.11 27.6621 118.228 27.5938C118.325 27.1738 118.457 26.9004 118.623 26.7734C118.623 26.5586 118.633 26.4365 118.652 26.4072L118.857 26.2168L119.429 25.25C119.487 25.1133 119.551 24.9814 119.619 24.8545C119.688 24.7373 119.741 24.6201 119.78 24.5029C119.78 24.3662 119.941 24.0977 120.264 23.6973V23.5947C120.264 23.458 120.234 23.3896 120.176 23.3896C120.117 23.458 120.02 23.5264 119.883 23.5947L118.945 24.3857C118.896 24.4248 118.765 24.5811 118.55 24.8545L118.271 25.1475C118.115 25.3135 117.993 25.416 117.905 25.4551C117.827 25.5039 117.725 25.6455 117.598 25.8799C117.48 26.124 117.378 26.2461 117.29 26.2461H117.231C117.222 26.2461 117.173 26.2217 117.085 26.1729C117.026 26.2021 116.997 26.2461 116.997 26.3047L117.085 26.6562C117.085 26.6953 117.046 26.7539 116.968 26.832C116.89 26.9199 116.821 27.0127 116.763 27.1104C116.714 27.208 116.66 27.2666 116.602 27.2861C116.543 27.3057 116.436 27.4863 116.279 27.8281L116.001 27.9746C115.972 28.5508 115.791 29.0146 115.459 29.3662C115.381 29.5225 115.317 29.6738 115.269 29.8203C115.22 29.9766 115.176 30.0742 115.137 30.1133C115.078 30.4746 114.976 30.6846 114.829 30.7432C114.79 30.7627 114.771 30.792 114.771 30.8311C114.771 30.8896 114.814 30.9482 114.902 31.0068L114.961 31.0654C114.834 31.4463 114.771 31.7295 114.771 31.915C114.771 31.9541 114.79 31.9736 114.829 31.9736L115.269 31.7539C115.581 31.6074 115.791 31.4219 115.898 31.1973L116.133 30.7432C116.172 30.6846 116.24 30.6455 116.338 30.626C116.396 30.4209 116.489 30.2891 116.616 30.2305C116.753 30.1719 116.821 30.0938 116.821 29.9961C116.821 29.8984 117.002 29.5615 117.363 28.9854C117.734 28.4092 117.93 28.082 117.949 28.0039ZM136.611 25.8213L136.685 25.5137C136.616 25.4551 136.582 25.3818 136.582 25.2939C136.582 24.874 136.646 24.5957 136.772 24.459C136.909 24.3223 137.031 24.1025 137.139 23.7998C137.256 23.5068 137.354 23.3262 137.432 23.2578C137.51 23.1895 137.603 22.9893 137.71 22.6572C137.817 22.3252 138.062 21.9883 138.442 21.6465C138.511 21.1484 138.73 20.8506 139.102 20.7529L139.644 19.9033C139.692 19.8447 139.761 19.8057 139.849 19.7861C139.946 19.7568 140.068 19.6787 140.215 19.5518C140.273 19.3271 140.464 19.1367 140.786 18.9805L141.211 18.5557L141.445 18.4385C141.504 18.3994 141.655 18.2627 141.899 18.0283C142.144 17.7939 142.383 17.6084 142.617 17.4717C142.861 17.3252 143.091 17.1885 143.306 17.0615C143.521 16.9248 143.647 16.8076 143.687 16.71C143.735 16.6025 143.813 16.4414 143.921 16.2266C144.028 16.002 144.126 15.7676 144.214 15.5234L144.507 15.1426C144.526 15.123 144.536 15.1035 144.536 15.084C144.536 15.0645 144.517 15.0107 144.478 14.9229V14.8936C144.478 14.6787 144.57 14.459 144.756 14.2344C144.951 14 145.049 13.7412 145.049 13.458C145.049 13.3799 145.117 13.2383 145.254 13.0332C145.4 12.8184 145.513 12.6914 145.591 12.6523L145.532 12.2861C145.591 12.1299 145.659 12.0078 145.737 11.9199C145.815 11.8223 145.894 11.5977 145.972 11.2461C146.079 11.002 146.182 10.8799 146.279 10.8799C146.357 10.8799 146.421 10.9287 146.47 11.0264C146.519 11.124 146.553 11.1729 146.572 11.1729C146.592 11.1533 146.602 11.1338 146.602 11.1143C146.602 10.9971 146.553 10.9189 146.455 10.8799C146.357 10.8311 146.309 10.7725 146.309 10.7041C146.309 10.46 146.343 10.2793 146.411 10.1621C146.479 10.0449 146.519 9.94727 146.528 9.86914C146.538 9.78125 146.572 9.70801 146.631 9.64941C146.699 9.59082 146.738 9.52734 146.748 9.45898C146.758 9.39062 146.772 9.3125 146.792 9.22461V9.07812C146.792 8.98047 146.855 8.84863 146.982 8.68262C147.109 8.50684 147.183 8.39941 147.202 8.36035C147.222 8.32129 147.241 8.29199 147.261 8.27246L147.393 8.24316L147.422 8.15527C147.275 8.13574 147.202 8.05273 147.202 7.90625C147.202 7.75 147.314 7.63281 147.539 7.55469C147.48 7.42773 147.451 7.3252 147.451 7.24707C147.451 6.99316 147.578 6.86621 147.832 6.86621H147.935L147.964 6.79297C147.876 6.69531 147.832 6.60742 147.832 6.5293C147.832 6.1875 147.915 6.0166 148.081 6.0166C148.101 6.0166 148.13 6.02637 148.169 6.0459L148.257 6.0752V5.9873C148.14 5.87988 148.081 5.78223 148.081 5.69434L148.198 5.35742L148.169 5.12305C148.169 5.02539 148.223 4.95215 148.33 4.90332C148.438 4.84473 148.491 4.7959 148.491 4.75684L148.535 4.61035C148.555 4.57129 148.564 4.44922 148.564 4.24414C148.613 4.19531 148.652 4.13672 148.682 4.06836V3.98047L148.652 3.67285C148.652 3.65332 148.677 3.59961 148.726 3.51172C148.774 3.42383 148.799 3.36035 148.799 3.32129C148.799 2.6377 148.618 2.15918 148.257 1.88574C148.14 1.86621 148.042 1.82227 147.964 1.75391C147.944 1.75391 147.92 1.74414 147.891 1.72461H147.393L146.938 1.94434L146.675 1.91504C146.548 2.05176 146.475 2.12012 146.455 2.12012L146.25 2.09082C146.211 2.09082 146.152 2.14453 146.074 2.25195C146.006 2.35937 145.918 2.4375 145.811 2.48633C145.703 2.53516 145.586 2.63281 145.459 2.7793C145.342 2.91602 145.225 3.00879 145.107 3.05762C144.99 3.10645 144.893 3.16992 144.814 3.24805C144.746 3.31641 144.595 3.42871 144.36 3.58496C144.263 3.84863 144.072 4.0293 143.789 4.12695C143.75 4.16602 143.711 4.27832 143.672 4.46387C143.408 4.68848 143.198 4.92773 143.042 5.18164L141.87 6.9248C141.831 6.97363 141.797 7.08594 141.768 7.26172C141.738 7.4375 141.704 7.54492 141.665 7.58398L141.416 7.84766V7.90625L141.445 8.05273C141.23 8.24805 141.123 8.37012 141.123 8.41895C141.123 8.49707 141.133 8.56543 141.152 8.62402V8.78516C141.152 8.79492 141.094 9.01953 140.977 9.45898L140.815 10.1035C140.776 10.1816 140.757 10.2988 140.757 10.4551L140.61 11.3633C140.61 11.373 140.645 11.4316 140.713 11.5391C140.781 11.6367 140.815 11.7051 140.815 11.7441L140.786 12.1104L140.815 12.6523L140.728 12.9746C140.806 13.082 140.908 13.2725 141.035 13.5459L141.152 13.7363H141.182L141.152 14.1172C141.328 14.2441 141.46 14.4297 141.548 14.6738C141.646 14.9082 141.792 15.0547 141.987 15.1133C142.192 15.1719 142.363 15.3574 142.5 15.6699C142.637 15.9727 142.705 16.2461 142.705 16.4902C142.705 16.793 142.637 16.9443 142.5 16.9443C142.148 16.9443 141.938 16.9053 141.87 16.8271C141.812 16.749 141.689 16.5488 141.504 16.2266L141.123 15.2598L140.684 14.4834C140.596 14.3369 140.537 14.1953 140.508 14.0586C140.479 13.9219 140.42 13.8145 140.332 13.7363C140.254 13.6582 140.215 13.5947 140.215 13.5459L140.244 13.3115L140.186 13.0039C140.186 12.9062 140.156 12.7988 140.098 12.6816C140.039 12.5645 140.005 12.4229 139.995 12.2568C139.985 12.0811 139.941 11.9443 139.863 11.8467C139.795 11.7393 139.761 11.5977 139.761 11.4219C139.761 11.3438 139.731 11.2217 139.673 11.0557C139.692 10.958 139.702 10.7676 139.702 10.4844L139.614 10.0449V9.98633L139.585 9.7959V9.7373C139.585 8.97559 139.678 8.28711 139.863 7.67188C139.883 7.61328 139.893 7.50098 139.893 7.33496L140.186 6.32422L140.405 5.84082C140.581 5.41113 140.742 5.10352 140.889 4.91797C141.045 4.73242 141.143 4.58105 141.182 4.46387C141.221 4.33691 141.348 4.22461 141.562 4.12695C141.748 3.78516 141.86 3.59473 141.899 3.55566L142.075 3.52637C142.212 3.2334 142.422 3.0625 142.705 3.01367C142.705 2.7793 142.935 2.55957 143.394 2.35449C143.56 2.25684 143.687 2.14941 143.774 2.03223C143.862 1.91504 144.009 1.85645 144.214 1.85645L145.796 1.25586C145.825 1.23633 145.908 1.29492 146.045 1.43164H146.074C146.133 1.43164 146.167 1.39746 146.177 1.3291C146.187 1.26074 146.226 1.21191 146.294 1.18262C146.362 1.14355 146.426 1.08496 146.484 1.00684H146.543L146.763 1.06543C147.163 1.06543 147.451 1.03613 147.627 0.977539H147.861L147.993 0.948242C148.726 0.948242 149.185 1.09961 149.37 1.40234L150.264 2.17871L150.425 2.66211L150.513 3.64355V3.98047L150.381 4.21484C150.41 4.27344 150.425 4.31738 150.425 4.34668L150.205 6.20703L149.927 7.07129C149.722 7.77441 149.551 8.15039 149.414 8.19922C149.287 8.24805 149.224 8.28223 149.224 8.30176C149.302 8.40918 149.341 8.49707 149.341 8.56543L149.282 8.75586V8.99023L149.077 9.69336C149.019 9.9375 148.887 10.123 148.682 10.25C148.643 10.25 148.623 10.2695 148.623 10.3086L148.74 10.4551V10.5137C148.74 10.5625 148.721 10.6553 148.682 10.792C148.643 10.9287 148.618 11.0459 148.608 11.1436C148.599 11.2314 148.545 11.2949 148.447 11.334C148.359 11.373 148.306 11.4219 148.286 11.4805V11.876C148.286 11.9834 148.193 12.1104 148.008 12.2568C147.832 12.4033 147.744 12.4961 147.744 12.5352L147.773 12.8867C147.715 12.9844 147.656 13.1455 147.598 13.3701C147.539 13.5947 147.466 13.7412 147.378 13.8096C147.3 13.8779 147.256 13.9707 147.246 14.0879C147.236 14.2051 147.158 14.3711 147.012 14.5859C146.865 14.791 146.792 14.9277 146.792 14.9961C146.792 15.0547 146.812 15.084 146.851 15.084C146.948 15.084 147.046 15.0107 147.144 14.8643C147.251 14.708 147.461 14.5615 147.773 14.4248L148.257 14.0293C148.335 13.9512 148.452 13.8828 148.608 13.8242C148.774 13.7656 148.979 13.5996 149.224 13.3262C149.478 13.0527 149.746 12.877 150.029 12.7988L150.454 12.5059C150.571 12.4375 150.669 12.4033 150.747 12.4033C150.952 12.4033 151.055 12.5059 151.055 12.7109C151.055 12.7891 151.021 12.9062 150.952 13.0625C150.894 13.209 150.854 13.3506 150.835 13.4873C150.825 13.6143 150.698 13.7559 150.454 13.9121L150.264 14.0879L149.971 14.0586C149.893 14.0977 149.81 14.2002 149.722 14.3662C149.634 14.5225 149.546 14.6006 149.458 14.6006C149.38 14.6006 149.292 14.6299 149.194 14.6885L149.004 14.7471H148.857C148.818 14.7764 148.765 14.8594 148.696 14.9961C148.628 15.1328 148.53 15.2158 148.403 15.2451L147.422 15.7725H147.334C147.129 15.9775 146.997 16.0947 146.938 16.124H146.675C146.226 16.4463 145.972 16.6465 145.913 16.7246C145.913 17.0469 145.815 17.2666 145.62 17.3838H145.591L145.62 17.7207C145.62 17.7598 145.537 17.8574 145.371 18.0137C145.352 18.0137 145.342 18.0479 145.342 18.1162L145.371 18.3506V18.3799C145.371 18.4189 145.293 18.5557 145.137 18.79C144.98 19.0146 144.883 19.1758 144.844 19.2734C144.863 19.3223 144.873 19.376 144.873 19.4346C144.873 19.5908 144.761 19.7178 144.536 19.8154C144.536 19.8936 144.39 20.2207 144.097 20.7969C143.813 21.3633 143.608 21.7295 143.481 21.8955L141.987 24.708C141.929 24.7666 141.851 24.8057 141.753 24.8252C141.685 24.9912 141.572 25.1133 141.416 25.1914C141.416 25.4941 141.299 25.6943 141.064 25.792C140.977 26.0264 140.854 26.2168 140.698 26.3633C140.64 26.7344 140.542 26.9346 140.405 26.9639C140.278 27.0029 140.2 27.0859 140.171 27.2129C140.142 27.3398 140.029 27.4375 139.834 27.5059C139.766 27.8379 139.614 28.0137 139.38 28.0332C139.302 28.1211 139.238 28.2334 139.189 28.3701C139.15 28.5068 139.023 28.624 138.809 28.7217C138.604 28.8291 138.433 28.9463 138.296 29.0732C138.159 29.2002 137.998 29.3076 137.812 29.3955C137.373 29.3662 137.012 29.1123 136.729 28.6338C136.455 28.1553 136.318 27.6963 136.318 27.2568L136.377 26.7734L136.348 26.334L136.611 25.8213ZM137.842 26.5684L137.915 26.7441L137.93 26.9785C137.949 27.0469 137.974 27.0811 138.003 27.0811C138.101 27.0811 138.218 26.959 138.354 26.7148L138.721 26.334C138.877 26.168 138.994 25.9385 139.072 25.6455C139.16 25.3623 139.331 25.2012 139.585 25.1621C139.624 24.7617 139.873 24.2832 140.332 23.7266C140.371 23.6582 140.415 23.541 140.464 23.375C140.513 23.2188 140.586 23.082 140.684 22.9648C140.781 22.8477 140.835 22.7402 140.845 22.6426C140.864 22.5547 140.977 22.3936 141.182 22.1592C141.211 21.915 141.299 21.6611 141.445 21.3975C141.592 21.1338 141.743 20.8506 141.899 20.5479L142.412 19.5225L143.306 18.2334C143.306 18.1748 143.291 18.1455 143.262 18.1455L142.705 18.4385C142.51 18.5166 142.373 18.624 142.295 18.7607C142.227 18.8877 142.173 18.9512 142.134 18.9512C142.007 18.9512 141.89 19.0537 141.782 19.2588C141.675 19.4541 141.562 19.6055 141.445 19.7129C141.328 19.8203 141.24 19.8936 141.182 19.9326C141.123 19.9619 141.094 19.9863 141.094 20.0059C141.094 20.0254 141.06 20.123 140.991 20.2988C140.894 20.377 140.776 20.5088 140.64 20.6943C140.503 20.8701 140.396 20.9824 140.317 21.0312C140.249 21.0703 140.166 21.2168 140.068 21.4707L139.834 21.6172C139.746 21.8711 139.663 22.0713 139.585 22.2178L139.38 22.2471C139.312 22.3643 139.272 22.4766 139.263 22.584C139.253 22.7012 139.233 22.7598 139.204 22.7598L139.043 22.8184C139.004 22.8672 138.936 22.999 138.838 23.2139L138.721 23.3018C138.682 23.3408 138.662 23.4727 138.662 23.6973C138.662 23.7949 138.613 23.9023 138.516 24.0195C138.428 24.1367 138.345 24.3174 138.267 24.5615L138.091 25.0449C138.091 25.1816 138.052 25.3379 137.974 25.5137L137.812 25.6162C137.812 25.6943 137.783 25.9141 137.725 26.2754C137.773 26.3633 137.812 26.4609 137.842 26.5684ZM160.576 16.5488L160.811 16.3438C160.957 16.3438 161.045 16.2803 161.074 16.1533C161.104 16.0166 161.206 15.9092 161.382 15.8311C161.567 15.7529 161.738 15.5967 161.895 15.3623C162.051 15.1182 162.212 14.9961 162.378 14.9961C162.437 14.9961 162.505 15.0449 162.583 15.1426C162.661 15.2402 162.7 15.3184 162.7 15.377C162.7 15.6992 162.603 16.0312 162.407 16.373L162.349 16.7832L162.246 16.9736C162.1 17.0518 162.002 17.1348 161.953 17.2227C161.914 17.3105 161.802 17.418 161.616 17.5449L161.47 17.75C161.255 17.8184 161.108 17.9307 161.03 18.0869C160.962 18.2432 160.859 18.3311 160.723 18.3506C160.596 18.3701 160.454 18.4678 160.298 18.6436C160.2 18.6924 160.083 18.7363 159.946 18.7754L159.917 18.9219C159.819 19.0195 159.663 19.0977 159.448 19.1562C159.243 19.2148 159.087 19.2734 158.979 19.332C158.882 19.3809 158.813 19.4053 158.774 19.4053C158.589 19.4053 158.418 19.3711 158.262 19.3027C158.105 19.2246 157.944 19.1758 157.778 19.1562C157.72 19.0977 157.686 19.0342 157.676 18.9658C157.666 18.8975 157.617 18.8096 157.529 18.7021C157.441 18.585 157.397 18.4287 157.397 18.2334L157.456 17.9551C157.456 17.916 157.432 17.8672 157.383 17.8086C157.334 17.75 157.31 17.7012 157.31 17.6621C157.31 17.623 157.319 17.5938 157.339 17.5742C157.358 17.5547 157.368 17.5254 157.368 17.4863C157.368 17.4375 157.358 17.3838 157.339 17.3252C157.319 17.2666 157.31 17.2178 157.31 17.1787L157.397 16.4609C157.397 16.4023 157.378 16.373 157.339 16.373C157.3 16.373 157.227 16.4219 157.119 16.5195C157.021 16.6172 156.904 16.666 156.768 16.666C156.689 16.7246 156.626 16.8467 156.577 17.0322C156.499 17.1299 156.401 17.2178 156.284 17.2959L156.226 17.3838C156.206 17.4521 156.133 17.5107 156.006 17.5596C155.879 17.5986 155.791 17.6523 155.742 17.7207L155.596 17.8672L155.317 17.8379C155.298 17.8574 155.244 17.9453 155.156 18.1016C155.068 18.248 154.956 18.3701 154.819 18.4678L153.706 19.376C153.589 19.4541 153.418 19.5518 153.193 19.6689L153.105 19.7568C152.324 20.2744 151.772 20.5332 151.45 20.5332C151.187 20.5332 150.879 20.46 150.527 20.3135C150.176 20.167 149.985 19.9912 149.956 19.7861L149.81 19.1855C149.722 19.0488 149.678 18.8584 149.678 18.6143C149.678 18.4971 149.688 18.4189 149.707 18.3799V18.292L149.678 17.8086C149.678 17.6914 149.771 17.6328 149.956 17.6328L149.927 17.2373C149.927 17.1982 150.01 17.0469 150.176 16.7832C150.352 16.5098 150.469 16.3535 150.527 16.3145L150.674 16.124C150.664 16.0068 150.732 15.8848 150.879 15.7578C151.025 15.6211 151.143 15.4844 151.23 15.3477C151.318 15.2109 151.484 15.0596 151.729 14.8936L152.168 14.4541C152.51 14.1123 152.881 13.8389 153.281 13.6338C153.34 13.6143 153.457 13.5166 153.633 13.3408C153.818 13.165 154.023 13.0381 154.248 12.96C154.482 12.8721 154.707 12.7646 154.922 12.6377C155.146 12.5107 155.322 12.4473 155.449 12.4473H155.566C155.605 12.4473 155.864 12.3252 156.343 12.0811H156.431C156.47 12.0811 156.562 12.1201 156.709 12.1982H156.738L156.973 12.0811C157.012 12.0615 157.061 12.0518 157.119 12.0518C157.725 12.0518 158.057 12.4717 158.115 13.3115C158.135 13.4873 158.184 13.5752 158.262 13.5752C158.359 13.5752 158.496 13.3994 158.672 13.0479C158.857 12.6865 159.243 12.5059 159.829 12.5059C160.249 12.5059 160.459 12.7744 160.459 13.3115C160.459 13.9463 160.176 14.5469 159.609 15.1133C159.57 15.1914 159.541 15.2793 159.521 15.377L159.316 15.9775V16.0068C159.316 16.0654 159.272 16.1484 159.185 16.2559C159.106 16.3535 159.067 16.4414 159.067 16.5195L159.097 16.8857L159.038 17.2959C159.038 17.4814 159.072 17.6035 159.141 17.6621C159.453 17.584 159.678 17.457 159.814 17.2812C159.961 17.0957 160.063 16.9932 160.122 16.9736L160.269 16.915C160.356 16.7686 160.459 16.6465 160.576 16.5488ZM155.713 16.5488C155.752 16.334 155.869 16.1729 156.064 16.0654C156.27 15.9482 156.392 15.8311 156.431 15.7139C156.616 15.5771 156.88 15.333 157.222 14.9814C157.573 14.6299 157.749 14.415 157.749 14.3369C157.749 14.3076 157.729 14.293 157.69 14.293H157.661L157.544 14.3662L157.28 14.3369L157.002 14.3662L156.797 14.2637L156.606 14.293L156.313 14.2344C156.157 14.2344 156.021 14.2686 155.903 14.3369C155.796 14.3955 155.581 14.4639 155.259 14.542C154.946 14.6201 154.663 14.7568 154.409 14.9521C154.155 15.1377 153.97 15.2305 153.853 15.2305C153.784 15.377 153.555 15.5869 153.164 15.8604C152.93 15.9385 152.778 16.1094 152.71 16.373C152.456 16.5781 152.329 16.6953 152.329 16.7246L152.227 16.9736C152.148 17.042 152.051 17.1006 151.934 17.1494C151.816 17.1885 151.748 17.291 151.729 17.457C151.709 17.6133 151.641 17.7598 151.523 17.8965C151.416 18.0234 151.362 18.126 151.362 18.2041C151.362 18.6826 151.455 18.9219 151.641 18.9219C151.719 18.9219 151.88 18.873 152.124 18.7754C152.378 18.668 152.524 18.5947 152.563 18.5557C152.603 18.5166 152.681 18.4775 152.798 18.4385L153.076 18.292C153.115 18.2529 153.159 18.2285 153.208 18.2188C153.257 18.209 153.306 18.1797 153.354 18.1309C153.403 18.0723 153.491 18.0137 153.618 17.9551C153.745 17.8867 153.843 17.7988 153.911 17.6914C154.077 17.5938 154.346 17.4424 154.717 17.2373L155.024 17.0029C155.239 16.9053 155.371 16.8223 155.42 16.7539C155.469 16.6855 155.566 16.6172 155.713 16.5488ZM173.291 16.7832V16.9443L173.32 17.0615V17.1201C173.32 17.1396 173.301 17.252 173.262 17.457C173.115 17.6133 173.032 17.833 173.013 18.1162L172.837 18.3799C172.837 18.5166 172.788 18.624 172.69 18.7021C172.603 18.7803 172.524 18.9365 172.456 19.1709C172.388 19.4053 172.305 19.6543 172.207 19.918L171.87 20.7529C171.87 20.792 171.89 20.8115 171.929 20.8115C171.948 20.8115 171.978 20.8018 172.017 20.7822C172.065 20.7627 172.109 20.7529 172.148 20.7529C172.188 20.7529 172.227 20.7627 172.266 20.7822C172.305 20.8018 172.334 20.8115 172.354 20.8115C172.373 20.8115 172.441 20.7773 172.559 20.709C172.686 20.6406 172.827 20.5967 172.983 20.5771L173.525 20.4453C173.643 20.4062 173.882 20.3867 174.243 20.3867L174.697 20.3574C175.059 20.3574 175.42 20.4502 175.781 20.6357C176.152 20.8213 176.382 21.0166 176.47 21.2217C176.567 21.4268 176.616 21.7588 176.616 22.2178C176.616 22.5791 176.494 22.7598 176.25 22.7598C176.104 22.7598 175.913 22.667 175.679 22.4814C175.454 22.2959 175.298 22.0615 175.21 21.7783C175.122 21.4951 174.98 21.3535 174.785 21.3535L174.419 21.2363L174.214 21.2949H174.155C174.116 21.2949 174.028 21.2656 173.892 21.207H173.848L173.408 21.3242H172.808L172.529 21.4707C172.393 21.5098 172.241 21.5391 172.075 21.5586C171.919 21.5781 171.777 21.6172 171.65 21.6758C171.523 21.7344 171.46 21.7881 171.46 21.8369C171.46 22.1396 171.328 22.3984 171.064 22.6133C170.967 22.7695 170.913 22.8916 170.903 22.9795C170.894 23.0771 170.835 23.1797 170.728 23.2871C170.63 23.4043 170.522 23.5801 170.405 23.8145L170.288 24.0195C170.249 24.0781 170.229 24.127 170.229 24.166C170.229 24.1855 170.239 24.2246 170.259 24.2832V24.415C170.259 24.6885 170.098 24.9473 169.775 25.1914V25.3379C169.775 25.416 169.697 25.5283 169.541 25.6748L169.6 25.9678C169.6 26.0068 169.546 26.085 169.438 26.2021C169.331 26.3291 169.238 26.4658 169.16 26.6123C169.092 26.7686 168.955 26.9053 168.75 27.0225V27.1104L168.838 27.2861C168.867 27.2861 168.882 27.3057 168.882 27.3447C168.882 27.4131 168.809 27.5156 168.662 27.6523C168.623 27.8086 168.555 27.96 168.457 28.1064L167.856 28.9121C167.759 29.0488 167.71 29.1562 167.71 29.2344L167.607 29.5127C167.5 29.6006 167.422 29.6885 167.373 29.7764C167.334 29.874 167.207 30.0596 166.992 30.333C166.777 30.6064 166.636 30.7432 166.567 30.7432C166.626 30.8604 166.655 30.9287 166.655 30.9482C166.655 31.0654 166.577 31.207 166.421 31.373C166.167 31.373 166.04 31.4268 166.04 31.5342L166.113 31.8271C166.113 31.8662 166.06 31.9248 165.952 32.0029C165.845 32.0811 165.757 32.1201 165.688 32.1201H165.483L165.542 32.3838C165.503 32.4912 165.444 32.5645 165.366 32.6035C165.288 32.6426 165.156 32.7549 164.971 32.9404C164.795 33.1357 164.668 33.2529 164.59 33.292L164.399 33.4092L163.828 33.4678C163.672 33.4189 163.369 33.2578 162.92 32.9844C162.48 32.7109 162.231 32.4521 162.173 32.208C162.104 31.9736 162.07 31.6367 162.07 31.1973C162.07 31.1484 162.119 31.0654 162.217 30.9482L162.246 30.8311V30.5527C162.246 30.5332 162.295 30.3574 162.393 30.0254C162.49 29.7031 162.573 29.5225 162.642 29.4834C162.71 29.4541 162.817 29.2637 162.964 28.9121C163.11 28.5605 163.223 28.3311 163.301 28.2236L164.648 26.2461C164.648 26.1191 164.668 26.0361 164.707 25.9971H164.795C164.873 25.9971 164.927 25.9678 164.956 25.9092C164.985 25.8604 165.029 25.8018 165.088 25.7334C165.088 25.5479 165.171 25.3965 165.337 25.2793C165.513 25.1621 165.635 25.0303 165.703 24.8838C165.781 24.7471 165.869 24.6201 165.967 24.5029L165.996 24.415C166.035 24.376 166.118 24.3271 166.245 24.2686C166.382 24.2197 166.46 24.1465 166.479 24.0488L166.978 23.5654C167.026 23.5264 167.104 23.4775 167.212 23.4189C167.319 23.3604 167.432 23.2529 167.549 23.0967L167.651 23.0527H167.739L167.798 23.0234C167.915 22.7695 168.032 22.6328 168.149 22.6133C168.276 22.5938 168.359 22.5645 168.398 22.5254C168.389 22.2227 168.56 22.0713 168.911 22.0713C168.989 22.0713 169.048 22.0518 169.087 22.0127L169.438 21.7344C169.487 21.6953 169.58 21.5049 169.717 21.1631V21.1338L169.98 21.207L170.01 21.1338L169.951 20.8115C169.98 20.7725 170.039 20.6406 170.127 20.416C170.215 20.1816 170.298 20.0449 170.376 20.0059C170.454 19.9668 170.493 19.9229 170.493 19.874V19.6982L170.464 19.5225L170.522 19.4053V19.2148L170.552 19.1562C170.601 19.1074 170.659 18.9268 170.728 18.6143C170.767 18.5752 170.82 18.5361 170.889 18.4971L171.548 16.6367C171.567 16.5879 171.597 16.4609 171.636 16.2559L171.753 16.0947C171.87 15.7822 171.929 15.582 171.929 15.4941C171.929 15.4551 171.909 15.4355 171.87 15.4355C171.831 15.4355 171.743 15.4941 171.606 15.6113C171.47 15.7188 171.367 15.7725 171.299 15.7725L171.064 15.7139H171.006C170.947 15.7139 170.864 15.7627 170.757 15.8604C170.659 15.958 170.601 16.0068 170.581 16.0068L170.405 16.0361C170.308 16.2021 170.22 16.2949 170.142 16.3145L169.775 16.5488H169.746L169.541 16.4023C169.541 16.3828 169.517 16.373 169.468 16.373C169.429 16.373 169.37 16.4902 169.292 16.7246L168.838 16.9443C168.74 16.9248 168.682 16.915 168.662 16.915C168.564 16.915 168.472 17.0078 168.384 17.1934C168.296 17.3691 168.179 17.4668 168.032 17.4863C167.954 17.5742 167.773 17.6426 167.49 17.6914L166.626 18.292C166.528 18.3311 166.46 18.3799 166.421 18.4385C166.216 18.458 166.025 18.5703 165.85 18.7754L165.454 18.7461C165.356 18.7461 165.259 18.8096 165.161 18.9365C165.073 19.0635 164.98 19.127 164.883 19.127H164.795L164.619 19.0977L164.136 19.2148C163.999 19.2148 163.789 19.1123 163.506 18.9072C163.223 18.6924 163.081 18.5068 163.081 18.3506L162.993 17.6914C162.993 17.6719 163.032 17.6035 163.11 17.4863C163.188 17.3691 163.228 17.2861 163.228 17.2373C163.228 17.2178 163.218 17.1787 163.198 17.1201V17.0029C163.198 16.6611 163.32 16.251 163.564 15.7725V15.7139C163.564 15.6748 163.535 15.6553 163.477 15.6553C163.35 15.6553 163.242 15.7627 163.154 15.9775C163.066 16.1826 162.964 16.3291 162.847 16.417C162.729 16.5049 162.642 16.5781 162.583 16.6367C162.534 16.6953 162.49 16.7246 162.451 16.7246C162.393 16.6855 162.324 16.6562 162.246 16.6367C162.227 16.6172 162.192 16.5586 162.144 16.4609C162.095 16.3633 162.021 16.2852 161.924 16.2266C161.816 16.1582 161.763 16.0459 161.763 15.8896C161.763 15.7822 161.904 15.6406 162.188 15.4648L162.363 15.2891C162.812 14.8398 163.115 14.6006 163.271 14.5713L163.359 14.3662C163.496 14.2588 163.662 14.1123 163.857 13.9268C164.062 13.7314 164.243 13.5947 164.399 13.5166L165.19 12.8281C165.425 12.6133 165.747 12.5059 166.157 12.5059C166.47 12.5059 166.626 12.7061 166.626 13.1064C166.626 13.5068 166.553 13.8193 166.406 14.0439C166.27 14.2588 166.182 14.459 166.143 14.6445C166.113 14.8203 165.986 15.0596 165.762 15.3623C165.537 15.6553 165.4 15.875 165.352 16.0215C165.303 16.1582 165.2 16.3535 165.044 16.6074C164.897 16.8516 164.824 17.0713 164.824 17.2666C164.824 17.3643 164.883 17.4131 165 17.4131C165.166 17.4131 165.376 17.3252 165.63 17.1494L165.762 17.0908C165.859 17.0518 165.957 17.0029 166.055 16.9443L166.421 16.7832C166.489 16.6367 166.597 16.5391 166.743 16.4902L167.021 16.3438C167.158 16.2852 167.324 16.2119 167.52 16.124C167.725 16.0264 167.856 15.9336 167.915 15.8457C167.974 15.7578 168.047 15.6895 168.135 15.6406C168.232 15.582 168.34 15.4941 168.457 15.377C168.711 15.377 169.062 15.1572 169.512 14.7178C169.961 14.4541 170.381 14.1953 170.771 13.9414C171.162 13.6777 171.421 13.4873 171.548 13.3701C171.606 13.3311 171.709 13.2773 171.855 13.209C172.012 13.1406 172.183 13.0332 172.368 12.8867C172.563 12.7305 172.808 12.6523 173.101 12.6523C173.354 12.6523 173.599 12.75 173.833 12.9453C174.067 13.1309 174.185 13.3164 174.185 13.502L174.155 14.2051C174.155 14.6543 174.033 15.0352 173.789 15.3477C173.73 15.7383 173.662 16.0068 173.584 16.1533L173.613 16.4902C173.613 16.5488 173.506 16.6465 173.291 16.7832ZM166.348 28.0039L166.421 27.7988C166.44 27.7305 166.509 27.6621 166.626 27.5938C166.724 27.1738 166.855 26.9004 167.021 26.7734C167.021 26.5586 167.031 26.4365 167.051 26.4072L167.256 26.2168L167.827 25.25C167.886 25.1133 167.949 24.9814 168.018 24.8545C168.086 24.7373 168.14 24.6201 168.179 24.5029C168.179 24.3662 168.34 24.0977 168.662 23.6973V23.5947C168.662 23.458 168.633 23.3896 168.574 23.3896C168.516 23.458 168.418 23.5264 168.281 23.5947L167.344 24.3857C167.295 24.4248 167.163 24.5811 166.948 24.8545L166.67 25.1475C166.514 25.3135 166.392 25.416 166.304 25.4551C166.226 25.5039 166.123 25.6455 165.996 25.8799C165.879 26.124 165.776 26.2461 165.688 26.2461H165.63C165.62 26.2461 165.571 26.2217 165.483 26.1729C165.425 26.2021 165.396 26.2461 165.396 26.3047L165.483 26.6562C165.483 26.6953 165.444 26.7539 165.366 26.832C165.288 26.9199 165.22 27.0127 165.161 27.1104C165.112 27.208 165.059 27.2666 165 27.2861C164.941 27.3057 164.834 27.4863 164.678 27.8281L164.399 27.9746C164.37 28.5508 164.189 29.0146 163.857 29.3662C163.779 29.5225 163.716 29.6738 163.667 29.8203C163.618 29.9766 163.574 30.0742 163.535 30.1133C163.477 30.4746 163.374 30.6846 163.228 30.7432C163.188 30.7627 163.169 30.792 163.169 30.8311C163.169 30.8896 163.213 30.9482 163.301 31.0068L163.359 31.0654C163.232 31.4463 163.169 31.7295 163.169 31.915C163.169 31.9541 163.188 31.9736 163.228 31.9736L163.667 31.7539C163.979 31.6074 164.189 31.4219 164.297 31.1973L164.531 30.7432C164.57 30.6846 164.639 30.6455 164.736 30.626C164.795 30.4209 164.888 30.2891 165.015 30.2305C165.151 30.1719 165.22 30.0938 165.22 29.9961C165.22 29.8984 165.4 29.5615 165.762 28.9854C166.133 28.4092 166.328 28.082 166.348 28.0039Z" fill="white"/>
</svg>
